<?xml version="1.0" standalone="no"?>
<!DOCTYPE svg PUBLIC "-//W3C//DTD SVG 1.1//EN" "http://www.w3.org/Graphics/SVG/1.1/DTD/svg11.dtd" >
<svg xmlns="http://www.w3.org/2000/svg" xmlns:xlink="http://www.w3.org/1999/xlink" version="1.1">
<metadata></metadata>
<defs>
<font id="mansalvaregular" horiz-adv-x="1228" >
<font-face units-per-em="2048" ascent="1638" descent="-410" />
<missing-glyph horiz-adv-x="512" />
<glyph unicode="&#xfb01;" horiz-adv-x="1191" d="M102 594q0 12 13.5 27.5t25.5 17.5q86 12 117 39t31 74q0 14 -4 55q-12 117 -13 188q0 47 7 72l12 59q12 61 23.5 99.5t33.5 81.5q49 84 168 84q18 0 47 -5q33 -6 66 -28.5t61.5 -47t40.5 -34.5q18 -14 32.5 -43t14.5 -55q0 -6 -4 -19q-16 -47 -72 -47q-27 0 -57 10 q-51 14 -86 15q-41 0 -56.5 -23.5t-15.5 -79.5l2 -45q4 -74 5 -106q0 -61 -7 -123q-10 -86 78 -80q14 2 41 2q31 0 92 -4q209 2 277 -10q14 -4 24 -15q41 -10 61.5 -21t22.5 -42l2 -68q5 -90 5 -137q0 -111 -15.5 -205t-54.5 -180q-8 0 -38 8t-40 6q-25 12 -31 35t-4 74 q2 16 2 53l-2 98q-4 70 -4 111q0 84 10 154q-57 -8 -159 -9h-86q-51 0 -74 -2q-96 -6 -96 -71q0 -16 6 -39q20 -80 41 -248q14 -129 31.5 -218t58.5 -169q4 -8 4 -12q0 -39 -37 -73t-78 -34q-47 0 -71 53q-23 51 -39.5 107.5t-36.5 142.5q-20 84 -27 109q-23 82 -37 221 q-16 135 -32 199q-2 10 -12.5 15t-25 8t-22.5 7q-12 8 -39.5 13.5t-40.5 11.5q-14 6 -26.5 19.5t-12.5 23.5z" />
<glyph unicode="&#xfb02;" horiz-adv-x="1150" d="M82 635q0 8 11 20.5t22 14.5q41 6 60.5 25.5t24.5 43t7 72.5l4 107q0 88 6 151.5t29 120.5q16 43 113.5 70.5t193.5 27.5q29 0 41 -2t202.5 -22.5t213.5 -69.5q6 -8 24.5 -31.5t22.5 -52.5q27 -252 26 -518q0 -137 -6 -279q-2 -38 -2 -114l2 -232q0 -16 -25.5 -40.5 t-37.5 -26.5q-43 -6 -47 -6q-49 0 -60 55q-6 35 -6 108q-2 0 -14.5 317.5t-14.5 512.5q0 29 -2 47q0 90 -6 121q0 6 -2 11t-4 34q-59 -2 -126.5 3t-82.5 5q-59 2 -123.5 -26.5t-91.5 -106.5q-12 -37 -12 -76l2 -70q2 -53 8 -70.5t29 -17.5t74 13l61 -17q59 -14 102 -26 q8 -2 16.5 -17.5t14.5 -21.5q-8 -6 -22.5 -17.5t-26.5 -13.5l-88 -16q-35 -4 -88 -17q-43 -8 -43 -41q0 -12 5 -31.5t7 -33.5q16 -74 41 -391q25 -291 39 -365q4 -18 11 -54t7 -61q0 -37 -24.5 -59.5t-73.5 -22.5q-88 0 -106 80q-16 84 -43 348q-4 41 -18.5 170t-26.5 181 q-16 82 -23 151q-10 104 -102 105q-31 0 -43 10q-29 20 -29 41z" />
<glyph horiz-adv-x="0" />
<glyph unicode="&#xd;" horiz-adv-x="0" />
<glyph unicode=" "  horiz-adv-x="512" />
<glyph unicode="&#x09;" horiz-adv-x="512" />
<glyph unicode="&#xa0;" horiz-adv-x="512" />
<glyph unicode="!" horiz-adv-x="690" d="M102 82q0 41 11 76q18 -4 57 -12.5t66 -16.5q35 -10 61 -33q39 -33 39 -76q0 -27 -17 -49q-29 -41 -73 -41q-25 0 -49 13q-47 20 -71 54t-24 85zM211 317q6 70 27 158q104 434 120 807l2 31q4 80 23.5 115.5t62.5 35.5q35 0 75 -49t46 -100l21 -156l-13 -74 q-18 -123 -28 -172q-27 -121 -98 -397q-33 -115 -60 -166q-29 -61 -82 -110q-14 -14 -41 -15q-12 0 -24 8q-12 12 -21.5 38t-9.5 46z" />
<glyph unicode="&#x22;" horiz-adv-x="786" d="M102 817q0 47 10.5 91t32.5 118q25 78 35 131l-2 45q-4 86 -6 111q0 68 14 123q2 8 39 16t78 8q39 0 64.5 -8t23.5 -25q-4 -25 -4 -40t-2 -25q-4 -49 -16 -105q-29 -127 -83.5 -249.5t-138.5 -204.5q-10 -6 -18 -2q-27 8 -27 16zM408 817q0 92 30 230q4 25 17 90l4 41 q6 158 33 258q0 10 47 10q53 0 100 -13.5t45 -37.5q-2 -18 -2 -41q0 -12 1 -20.5t1 -14.5q0 -14 -10 -62q-23 -102 -38 -159.5t-49 -118.5t-91 -119q-6 -6 -32 -33.5t-30 -25.5q-27 8 -26 16z" />
<glyph unicode="#" horiz-adv-x="1744" d="M293 537q0 29 49 53q35 14 68 18l227 43v2q20 63 35 140l8 45q-10 -2 -24.5 -3t-28.5 -4l-56 -8q-53 -6 -75 -6q-72 0 -131 25q-20 10 -38 27.5t-20 33.5q-2 10 21.5 22.5t48.5 18.5q115 27 203 37l135 12q10 43 86 355l33 137l59 2q23 0 33 -4q49 -10 71.5 -28.5 t22.5 -49.5q0 -20 -10 -51q-16 -61 -40 -140t-34 -118l-29 -86l226 16l16 84q6 29 15.5 84t15.5 96q8 51 23.5 76t37.5 18q66 -20 111 -63q20 -20 20 -76q0 -33 -8 -76l-27 -127l56 7q16 2 51 2q39 0 51 -4q20 -4 35.5 -13.5t21.5 -19.5q0 -6 -14 -17.5t-27 -13.5l-45 -14 q-25 -6 -71.5 -19.5t-85.5 -21.5q-31 -139 -47 -211q135 10 200 14q53 0 82 -12q14 -6 24.5 -18.5t14.5 -26.5q2 -8 -10 -20.5t-27 -18.5q-12 -2 -65.5 -19.5t-102.5 -25.5l-153 -27q-23 -92 -70 -274q-25 -100 -55.5 -168t-77.5 -98q-31 -23 -43 -23q-25 0 -25 55 q0 10 4 58l9 75l69 344l-168 -28l-98 -17l-4 -30q-68 -238 -102 -355q-16 -53 -29.5 -73.5t-36.5 -20.5q-16 0 -38.5 10.5t-63.5 34.5q2 16 6 60q6 78 20 131q18 70 60 211q-29 -4 -39 -9q-29 -6 -54 -6q-70 0 -149 41q-47 29 -47 56zM821 680l180 22l72 3l31 174q4 8 4 16 l-240 -31q-14 -61 -37 -147z" />
<glyph unicode="$" horiz-adv-x="1165" d="M102 764q-4 94 88 184q70 70 164 135q72 49 70 125q-2 31 -2 86v43q0 14 1 38t-1 59l-2 45q0 35 13 56t52 30q27 4 39 4q80 0 105 -74q16 -51 24.5 -95t10.5 -104q2 -55 11 -69.5t34 -14.5q109 0 221 -75q29 -18 28 -47q0 -29 -30 -50q-39 -25 -52.5 -30.5t-60.5 -18.5 q-9 -2 -29 -2q-45 0 -86 6l-41 2l-8 -67q-25 -82 -24 -109q0 -20 13 -28.5t50 -14.5t88 -10q35 -8 78 -25.5t74 -37.5q29 -18 46 -50t17 -69q0 -55 -37 -99q-20 -27 -35.5 -47t-27.5 -37q-41 -55 -73 -94t-75 -76q-49 -41 -62 -56t-13 -38l2 -35q4 -63 2 -153v-154 q0 -119 -84 -119q-68 0 -86.5 23t-19.5 51.5t-1 38.5q0 53 -2 89t-4 63q-2 37 -8 106q0 33 -18.5 49.5t-55.5 24.5q-33 8 -61.5 22.5t-57 31t-45.5 26.5q-8 4 -10 22.5t-4 22.5q8 2 25.5 6t27.5 2q86 -23 117 -23q43 0 57.5 32t14.5 116q0 20 -2 31q0 16 1 39.5t1 37.5 q0 37 -15.5 61.5t-64.5 14.5q-20 -4 -53 -6q-27 -2 -50.5 7t-66.5 32q-51 31 -78 74t-29 92zM299 834q0 -8 4 -31q-4 -45 15.5 -77t58.5 -32q31 0 55.5 11.5t26.5 27.5q4 22 4 49q0 53 -8.5 116t-16.5 67q-66 -23 -102.5 -53.5t-36.5 -77.5zM625 516q0 -63 30 -147 q90 41 127 105.5t33 139.5q-55 16 -86 17q-104 0 -104 -115z" />
<glyph unicode="%" horiz-adv-x="1679" d="M219 246q0 31 14 51l46 57q188 240 290 342q328 362 533 572q18 18 47 55q45 57 83 86t93 37q29 4 49 4q49 0 80 -16q18 -6 29.5 -21.5t11.5 -32.5q0 -27 -25 -53q-145 -158 -301 -313q-70 -74 -198.5 -207t-225.5 -229q-100 -100 -311 -281l-57 -49q-19 -15 -50.5 -31 t-50.5 -24q-12 8 -32.5 17t-22.5 19q-2 6 -2 17zM442 1417q-2 70 23 127q33 78 121 148q18 14 71 14h70q72 0 143.5 -63.5t96.5 -139.5q29 -86 26 -143q-4 -109 -94 -182q-35 -29 -119 -56l-51 -18l-6 18q-13 -2 -33 -2q-121 0 -182.5 89t-65.5 208zM559 1593 q18 -133 66 -311q10 -39 37 -39q14 0 36 12q68 37 93.5 96.5t33.5 166.5q-2 25 -27.5 61.5t-63.5 63t-72 26.5q-39 0 -73 -23.5t-30 -52.5zM1028 449q0 78 43 147q14 23 35.5 42t46.5 35.5t37 28.5q6 6 20 7q16 0 19 -7q18 -29 42.5 -37t57.5 -8h31q96 0 157.5 -81.5 t61.5 -202.5q0 -111 -70.5 -164t-175.5 -53q-41 0 -92 8q-90 23 -151.5 103.5t-61.5 181.5zM1231 502q0 -49 16.5 -94.5t48.5 -71.5q45 51 45 121q0 45 -20.5 89t-58.5 72q-31 -47 -31 -116z" />
<glyph unicode="&#x26;" horiz-adv-x="1415" d="M102 1198q0 111 71 205t178.5 149.5t211.5 55.5q94 0 154 -43q53 -37 88 -123t35 -164q0 -14 -4 -39q-33 -199 -162 -319q-47 -43 -47 -84q0 -39 47 -78q63 -48 192 -150q12 33 22.5 56.5t16.5 40.5q6 16 28.5 71t35.5 105q23 96 102 96q80 0 80 -76q0 -25 -6 -49 q-51 -178 -92 -281q-14 -39 -15 -59q0 -35 49 -68q225 -133 226 -391q0 -57 -25.5 -92t-66.5 -35q-16 0 -35 6q-29 8 -44.5 23.5t-15.5 42.5q0 14 2 20t2 23q0 68 -54 156t-113 118q-25 10 -35 11q-16 0 -28.5 -10.5t-35.5 -34.5l-41 -43q-55 -59 -95 -96.5t-87 -59.5 q-76 -37 -152 -37q-125 0 -222 87t-117 226q-6 37 -7 70q0 162 125 326q29 39 29 59q0 25 -35 59q-76 74 -118 152t-42 174zM344 1217q0 -100 68 -193q29 -37 51 -37q25 0 43 37q24 53 41.5 95t32.5 73l36 92l-14 10q-8 59 -14 82q-12 45 -28.5 67.5t-41.5 22.5 q-33 0 -84 -47q-43 -41 -66.5 -94t-23.5 -108zM397 410q0 -31 9 -93q8 -47 39.5 -76.5t68.5 -29.5q35 0 57 25q70 76 150 194q4 4 4 19q0 14 -4 28.5t-12 18.5q-45 34 -82 61t-64 47l-84 62q-82 -117 -82 -256z" />
<glyph unicode="'" horiz-adv-x="245" d="M33 975q-2 -10 15.5 -27.5t23.5 -15.5q8 4 32.5 16.5t40 24.5t21.5 26q25 57 46 131t40 144q2 8 2 24q0 43 -29.5 71t-79.5 28q-20 0 -43 -6q-2 -2 -18 -13.5t-18 -27.5q-18 -166 -33 -375z" />
<glyph unicode="(" horiz-adv-x="819" d="M166 268q0 14 4 47q80 510 410 863q14 20 36 36l105 80q37 -10 56.5 -36.5t35.5 -71.5q6 -12 6 -25q0 -35 -39 -65q-180 -143 -280 -340q-68 -129 -111 -250t-70 -240q-12 -53 -8 -139q6 -117 103 -164q88 -43 233 -108l68 -31l78 -33q-15 -27 -34.5 -36t-43.5 -9 q-147 0 -295 102q-92 63 -146.5 117.5t-76.5 134.5q-29 104 -31 168z" />
<glyph unicode=")" horiz-adv-x="614" d="M18 1247q57 0 92 -12t60 -41l63 -80q123 -156 162 -203q57 -76 79 -165t38 -222l6 -47q4 -53 4 -80q0 -227 -145 -481q-45 -78 -125 -115t-191 -47l70 113l82 133q145 236 143 483q0 203 -98 408q-20 43 -58 87t-50 58q-18 25 -39 45q-55 70 -52 64q-12 18 -23 51t-18 51 z" />
<glyph unicode="*" horiz-adv-x="1253" d="M102 457q0 31 35 57q98 74 209 129q25 14 36 23.5t11 21.5q0 18 -35 45q-117 96 -213 197q-10 10 -16 29.5t-6 37.5q0 10 4 19q16 16 44 25.5t48 5.5q66 -14 115 -55.5t98 -108.5l45 -54l23 9q-12 127 -15 194q0 59 21 70q20 10 49 10q25 0 33 -8q55 -62 123 -152l34 -45 l95 119q8 10 25.5 32.5t35.5 35.5q25 16 58.5 29.5t44.5 17.5q2 -14 4 -34t2 -44q0 -14 -4 -35q-18 -59 -58 -143l-16 -39h86q53 0 80 -2q12 0 28.5 -9.5t24.5 -13.5q-4 -8 -12.5 -24.5t-18.5 -22.5q-31 -18 -147 -82l-92 -51l-64 -37q29 -20 90 -57q80 -47 128 -87t77 -102 q-18 -25 -43 -24q-16 0 -37.5 14t-32.5 21l-208 106l-9 -76q-23 -240 -45 -430q-2 -8 -25.5 -19t-39.5 -20l-101 365q-16 -25 -27.5 -44.5t-19.5 -31.5l-51 -82q-29 -43 -92 -43q-45 0 -84 25q-39 27 -39 63q0 29 23 64q16 23 31.5 55.5t21.5 42.5l26 53q-53 -8 -57 -8h-43 q-72 0 -104 10q-25 8 -39.5 24.5t-14.5 33.5z" />
<glyph unicode="+" horiz-adv-x="1433" d="M102 455q0 39 45 77q70 59 154 95.5t195 64.5q49 12 65.5 20.5t22.5 26t10 66.5q4 29 4 84l-2 127q0 10 -4 29.5t-4 29.5q4 43 26.5 68.5t57.5 25.5q23 0 41 -8q137 -47 149 -174q2 -23 2 -65l-2 -134q10 -2 34 -8t40 -4q188 12 283 23l28 2q84 0 84 -51 q0 -43 -51 -101.5t-109 -87.5l-120 -18q-106 -16 -160 -23q-47 -6 -72.5 -29.5t-40.5 -70.5q-74 -246 -123 -363q-20 -51 -110 -110q-27 -16 -45 -17q-18 0 -27.5 17.5t-7.5 48.5q8 84 37 262l12 82l12 74q-72 0 -127 -39q-53 -37 -116 -37q-35 0 -99 18q-82 25 -82 99z" />
<glyph unicode="," horiz-adv-x="614" d="M16 -373q37 74 68 221l68 222q4 12 10 52t24.5 92t51.5 105q6 11 45 15q63 6 126.5 -7.5t57.5 -45.5q-14 -76 -51 -162q-8 -20 -21 -60q-90 -283 -301 -485q-6 12 -43 30.5t-35 22.5z" />
<glyph unicode="-" horiz-adv-x="1251" d="M102 541q0 39 60 67q51 23 106 29l99 6q217 18 358 19q111 0 204 -23t171 -82q24 -18 36.5 -32.5t12.5 -35.5q0 -20 -14 -43q-33 -6 -39 -4q-88 23 -217 23q-98 0 -236 -14l-82 -7q-43 -4 -115 -20l-65 -12q-29 -4 -45 -4q-100 0 -193 69q-41 29 -41 64z" />
<glyph unicode="." horiz-adv-x="458" d="M102 70q0 25 15.5 43t44.5 37l18 12l18.5 18.5t28 21.5t25.5 7q18 0 39 -14q27 -16 46 -58.5t19 -79.5q0 -8 -4 -24q-12 -41 -46 -72t-68 -31q-47 2 -91.5 45t-44.5 95z" />
<glyph unicode="/" horiz-adv-x="897" d="M102 -102l11 82q14 111 26 165q35 137 86 308l68 237q29 104 49 219q12 61 41 185l96 417q33 143 45 189q23 0 41.5 2t36.5 2q23 0 45 -6q63 -14 93 -38t30 -69q0 -23 -10 -63l-58 -195q-53 -180 -90 -305q-25 -98 -75 -299l-78 -299q-2 -10 -6 -23.5t-9 -27.5 q-14 -51 -51 -182t-67 -236q-21 -70 -39.5 -97.5t-46.5 -27.5q-41 0 -138 62z" />
<glyph unicode="0" horiz-adv-x="1052" d="M49 467q0 195 113 342q41 59 111.5 137t140.5 135q143 119 329 127h7q31 0 62.5 -14t82.5 -41q8 -6 16.5 -30.5t3.5 -41.5q-4 -4 -36 -18l-25 -10l-18 -4l-21 -2l-31 -7l21 -24q20 -31 41 -55q53 -72 69 -101q61 -109 64 -227q0 -88 -29.5 -174t-81.5 -191 q-88 -180 -198 -264q-100 -76 -217 -76q-61 0 -127 25q-92 35 -158 112.5t-90 180.5q-29 123 -29 221zM258 360q-2 -47 6 -100q6 -43 30.5 -90t55.5 -57q12 -4 27 -4q33 0 68.5 17t60.5 42q248 248 266 694v2l-2 13q0 18 -2 26q-4 90 -39 111q-8 4 -20 4q-29 0 -78 -37 q-78 -51 -170 -143q-195 -195 -203 -478z" />
<glyph unicode="1" horiz-adv-x="882" d="M55 791q0 37 35 79l154 199l209 279q39 51 98 51q35 0 76 -13.5t51 -17.5q35 -10 45 -31.5t10 -58.5v-47q0 -115 -5 -198t-7 -138l-14 -336q-2 -57 -2 -174v-199v-100q0 -25 -10.5 -57.5t-16.5 -34.5q-66 -2 -104.5 10t-45.5 70q-6 51 -8 151q-4 162 4 486q4 219 4 329 q0 8 -2 18.5t-2 22.5q-6 2 -13 4t-15 7q-113 -176 -168 -263q-29 -45 -60 -92q-33 -45 -78 -45q-39 0 -98 39q-37 25 -37 60z" />
<glyph unicode="2" horiz-adv-x="1136" d="M84 831q0 63 61.5 132t144.5 122.5t136 71.5q76 27 139 27q78 0 139.5 -33t95.5 -85t34 -112q0 -45 -25 -92q-47 -90 -55 -106q-170 -342 -351 -676q135 8 243 26.5t233 61.5q14 6 79.5 33.5t116.5 27.5q43 0 58 -28q4 -14 4 -19q0 -55 -123 -114.5t-226 -94.5 q-111 -37 -225 -36q-166 0 -368 92q-7 4 -7 16q0 41 53.5 163t164.5 310q14 25 69 130.5t87 172t40 101.5q4 39 -12.5 71.5t-44.5 32.5q-23 0 -45 -16q-20 -18 -70 -88l-33 -45l-30 -35q-55 -61 -95.5 -96t-74.5 -35q-14 0 -31 10q-82 51 -82 110z" />
<glyph unicode="3" horiz-adv-x="835" d="M70 1114q0 14 12 25.5t36.5 26t41.5 20.5q94 72 198 71q86 0 148 -47q68 -57 67 -123q0 -47 -34 -106q-2 -2 -31 -43q-43 -55 -53 -72q125 -16 194.5 -47t100 -91t30.5 -167q0 -154 -36.5 -284t-120.5 -240q-64 -86 -121.5 -124t-122.5 -38q-84 0 -221 68q16 6 36.5 15 t30.5 11q90 10 147.5 67.5t94.5 149.5q84 201 84 379q0 27 -4 78q-12 94 -62 94q-20 0 -61 -26l-180 -131q-25 -16 -49 -17q-23 0 -41.5 10.5t-49.5 32.5q-2 0 -2 8q0 18 23 54l96 149l94 148q12 16 23 61q4 23 4 35q0 41 -43 41q-14 0 -68 -12q-63 -18 -98 -19 q-37 0 -59 16q-4 16 -4 27z" />
<glyph unicode="4" horiz-adv-x="1144" d="M72 492q-6 55 32 135q160 354 414 649q14 18 48 27.5t48 15.5q20 6 82 6q70 0 127.5 -15.5t63.5 -54.5q8 -47 8 -110q0 -55 -6 -113q-6 -57 -29 -170q-10 -39 -26 -114q-3 -9 -8 -30.5t-5 -39.5q29 4 51 14q10 2 37 9.5t47 7.5q68 0 103 -78q-4 -6 -49 -29 q-63 -35 -90 -41q-98 -25 -121 -52.5t-25 -72.5t-2 -61l-33 -438q-6 -92 -30 -146q-6 -14 -24.5 -28.5t-41.5 -20.5q-59 -14 -61 61q-4 158 -7 308l9 159l4 74q2 25 1 44.5t-1 35.5l-68 -18q-74 -14 -180 -50q-27 -8 -70 -8q-72 0 -129 32t-67 83q0 8 -2 29zM274 506 q8 -2 21.5 -4t19.5 0q133 43 271 84q12 2 21 20.5t11 32.5q27 170 44 317q2 39 10 109l4 53q-298 -278 -402 -612z" />
<glyph unicode="5" horiz-adv-x="1329" d="M72 111l2 14q43 4 65 4q51 8 99 8q41 0 77 -8q18 -4 54 -4q70 0 119 30.5t85 84.5q55 66 56 143q0 57 -25 104q-41 98 -100.5 161t-161.5 77q-35 4 -92 37q-66 35 -68 51q-2 12 11.5 29.5t42.5 46.5q94 92 200 252q41 61 89 87.5t120 28.5q94 4 275 35q162 25 206 29 q63 6 82 6q10 0 45 -4l86 -8q10 -2 16.5 -18.5t6.5 -39.5q0 -25 -8 -48t-25 -29q-31 -9 -74 -17l-116 -14q-244 -31 -396 -62q-23 -4 -86 -66.5t-110 -124.5t-31 -73q4 -2 51 -39q61 -55 105 -84q25 -14 51 -36q131 -104 131 -246q0 -90 -51 -197q-51 -104 -111.5 -167.5 t-150.5 -73.5q-47 -6 -90 -7q-215 0 -379 138z" />
<glyph unicode="6" horiz-adv-x="1064" d="M68 485q0 23 2 37q23 391 329 719q31 33 79 48.5t100 15.5q78 0 118 -31q14 -12 24.5 -30.5t18.5 -49.5q2 -8 -13 -24.5t-26 -16.5q-70 0 -119 -29.5t-79.5 -71.5t-69.5 -114q-4 -8 -9 -18.5t-13 -22.5q-53 -98 -85 -184t-30 -178q2 -125 49 -226q23 -49 35 -49 q8 0 21.5 21.5t25.5 37.5q37 49 67.5 77t71.5 59q49 37 119 37q66 0 130.5 -32t106.5 -85t42 -113q0 -53 -30 -111.5t-71 -91.5q-92 -74 -225 -71q-37 0 -55 2q-107 12 -229 83.5t-203.5 184.5t-81.5 227zM524 168q27 -18 76 -18q61 0 114.5 32.5t53.5 75.5q0 18 -12 39 q-31 49 -70 49q-16 0 -35 -10q-47 -27 -69.5 -44.5t-40 -48t-17.5 -75.5z" />
<glyph unicode="7" horiz-adv-x="1046" d="M-20 1241q70 8 104 14q23 2 82 7.5t108 13.5q164 27 500 18q80 -2 135 -18q96 -29 97 -98q0 -39 -29 -97q-45 -88 -79 -180t-91 -229q-39 -94 -84 -254q-20 -72 -39 -127l-18 -55q-41 -125 -72 -197q-39 -84 -84 -98q-18 -6 -37 -7q-47 0 -63 25q-16 27 -21 76 q-2 31 10 61q45 113 119 320q8 23 48 122t71 195q14 45 55 129q6 12 34 72.5t38 105.5q2 8 2 25q0 33 -21.5 48t-54.5 13q-100 -6 -434 -32q-54 -4 -74 -4q-68 0 -110.5 30.5t-91.5 120.5z" />
<glyph unicode="8" horiz-adv-x="1001" d="M61 362q0 14 5 44q4 100 32.5 179t100.5 214l32 61q2 8 21.5 28.5t28.5 33.5q-57 18 -93 41.5t-57 64.5q-35 57 -35 119q0 47 18.5 89t55.5 110q82 96 165 143t183 53q61 4 146 -22q59 -18 111 -65.5t95 -90.5q8 -8 9 -35q0 -51 -25 -123.5t-55 -99.5 q-29 -25 -53.5 -43.5t-24.5 -26.5q0 -6 27.5 -33.5t52.5 -58.5q41 -41 68.5 -132t27.5 -163q0 -80 -15.5 -149.5t-35 -131t-25.5 -83.5q-43 -127 -135 -204t-213 -77q-104 0 -199.5 50t-154 133t-58.5 175zM289 473q0 -68 10 -149q6 -49 30.5 -96.5t57.5 -67.5 q20 -10 39 -10q37 0 66.5 30.5t50.5 73.5q57 121 92 208t53 177q4 53 -13.5 131t-41 141.5t-29.5 65.5q-98 -63 -150.5 -104.5t-91.5 -100.5q-74 -113 -73 -299zM330 1114q0 -31 12 -48t37 -17q18 0 37 8q168 70 260 254q8 16 8 37q0 25 -18.5 41t-49.5 16q-79 0 -144.5 -39 t-103.5 -105.5t-38 -146.5z" />
<glyph unicode="9" horiz-adv-x="1003" d="M55 1018q0 80 56 164q100 152 222 237.5t281 85.5q84 0 155 -30.5t118 -94.5q6 -10 10 -28.5t4 -34.5q0 -20 -6 -27q-35 -25 -80 -24q-18 0 -24 4q-29 8 -61 34.5t-46 38.5q-90 6 -187.5 -42t-168 -129.5t-88.5 -172.5q-2 -8 -2 -26q0 -23 6 -46.5t18 -35.5 q16 -12 51 -12q27 0 56 8q156 49 299 215q20 29 71 28q53 0 101 -30q35 -20 34 -53q0 -14 -12 -54q-100 -350 -100 -643q0 -193 41 -379q4 -23 4 -28q0 -23 -12.5 -32t-40.5 -9q-47 0 -81 21.5t-46 62.5q-27 102 -41.5 161.5t-16.5 122.5v70q0 131 17 381q2 33 -3 46t-22 13 q-14 0 -33 -6q-20 -6 -72.5 -24.5t-95.5 -18.5q-86 0 -177 65.5t-117 149.5q-10 29 -11 72z" />
<glyph unicode=":" horiz-adv-x="565" d="M150 287q0 16 3 34.5t3 34.5l34 23l70 -45q103 -68 156 -101q27 -18 39 -43.5t12 -52.5q0 -37 -25 -55q-33 -27 -67 -27q-43 0 -76 33q-90 90 -141 168q-8 12 -8 31zM201 739q0 23 4 31q4 16 24.5 31.5t28.5 21.5q41 -4 91 -44t86 -91t36 -88q0 -43 -22.5 -67.5 t-59.5 -26.5q-27 -2 -47 8q-51 25 -96 95.5t-45 129.5z" />
<glyph unicode=";" horiz-adv-x="665" d="M252 -500q0 29 4 49q39 199 49 428l-4 27q-4 113 8 199q4 27 19.5 46t31.5 23q29 6 56 -18q49 -45 59 -96q8 -43 -2 -115q-8 -123 -12 -182q-6 -102 -39 -205q-20 -70 -60 -120t-110 -83v47zM276 559l48 10q14 4 33.5 6.5t43.5 10.5q35 12 60.5 -2.5t32.5 -40.5 q12 -82 -11 -164q-4 -20 -37 -27q-29 -6 -62.5 1t-51.5 26q-35 34 -49 108q-8 41 -7 72z" />
<glyph unicode="&#x3c;" horiz-adv-x="1380" d="M135 551q0 23 23 49l424 473l77 86q131 139 156 168q94 111 197 111q57 0 125 -31q25 -10 37 -32.5t12 -49.5q0 -47 -33 -78l-51 -39q-72 -53 -105 -84q-160 -150 -348 -344q-49 -53 -143 -170l-33 -39q186 -63 307 -95t248 -32q68 -2 195 -30q14 -2 30.5 -14.5 t24.5 -18.5q-6 -39 -28.5 -51.5t-61.5 -16.5q-66 -8 -133 -8q-178 0 -357 51q-117 29 -191.5 44.5t-152.5 11.5q-43 -2 -77.5 15t-67.5 41t-49 38q-25 14 -25 45z" />
<glyph unicode="=" d="M102 672q49 41 96.5 55t129.5 14q207 0 628 25q62 4 102 -39t46 -121l-352 -24q-147 -12 -385 -33q-12 -2 -37 -2q-98 0 -172 57q-14 10 -30.5 34t-25.5 34zM244 362q0 18 14 39q4 0 15.5 2.5t19.5 -0.5q88 -23 196 -20q98 4 246 18l43 2q23 2 51.5 8.5t42.5 8.5 q66 16 113 16q90 0 174 -63q37 -27 37 -58q0 -39 -53 -59q-55 -23 -99 -27l-47 -4q-225 -16 -368 -20q-102 2 -185.5 23.5t-154.5 70.5q-45 32 -45 63z" />
<glyph unicode="&#x3e;" horiz-adv-x="1132" d="M102 512q0 39 48 72q92 61 217 135q55 31 174 69q127 45 176 72q-20 18 -113 88q-39 27 -77 56.5t-58 52.5q-63 72 -178 227q-31 39 -31 64q0 20 21 34q25 18 49 19q37 0 69 -37q20 -16 88 -68q70 -51 117 -100q57 -39 125 -98l100 -82q17 -12 78.5 -58.5t92 -83 t30.5 -65.5q0 -57 -112 -107q-8 -4 -167 -66.5t-227 -100.5l-51 -29q-33 -18 -68.5 -39t-74.5 -41q-27 -16 -72 -16q-41 0 -80 16t-59 43q-16 23 -17 43z" />
<glyph unicode="?" horiz-adv-x="1069" d="M131 614q0 20 21 48q143 172 213 258l92 108l174 213q47 61 82 152q10 31 10 57q0 51 -37 74q-20 12 -55 12q-31 0 -58 -10q-51 -18 -122 -82q-43 -41 -109 -41q-39 0 -72.5 17.5t-54.5 49.5q-12 23 -12 41q0 33 28 62q137 141 342 149q252 -29 369 -241q23 -39 23 -88 q0 -41 -15 -78q-63 -170 -219 -338q-68 -74 -69 -76q-94 -106 -162 -172.5t-148 -118.5q-55 -37 -137 -57q-14 -4 -33.5 4t-34.5 23q-16 14 -16 34zM303 80q0 16 18.5 37.5t59.5 56.5l192 -133l-69 -104q-109 57 -129 69q-39 25 -55.5 41t-16.5 33z" />
<glyph unicode="@" horiz-adv-x="1476" d="M102 602q0 72 33 143q80 176 225 285q113 84 269 156q23 10 48 14t66 6l48 4q229 8 411 -188q35 -37 111 -143q61 -85 61 -220q0 -29 -4 -86l-2 -43q-2 -41 -39 -87t-89 -79.5t-99 -39.5q-57 -8 -86 -9q-102 0 -174 66q-4 4 -15 4q-25 0 -57 -18q-63 -35 -125 -35 q-53 0 -113 26q-61 27 -96 76t-35 107q0 55 33 112q39 66 85 110t114 64q39 12 73 13q86 0 160 -68q35 -35 35 -61q0 -18 -18 -41q-14 -18 -56 -19q-51 0 -71 25q-4 6 -15.5 19.5t-21.5 19.5q-25 12 -43 4q-33 -14 -73 -92t-40 -121q0 -55 35 -55q10 0 25 6q68 35 98 71 q43 57 106 58q33 0 64 -20.5t49 -57.5q6 -12 12 -25.5t15 -27.5q16 -31 41 -31q12 0 36 14q121 82 121 217q0 14 -4 47q-18 137 -79.5 237.5t-180.5 162.5q-70 37 -139 37q-90 0 -180 -60q-184 -121 -279 -272q-39 -63 -59.5 -118.5t-20.5 -110.5q0 -80 43 -158 q10 -16 38 -67.5t55.5 -91.5t58.5 -71q111 -104 280 -110q12 -2 29.5 -9.5t30.5 -11.5q-6 -6 -21.5 -24.5t-32.5 -28.5q-12 -6 -30 -6l-27 2q-373 49 -532 397q-51 113 -52 203z" />
<glyph unicode="A" horiz-adv-x="1474" d="M55 168q0 23 13 47l141 287q233 475 278 569q129 250 351 344q47 23 96 23q61 0 113.5 -32t80.5 -89q41 -84 60 -219q12 -88 24 -256l5 -107q0 -297 77 -530q10 -33 11 -84q0 -29 -5 -78q-2 -33 -24.5 -52.5t-56.5 -19.5q-4 0 -23 4q-51 12 -77.5 46t-26.5 83q0 16 2 25 v35q0 37 -4 67q-16 80 -52 213q-12 55 -51 56q-14 0 -33 -6q-63 -18 -111 -35t-85 -27l-99 -29q-84 -25 -155 -38q-76 -16 -111 -84q-33 -61 -94 -166q-39 -70 -102 -70q-31 0 -61 15.5t-50 39.5q-31 35 -31 68zM526 580q281 48 478 79q-4 197 -11.5 310.5t-29.5 228.5 q-109 -12 -164 -106q-96 -152 -185 -314q-14 -27 -53 -119z" />
<glyph unicode="B" horiz-adv-x="1290" d="M102 547q0 156 17 278q23 180 86 338q49 119 146.5 186.5t230.5 80.5q61 4 94 4q152 0 254 -66q53 -33 82.5 -86t29.5 -115q0 -51 -22 -102l-21 -41q-14 -33 -34 -72q-11 -20 -66 -112q51 -31 72 -39q109 -41 163 -124t54 -183q0 -98 -51 -195q-127 -236 -410 -377 q-70 -35 -137 -35q-98 0 -182 70q-33 27 -78 59q-4 -12 -9.5 -29.5t-11.5 -25.5q-25 -37 -61 -37q-33 0 -60 27q-73 67 -73 151q0 69 -2 117q-2 49 -4 82q-2 41 -4.5 102.5t-2.5 143.5zM293 702q0 -53 8 -155q4 -31 8 -101q2 -55 23 -227l8 -67q12 -4 41 -9q39 -4 59 -16 q18 -10 37 -33.5t29 -36.5q123 25 210 100.5t171 196.5q63 98 80 176q6 31 6 56q0 55 -30 83.5t-81 28.5q-31 0 -57 -8q-92 -27 -189 -117q-49 -43 -98 -43q-31 0 -63 19q-39 23 -66 49.5t-45 69.5l47 32q74 53 113 76q199 106 299 346q10 27 18 88l6 45q-61 27 -116 27 q-47 0 -88 -14q-88 -29 -146.5 -87.5t-92.5 -128t-67 -171.5q-24 -77 -24 -171v-8z" />
<glyph unicode="C" horiz-adv-x="1554" d="M162 676q0 80 16.5 155.5t46.5 165.5q31 84 117 168t192.5 138.5t192.5 54.5q88 0 172 -64.5t107 -146.5q4 -25 4 -33q0 -31 -17.5 -46t-46.5 -15q-23 0 -35 2q-6 0 -18 8q-59 33 -115 33q-104 0 -207 -109q-174 -182 -174 -434q0 -90 19 -174q20 -94 72.5 -138 t140.5 -44q31 0 67 6q129 16 237.5 78.5t240.5 167.5q31 25 108 102l41 43q27 27 46.5 38t35.5 11q27 0 65 -27q43 -31 43 -77q0 -33 -22 -62q-8 -14 -45 -66.5t-72 -93.5t-69 -69q-188 -166 -394 -223q-90 -25 -180 -25q-166 0 -294 84t-199.5 220t-73.5 284v41 q-2 14 -2 47z" />
<glyph unicode="D" horiz-adv-x="1492" d="M102 45l2 18l15 107q25 188 45 281l10 45q61 266 92 428.5t45 335.5l8 36q2 -2 -51 45q-37 33 -55 48q8 55 41 77.5t86 34.5q55 14 119 15q61 0 125 -13q182 -33 321 -76t260 -120q84 -51 142 -121q84 -109 84 -221q0 -96 -64 -199q-242 -383 -498 -604 q-156 -137 -344 -225q-70 -35 -145 -35q-90 0 -174 51q-31 20 -47.5 41.5t-16.5 50.5zM330 94q18 -8 20 -8l27 10q307 150 524 418q88 113 148.5 213t91.5 211q8 27 8 63q0 63 -32 114.5t-87 78.5q-205 92 -440 127q-6 1 -14 1q-22 0 -52 -5l-45 -6q49 -41 71.5 -72 t22.5 -65q0 -8 -4 -29q-27 -119 -71 -293l-74 -295q-49 -201 -86 -373q-6 -23 -7 -50.5t-1 -39.5z" />
<glyph unicode="E" horiz-adv-x="1601" d="M102 733l232 15l104 301q4 14 9.5 35.5t11.5 33.5q18 41 18 68q0 41 -39 71q-14 10 -23 38t-18 44l45 15q33 8 47 14q8 4 35 15.5t31 25.5q14 35 35.5 47t52.5 12q20 0 62 -4q12 0 25 -5t22 -13q47 -49 104 -65.5t135 -16.5h88h172q174 0 260 -4q45 -2 115 -39 q12 -6 19.5 -23.5t7.5 -33.5q0 -8 -14.5 -19.5t-26.5 -15.5q-139 -37 -211 -43q-111 -10 -332 -27q-51 -2 -164 -10q-8 0 -28.5 5t-30.5 5q-76 0 -96 -63q-55 -164 -105 -326l-2 -8q0 -8 2 -17.5t4 -17.5q16 -2 49 -2q143 0 295 61q43 16 72 17q57 0 94 -53q18 -29 19 -50 q0 -25 -27 -51q-82 -76 -174 -86q-82 -10 -246 -35l-143 -20q-33 -72 -33 -139q0 -98 68.5 -163t187.5 -69h24q115 0 285 17l31 2q51 0 85 -23.5t64 -83.5q-23 -49 -63.5 -66.5t-106.5 -25.5q-68 -8 -153 -8q-186 0 -336 59q-264 102 -338 354q-10 35 -10 75v48 q0 70 -68 103q-55 31 -84.5 59.5t-38.5 85.5z" />
<glyph unicode="F" d="M102 117q0 18 2 28q16 143 23 213q6 59 16.5 150.5t26.5 212.5q27 190 134.5 335.5t283.5 266.5q174 121 348 154q35 8 80 8q135 0 231 -103q39 -39 39 -67q0 -12 -10 -33q-27 -43 -74 -43q-16 0 -35 6q-10 4 -25.5 8t-23.5 9q-34 24 -77 24h-3q-19 6 -39 6 q-45 0 -98 -28q-76 -40 -207 -144q-70 -51 -121 -116l-49 -93q-59 -110 -76.5 -173.5t-29.5 -151.5q20 0 67 1t62 3l117 24q43 10 75.5 17.5t120.5 21.5q39 6 84 8.5t60 2.5q49 0 73 2q35 0 49 -13q59 -51 60 -88q0 -25 -18.5 -35t-57.5 -22l-190 -41l-398 -109 q-10 -2 -19 -7t-20 -7q-66 -14 -87 -23.5t-26 -32t-5 -87.5v-82q0 -55 -5 -84q-12 -102 -75 -103q-35 0 -80 27q-51 31 -77 69t-26 89z" />
<glyph unicode="G" horiz-adv-x="1433" d="M102 535q0 117 29 218t109 316q80 174 258 244.5t376 70.5q84 0 162 -12q113 -15 189 -117q-27 -39 -56.5 -56t-72.5 -19q-178 -2 -304 -14.5t-266.5 -82t-158.5 -223.5q-55 -113 -56 -264q0 -78 19 -199q25 -155 151 -155h2q33 0 52 4q109 18 217 82q61 39 122.5 89 t73.5 58l53 43q23 20 34.5 37.5t11.5 44.5q0 10 -5 31q-70 -6 -204 -15l-60 -4q-39 -4 -116 -8q-84 0 -132.5 40t-74.5 132q6 4 14 12.5t14 8.5l72 8q236 29 358 35q21 1 43 1q85 0 191 -18q184 -31 184 -170q0 -51 -20 -106q-10 -31 -33 -72q-47 -100 -129 -174t-199 -141 q-92 -55 -161.5 -86t-147.5 -37q-18 -2 -57 -2q-178 0 -324 121q-72 61 -109.5 131.5t-44.5 161.5q-4 61 -4 86z" />
<glyph unicode="H" horiz-adv-x="1515" d="M145 768q0 57 91 106q8 4 23 14.5t28 12.5q43 10 62.5 39t33.5 80q39 135 86 291l23 73q4 14 22 54h7q85 0 121 -50q38 -52 38 -133q0 -12 -4 -36l-19 -82l-12 -45l-20 -109l108 -8l260 -23l70 215l16 70q39 51 72 51q17 0 33 -14q43 -39 74.5 -87t31.5 -110 q0 -59 -35 -151q16 -10 39 -17.5t31 -9.5q63 -18 98 -43t43 -88q-26 -39 -66 -51q-27 -8 -60 -8q-17 0 -35 2q-20 2 -54 2q-45 0 -59 -18.5t-35 -86.5l-24 -80q-49 -160 -71 -256t-30 -200q0 -8 -1 -34t-13 -41t-39 -15h-10q-59 0 -72 71q-49 109 -49 209q0 43 4 66 q23 131 59 334l13 88q-49 -5 -72 -5q-152 -10 -234 -22q-45 -8 -110 -111q-55 -86 -76 -272l-22 -74q-10 -37 -31 -63q-12 -14 -31.5 -23.5t-40.5 -9.5q10 0 -8 23q-41 55 -60.5 88.5t-19.5 76.5q0 18 6 43q10 31 13 62q4 12 8 35.5t10 40.5q6 18 6 34q0 45 -47 86 q-70 59 -70 109z" />
<glyph unicode="I" horiz-adv-x="1411" d="M102 119q12 45 41 66.5t57.5 33.5t39.5 17q111 47 231 81q51 16 64 66q37 125 57 247t49 328l8 64q2 6 2 18q0 43 -43 60q-14 6 -32.5 21.5t-28.5 23.5l-49 -25q-59 -27 -136 -65q-27 -14 -55 -15q-31 0 -64.5 15.5t-39.5 17.5q-18 8 -29.5 24.5t-11.5 35.5q0 25 16 47 q23 33 70 67q184 137 389 137q94 0 186 -26q86 -27 150.5 -44.5t107.5 -29.5l129 -37q4 0 17.5 -2t19.5 -8q12 -10 25.5 -27.5t21.5 -27.5q-10 -8 -27.5 -24.5t-31.5 -16.5q-16 -2 -51 -2q-27 0 -80 4l-45 2l-146 16l-10 -74q-27 -193 -47 -305q-16 -98 -53 -264l-25 -121 q139 18 189 25q111 12 166 12q68 0 112.5 -18.5t63.5 -75.5q-20 -27 -46 -39t-51.5 -18.5t-31.5 -8.5l-39 -12q-123 -37 -168 -43q-96 -14 -187.5 -40.5t-226.5 -72.5q-88 -33 -188 -61q-43 -12 -80 -12q-98 0 -189 86z" />
<glyph unicode="J" horiz-adv-x="1196" d="M68 178q39 49 94 49q27 0 58.5 -10t41.5 -14q59 -20 125 -21q104 0 195.5 49.5t136.5 133.5q117 217 117 507q0 133 -25 312q-57 -2 -101 -20.5t-114 -59.5q-47 -27 -100 -27q-33 0 -60 8q-23 6 -46 21.5t-32 34.5q-6 12 -6 26q0 20 14.5 39t34.5 29q154 74 291 125 q33 10 80 14q43 4 64 10q61 14 102 15q84 0 152 -60v-116q2 -57 2 -174v-72l-2 -57q-4 -182 -18.5 -308.5t-61.5 -246.5q-53 -133 -142.5 -215t-226.5 -109q-106 -23 -201 -23q-131 0 -245 52q-80 36 -127 108z" />
<glyph unicode="K" horiz-adv-x="1400" d="M102 371q0 96 15.5 193.5t46.5 242.5q41 207 94 381q25 76 68 159t51 99q14 27 29.5 39t35.5 12q31 0 95 -31q31 -14 42 -26.5t11 -30.5t-12 -53l-70 -199q-14 -45 -47 -135q-8 -25 -27 -100q4 -4 8 -6.5t9 -4.5q76 57 161 119l449 318q23 16 67 16q37 0 71 -13.5 t48 -35.5q12 -18 13 -37q0 -27 -33 -59l-226 -191l-57 -47q-98 -78 -145 -121q-29 -25 -42.5 -42t-13.5 -36q0 -25 35 -82l37 -57q135 -217 232.5 -356.5t216.5 -263.5l34 -39q-35 -29 -61 -29q-25 0 -47 18q-141 104 -252 214t-190 241q-41 66 -103 147q-4 8 -53 78 l-60 -49q-113 -90 -170 -145q-18 -16 -28 -46t-12 -59q-2 -33 -3 -100l3 -203q0 -47 -9.5 -78.5t-42.5 -52.5q-74 27 -101.5 45.5t-36.5 49t-11 102.5l-8 104q-10 86 -11 150z" />
<glyph unicode="L" horiz-adv-x="1003" d="M102 233q0 23 2 33q33 203 74 344q43 156 156 529q25 88 78 264q14 47 40 65q21 15 57 16q8 0 17 -1q10 0 19.5 -2t19.5 -2q127 -10 127 -123q0 -29 -8 -60q-16 -66 -61 -176q-166 -422 -256 -813q-12 -49 -13 -102q0 -100 88 -101q18 0 29 2q55 11 229 48l158 32 q27 -27 45.5 -47t18.5 -35q0 -16 -16.5 -32.5t-65.5 -53.5q-6 -4 -13.5 -14t-15.5 -12l-55 -15q-70 -20 -124 -31.5t-110 -11.5q-197 0 -321 117q-47 43 -73 87t-26 95z" />
<glyph unicode="M" horiz-adv-x="1914" d="M14 315q0 33 13 66q86 254 256 481l63 84q129 170 195 266q49 72 131 72q14 0 47 -4q22 -4 100 -156.5t191 -394.5l65 -137q43 47 80 109.5t92 168.5q63 121 88 156q98 150 213 317q14 23 51 31q6 2 21 2q49 0 109.5 -41t78.5 -84q4 -8 4 -30q0 -20 -2 -31q-4 -18 -9 -46 t-9 -65q-66 -500 -94 -749q-8 -57 -8 -129l-4 -66q-2 -20 -2.5 -47t-6.5 -37t-22 -10q-12 0 -37 6q-66 14 -100.5 52t-38.5 106q-2 35 -2 108q0 76 4 232l2 112l4 162q-18 -16 -93 -127.5t-146.5 -232.5t-94.5 -187q-20 -51 -39.5 -75.5t-46.5 -24.5q-25 0 -63 23 q-111 68 -136 186q-39 182 -96 379q-10 37 -40 100.5t-38 79.5l-26 53q-299 -397 -406 -729q-20 -70 -38.5 -99.5t-43.5 -29.5q-39 0 -110 70q-55 49 -56 110z" />
<glyph unicode="N" horiz-adv-x="1464" d="M166 78q0 37 10 65q18 49 25 156q4 66 10 98q27 188 82 521q2 16 9 43.5t5 48.5q-2 16 -2 31q-1 55 23 103q30 60 86 118l125 10q29 4 34 4q31 0 78 -76q4 -12 8.5 -29.5t12.5 -27.5l237 -330q53 -68 105 -141l35 112q66 215 120 349.5t142 255.5l98 -15q30 -24 30 -59 q0 -11 -3 -23q-18 -74 -39 -110q-49 -125 -82 -253t-74 -323q-6 -27 -16 -80q-16 -82 -63.5 -121.5t-129.5 -44.5h-9q-77 0 -132 68q-61 74 -154 199l-41 55q-55 74 -168 217l-18 -88q-31 -147 -37 -231l-12 -248q-2 -41 -4 -103.5t-8 -146.5q-2 -61 -42 -106.5t-100 -61.5 q-8 -2 -17 -2q-26 0 -58 18q-44 24 -52 54q-14 53 -14 94z" />
<glyph unicode="O" horiz-adv-x="1492" d="M102 545q0 125 70 250q4 10 17.5 20t21.5 16l47 -22l45 -23q63 -35 83 -57t20 -63q0 -29 -7 -78q-2 -18 -2 -53q0 -76 19 -183q4 -31 25.5 -47t54.5 -16q16 0 26 2q96 18 165 42.5t124 74.5q102 88 178 169.5t133 176.5q39 66 39 127q0 51 -22.5 100t-65.5 111 q-72 98 -186 98q-41 0 -84 -12q-14 -4 -131 -43l-25.5 -8.5t-28.5 -8.5l-233 -67q-45 -14 -139 -39l-21 18q80 134 248 234q131 79 305 79h4q125 0 242 -41.5t193 -117.5q27 -27 57 -51q47 -41 55 -52q102 -109 103 -239q0 -102 -66 -209q-86 -141 -178 -247.5t-207 -182.5 q-195 -129 -373 -129q-53 0 -106 12q-178 39 -289 167t-111 292z" />
<glyph unicode="P" horiz-adv-x="1218" d="M102 84l4 82q12 242 31 362q12 88 36 194.5t32 139.5q29 119 41 180l-107 19q-24 51 -24 89q0 69 61 136q43 49 102.5 80t122.5 41q92 10 164 10q281 0 570 -119q35 -14 69.5 -43.5t44.5 -37.5q80 -68 80 -142q0 -49 -31 -108q-16 -35 -55 -80q-190 -209 -493 -328 q-39 -14 -64 -14q-45 0 -85 30.5t-66 83.5l57 37q98 66 145 101q158 123 275 229q23 18 53 76l29 49l-37 18q-6 2 -27.5 11.5t-36.5 11.5q-178 18 -399 33h-9q-62 0 -81 -76l-172 -797q-14 -61 -22.5 -107t-14.5 -77l-19 -92q-8 -33 -26.5 -52.5t-52.5 -21.5l-27 -2 q-38 0 -54 18q-14 16 -14 56v10z" />
<glyph unicode="Q" horiz-adv-x="1386" d="M102 10q27 41 69 65.5t99 43.5q51 16 138 31q8 2 84 16q-76 45 -103 59q-248 137 -248 449l2 59q2 18 2 58q0 49 -10 83q-8 25 -8 58q0 51 23.5 100t66.5 107q63 88 132 144t159 75q35 10 63 10q18 0 33 -6q98 -35 172 -81t127 -116q74 -96 114 -189t40 -200v-6 q0 -134 -86 -272q-94 -162 -242 -236q-18 -8 -55 -41l-37 -31l86 -6q74 -4 98 -4q119 0 236 -24.5t268 -71.5q14 -4 29.5 -21.5t15.5 -29.5q-2 -16 -17.5 -33.5t-29.5 -19.5q-51 -10 -94 -11q-18 0 -47 4q-88 18 -178 19q-76 0 -144.5 -9.5t-200.5 -29.5q-63 -12 -174 -39 q-82 -20 -125 -29q-33 -6 -65 -6q-63 0 -108.5 31t-84.5 100zM330 700l4 -59q0 -66 8 -117q8 -55 36 -85.5t66 -30.5q43 0 95 38q145 109 219 273q43 90 43 176q0 100 -58 203q-47 82 -112 82q-45 0 -88 -35q-104 -84 -159 -173q-51 -80 -51 -183q0 -12 1 -23v-66h-4z" />
<glyph unicode="R" horiz-adv-x="1411" d="M90 55q0 156 16 277q57 371 265 770q117 223 358 344q78 39 158 39q82 0 152.5 -42t117.5 -122q43 -72 43 -139q0 -94 -74 -191q-88 -115 -249 -325l-134 -172q2 0 5.5 -5.5t7.5 -9.5l45 -24q170 -92 250 -146q78 -47 166 -47q27 0 40 2q6 -10 16.5 -30.5t16.5 -36.5 q6 -21 6 -39q0 -33 -19.5 -52.5t-51.5 -19.5q-12 0 -21 2q-92 20 -145 45q-41 18 -152 92q-84 55 -139 86q-72 39 -154 54q-37 6 -174 20q-61 4 -90 8l-37 -303l2 -33q0 -74 -17 -98.5t-71 -24.5q-55 0 -96 35t-41 86zM406 526q7 -1 14 -1q30 -1 50 15q24 18 62 62 q84 94 169 196.5t151 192.5q27 37 45 79t33.5 85t21.5 62q2 6 2 20q0 16 -4 41t-6 35q-150 -45 -272.5 -184.5t-193 -309.5t-72.5 -293z" />
<glyph unicode="S" horiz-adv-x="1091" d="M102 135q0 68 58 137q29 -4 34 -17t2 -29.5t-3 -26.5q0 -6 4 -19q80 -37 190 -37q123 0 232.5 42t134.5 104q2 6 2 13q0 44 -72 132q-84 104 -188 201q-98 88 -179 174q-45 49 -70.5 113.5t-25.5 134.5q0 94 48 178t145 137q184 104 377 105q27 0 75 -4q45 -4 66 -15 q51 -20 51 -57t-51 -94q-23 2 -66 2q-94 0 -180 -26t-178 -79q-43 -27 -74 -67q-23 -25 -22 -58q0 -55 61 -106q59 -61 195 -223l47 -50q100 -109 158.5 -184.5t99.5 -173.5q16 -43 16 -78q0 -88 -67 -162q-78 -86 -180.5 -125.5t-231.5 -50.5q-16 -2 -38.5 -4t-51.5 -2 q-18 0 -55 4h-9q-42 0 -86 16q-50 18 -90 50q-78 66 -78 145z" />
<glyph unicode="T" horiz-adv-x="1558" d="M72 1163q12 45 46 67.5t93 45.5q280 102 637 102h14q174 0 363.5 -14t222.5 -16l143 -11h27.5t32 -9t12.5 -30q0 -51 -74 -59q-184 -20 -262 -29q-80 -4 -121 -8q-160 -10 -239 -16q-49 -4 -67.5 -11.5t-24 -24.5t-9.5 -73q-10 -129 -43 -444q-33 -285 -41 -393 q-2 -59 -26 -144q-16 -53 -26 -70q-10 -18 -30 -22q-13 -3 -41 -3q-14 0 -32 1q-39 0 -60.5 17.5t-21.5 48.5q0 6 4 26q45 178 76 613q6 84 12 154.5t12 127.5l17 164q-160 -25 -340 -94q-43 -16 -80 -17q-55 0 -101.5 31t-72.5 90z" />
<glyph unicode="U" horiz-adv-x="1542" d="M123 584q0 72 12 147q16 98 41 193.5t68 246.5q14 43 39 129q10 41 30 48q8 4 15 4q23 0 53 -19q68 -39 97.5 -75.5t29.5 -83.5q0 -55 -43 -146q-127 -270 -127 -498q0 -59 4 -88q4 -47 47 -83.5t94 -36.5q55 0 97 40q213 213 350 432.5t215 481.5q8 31 18 59l4 4 q121 -12 191 -93q62 -73 62 -175q0 -12 -1 -24q-55 -328 -76 -474q-7 -51 -32 -266q-14 -123 -17 -127l-180 29l37 442l-23 -16q-18 -16 -49.5 -50t-56.5 -61q-80 -111 -117 -149q-90 -94 -164.5 -156.5t-177.5 -114.5q-41 -20 -100 -20q-51 0 -98.5 18.5t-79.5 55.5 q-162 176 -162 426z" />
<glyph unicode="V" horiz-adv-x="1310" d="M61 1006v41q0 14 1 35.5t-1 47.5h20q101 0 151 -38q54 -42 77 -150q53 -250 127 -514q18 -63 47 -111.5t80 -83.5l27 35q29 39 35 51q31 59 82 183l118 256q121 258 234 432q86 154 219 205q43 16 84 18h8q41 0 80 -18q27 -12 42 -34t15 -48q0 -35 -28 -64 q-33 -33 -54 -43q-55 -27 -93 -68.5t-66.5 -84.5t-38.5 -58q-80 -113 -134.5 -234.5t-127.5 -309.5l-37 -95q-37 -94 -72 -163.5t-80 -133.5q-41 -49 -92 -53q-23 -2 -53 10q-268 106 -371 342q-35 80 -61.5 175.5t-32.5 113.5q-25 86 -33 113q-2 8 -4 23.5t-8 21.5 q-35 43 -47.5 91t-12.5 110z" />
<glyph unicode="W" horiz-adv-x="1777" d="M102 1243q0 23 15.5 41.5t52.5 44.5q143 -41 178 -192q16 -66 45 -197l43 -197l23 -67l26 -78l113 225q49 106 98 182t131 173q25 29 56.5 44t64.5 15q45 0 85 -26.5t61 -75.5q6 -16 20 -45q25 -55 35 -91t12 -92q2 -82 17 -211l10 -118q43 37 67.5 74.5t38.5 82.5 q29 76 64 187l61 184q33 94 83 151.5t136 73.5q16 4 37 4q16 0 22.5 -6t12.5 -21.5t16 -33.5q23 -39 23 -70q0 -43 -45 -88q-68 -66 -103.5 -143.5t-80.5 -208.5q-18 -55 -60 -195q-55 -201 -92 -290q-23 -55 -40 -77t-42 -22q-27 0 -90 35q-104 57 -165.5 185t-74.5 268 l-2 45q-8 111 -16 192q-43 -49 -77 -110.5t-79 -151.5q-37 -78 -47 -96q-35 -59 -92 -213q-55 -143 -76 -180q-33 -6 -61 -7q-61 0 -98 37t-62 119q-47 154 -93 334t-69 321q-6 41 -22.5 88.5t-20.5 59.5l-20 59q-18 53 -19 78z" />
<glyph unicode="X" horiz-adv-x="1355" d="M23 180l391 338q-61 125 -168 350q-33 72 -33 148q0 53 23 143q78 -6 141 -64.5t88 -146.5l16 -61q16 -70 27 -103q8 -18 31 -57l26 -49l64 67q170 184 271 306.5t183 261.5q11 1 21 1q38 0 70 -18q40 -22 90 -67q39 -37 39 -96q0 -31 -12.5 -63t-35.5 -56l-477 -525 q-4 -6 -8 -16t-12 -24l59 -37q94 -59 119 -74l252 -145q33 -20 43 -46q6 -12 6 -22q0 -23 -22.5 -34t-57.5 -7q-121 16 -233.5 67.5t-227.5 131.5q-29 18 -49 30.5t-37 12.5q-12 0 -32.5 -12.5t-47.5 -30.5q-193 -139 -417 -207q-13 -4 -29 -4h-25z" />
<glyph unicode="Y" horiz-adv-x="1249" d="M102 1165q0 27 7.5 70t19.5 96l39 2q14 0 25 -6l34 -27q61 -51 92 -85.5t43 -96.5q27 -125 63 -221t103 -174q49 -57 87 -85q35 -26 94 -26h8q31 61 45 95l55 135q152 369 191 456q16 39 59 99q10 12 27 37q68 -27 103.5 -79t35.5 -120q0 -45 -14 -86q-35 -100 -115 -266 q-14 -31 -27.5 -55.5t-23.5 -45.5q-45 -86 -54 -102l-55 -123q-63 -152 -117 -240l-28 -45q-102 -168 -179 -275.5t-184 -203.5q-4 14 -13 33.5t-7 28.5q66 166 200 497q10 27 39 115q-371 156 -497 502q-33 86 -44.5 122.5t-11.5 73.5z" />
<glyph unicode="Z" horiz-adv-x="1650" d="M102 1403l129 18q219 29 345 42.5t260 13.5q82 0 163 -7q90 -8 163 -31.5t134 -72.5q33 -25 48.5 -44t15.5 -40q0 -33 -47 -80q-223 -223 -475 -540q-47 -57 -99.5 -132t-99.5 -147l-70 -100q-10 -16 -37 -72l-20 -41l1114 68q2 -8 2 -25q0 -66 -69 -84 q-201 -45 -304 -59q-66 -8 -200 -21q-129 -12 -201 -22q-98 -14 -307 -60l-68 -14q-66 -12 -96 -12q-53 0 -96 20q-88 39 -88 107q0 41 34 92q324 455 482 684q96 141 223 338l70 108q-66 18 -152 19q-74 0 -153.5 -12.5t-94.5 -14.5q-125 -18 -248 -31l-24 -2 q-61 0 -114.5 28t-110.5 79q-6 4 -7.5 21.5t-1.5 25.5z" />
<glyph unicode="[" horiz-adv-x="942" d="M182 2q8 113 13 174q33 506 55 893v25v24q-6 35 -6 64q0 154 143 200q82 27 166 52.5t219 38.5q23 2 64 -31l28 -17q-12 -10 -31.5 -34.5t-39.5 -28.5q-31 -10 -72 -19.5t-59 -13.5q-86 -20 -130 -31q-92 -31 -92 -112q0 -16 4 -41q6 -31 7 -68q0 -31 -2 -90 q-8 -215 -29 -647q-4 -88 -21 -256v-18q0 -63 62 -64q16 0 26 2q8 2 26.5 5t29.5 9q41 25 82 27q39 0 108 -27l35 -12q14 -6 27.5 -20.5t15.5 -28.5q2 -10 -9 -24.5t-24 -22.5q-25 -16 -65 -23q-219 -33 -324 -45q-41 -4 -74 -6q-78 0 -105.5 37t-27.5 129z" />
<glyph unicode="\" horiz-adv-x="837" d="M102 1331q0 45 38 94.5t81 53.5q63 8 90 -66q45 -137 101 -311l28 -92q31 -111 58 -185q41 -121 119.5 -331.5t107.5 -284.5q10 -31 10 -105q0 -70 -14 -122t-45 -52q-8 0 -25 9q-59 30 -151 197t-173 354.5t-91 232.5l-132 590q-2 6 -2 18z" />
<glyph unicode="]" horiz-adv-x="942" d="M176 -72q10 4 27.5 17.5t29.5 15.5q43 8 82 14q88 16 99 21q43 10 74.5 38.5t31.5 67.5q0 375 17 625q6 102 28 317l15 136q4 39 -15.5 60.5t-58.5 21.5q-25 0 -43 -7q-27 -6 -64 -6q-29 0 -63 6q-16 2 -34.5 14.5t-22.5 24.5q-4 16 5 35t21 31q41 39 100.5 59.5 t129.5 20.5q96 0 178 -41q8 -5 51 -25l41 -20l-14 -103q-23 -162 -33 -258q-18 -432 -31 -911q-2 -74 -9 -104.5t-33 -47t-91 -36.5q-143 -45 -262 -56q-23 -2 -44.5 6.5t-43 17.5t-31.5 13q-12 8 -21.5 25.5t-15.5 27.5z" />
<glyph unicode="^" horiz-adv-x="987" d="M154 1102q2 6 8 28q23 51 61.5 99.5t46.5 60.5q78 96 103 148q27 55 108 37q20 -4 95 -78t145 -156t78 -104q6 -12 15 -29.5t13 -28.5q-2 -8 8.5 -33.5t2.5 -39.5q-8 -12 -42 -16.5t-55 -0.5q-39 8 -64.5 26.5t-68.5 80.5q-23 23 -94 108l-37 45q-8 -6 -26.5 -19 t-24.5 -22l-37 -37q-55 -55 -76 -84q-14 -18 -35.5 -36.5t-44.5 -18.5q-12 0 -24 2q-29 4 -46.5 22.5t-8.5 45.5z" />
<glyph unicode="_" horiz-adv-x="1333" d="M102 -78q0 10 4 27q8 29 37 48t70 21q27 0 48.5 -2t35.5 -4q55 -4 182 -16q39 -2 99.5 -8t142.5 -11q35 -2 100 -2h162h80q55 -2 113 -26q20 -8 36.5 -33t16.5 -47q0 -12 -4 -19q-16 -33 -72 -61q-12 -8 -33.5 -9t-34.5 -3l-493 12q-53 2 -158 2l-129 -2q-76 0 -133 35 q-33 16 -51.5 43t-18.5 55z" />
<glyph unicode="`" horiz-adv-x="851" d="M101 1612q-5 -8 28 16q12 8 49 -5t58 -34q246 -215 385 -354q14 -14 23 -33.5t22 -56.5l22 -58l-24 -43q-14 -23 1 -3t-1 10q-37 -23 -80 -25q-57 0 -103 47l-67 74q-190 209 -256 289q-27 33 -42.5 74.5t-13.5 76.5q4 33 -1 25z" />
<glyph unicode="a" horiz-adv-x="991" d="M90 256q2 98 82 197q78 94 142.5 133t177.5 49q25 0 70.5 8t45.5 23q0 29 -25.5 52t-103.5 23q-29 0 -86 -4t-80 -4q-70 0 -100 23q-8 4 -8 39q0 61 43 77q88 33 182 35q119 0 220.5 -52t148.5 -130t61 -215q16 -154 17 -391q0 -66 -19 -76q-16 -10 -31 -10 q-18 0 -33.5 11t-33.5 32q-18 23 -33 28q-19 9 -37 9t-31.5 -9.5t-29.5 -27.5q-25 -25 -51 -41q-25 -14 -91 -27q-29 -4 -47 -4q-86 0 -179 38t-132 91q-39 54 -39 117v6zM311 209q4 -55 31 -74q14 -10 35 -10q16 0 26 4q97 29 189 92q20 14 36.5 37t20.5 29t7 35.5t1 48.5 q-2 6 -7 32.5t-15 47.5q-10 16 -32.5 30.5t-41.5 12.5q-39 -2 -84 -29t-84 -72q-39 -47 -60.5 -95t-21.5 -89z" />
<glyph unicode="b" horiz-adv-x="1001" d="M102 1251q0 51 30 70.5t87 32.5q25 6 55.5 -10.5t53 -43t22.5 -53.5q0 -121 -18 -301l-6 -82q-1 -38 -11 -106q-8 -78 -10 -125q25 10 57 47q18 20 37 35q90 63 172 63q86 0 183 -71q145 -106 145 -250q0 -113 -94 -238q-135 -182 -381 -219q-12 -2 -37 -2q-39 0 -129 16 q0 20 -6 45q14 6 37.5 17.5t42.5 13.5q63 6 142 66.5t138.5 140.5t67.5 139q2 8 4 22.5t2 35.5q0 20 -6 34q-33 76 -76 101q-12 6 -43 -13.5t-49 -42.5q-135 -147 -160 -337q-8 -72 -80 -72h-4q-61 0 -112.5 50t-51.5 112q-2 309 -2 925z" />
<glyph unicode="c" horiz-adv-x="901" d="M49 444q0 70 20.5 133.5t57.5 104.5l39 47q29 37 45 51q72 70 190 70q61 0 121 -20.5t105 -55.5q8 -6 16 -25.5t8 -31.5q0 -16 -24.5 -35.5t-44.5 -17.5q-22 3 -44 3q-110 0 -180 -70q-84 -83 -84 -226q0 -94 40 -133t132 -39q57 0 108.5 23.5t119.5 66.5l39 24 q20 10 54 13.5t52 5.5q-2 -18 -1 -35.5t1 -28.5q0 -45 -14 -59q-62 -70 -125.5 -110t-140.5 -40q-16 0 -45 4l-41 -2h-4q-255 0 -373 246q-27 57 -27 137z" />
<glyph unicode="d" horiz-adv-x="1034" d="M102 342q0 90 25 182t70 152q49 68 116.5 107.5t149.5 39.5q27 0 41 -2q6 -2 18 -2q47 0 47 45l-2 17q-29 236 -51 346q-2 10 -6 32.5t-4 36.5q0 29 12 50.5t43 35.5q12 6 29 7q43 0 90 -28t55 -63q31 -127 58 -329l36 -312q33 -279 52 -417q3 -35 30 -90 q4 -10 9.5 -22.5t11.5 -29.5q-70 -39 -111 -39q-31 0 -57.5 19.5t-58.5 62.5q-25 29 -41 29t-35 -27q-41 -61 -101.5 -92t-128.5 -31q-76 0 -146.5 36t-109.5 98q-41 63 -41 188zM299 311q0 -117 82 -172q33 18 52.5 42t45.5 69l23 39q47 68 62.5 151.5t19.5 212.5 q2 18 -7.5 42t-19.5 26q-16 4 -55 -9.5t-49 -27.5q-47 -55 -75 -96t-44 -92q-35 -101 -35 -185z" />
<glyph unicode="e" horiz-adv-x="958" d="M57 537q0 96 54.5 155.5t175.5 112.5q111 47 205 47q68 0 131 -21q196 -61 196 -166q0 -69 -80 -165q-39 -45 -92 -80t-103 -62.5t-69 -38.5q-20 -12 -59 -12q-14 0 -35 2t-35 0q16 -68 77.5 -109.5t137.5 -41.5q66 0 117 28q76 39 131 93q38 38 72 38h2q23 0 39 -22 q16 -27 16 -66q0 -41 -16 -63q-53 -82 -138.5 -112.5t-197.5 -30.5q-117 0 -225.5 51t-185.5 140t-101 198q-16 63 -17 125zM285 496l2 -17q2 -8 21.5 -20.5t23.5 -7.5q145 109 219 174q12 12 12 45q0 20 -2 28q-2 11 -15.5 18t-15.5 9h-11q-49 0 -101 -32 q-58 -36 -95.5 -91t-37.5 -106z" />
<glyph unicode="f" horiz-adv-x="757" d="M37 399q0 10 13 23.5t26 15.5q74 10 99.5 41t27.5 96l4 132q2 86 6 176t14 159q8 59 51.5 87t118.5 28q33 0 52 -2q43 -4 98 -40t59 -77q3 -19 3 -34q0 -85 -89 -93q-22 4 -38 4q-36 0 -44 -21q-12 -30 -16 -75q0 -27 -4 -76q-6 -49 -6 -100q0 -74 7 -96.5t36 -22.5 q27 0 84 13h47q117 0 143 -52q10 -4 20.5 -21.5t14.5 -23.5q-8 -6 -24.5 -19t-30.5 -15q-47 -10 -142 -27q-18 -2 -65 -10q-74 -14 -74 -86q0 -10 4 -39q25 -111 41 -194t27 -138l37 -180q20 -98 20 -152q0 -39 -18.5 -58.5t-71.5 -19.5q-45 0 -67.5 22.5t-32.5 72.5 q-18 94 -64 282l-65 340q-4 119 -117 119q-37 0 -51 12q-12 10 -22.5 23.5t-10.5 25.5z" />
<glyph unicode="g" horiz-adv-x="983" d="M78 438q37 225 219 320q41 22 86 22h4q35 0 72 -10t43 -12l43 -13q31 -8 59 -8q39 0 71 14.5t64 45.5q47 39 101 39q39 0 69.5 -21.5t44.5 -62.5q4 -16 4 -27q0 -18 -6 -29q-6 -8 -34 -53q-14 -27 -26.5 -45t-39.5 -41q-18 -10 -38.5 -15t-32 -9.5t-11.5 -16.5 q-6 -147 -20.5 -223t-56.5 -144.5t-136 -158.5l72 -39q66 -37 96 -51q92 -43 139 -109.5t47 -146.5q0 -98 -65 -195q-70 -102 -174.5 -152.5t-222.5 -52.5h-11q-83 0 -170 29q-43 14 -86 62.5t-68 107.5q-24 55 -24 97v7q2 10 8 21.5t15 13.5q2 2 8 2t17.5 -5t15.5 -7 q10 -4 14 -18q29 -63 64 -100q31 -34 81 -34h11q211 14 288 117q27 33 44.5 75t17.5 79q0 53 -25.5 77.5t-79.5 34.5q-57 10 -109 28.5t-126 55.5q-37 18 -51.5 32.5t-14.5 35.5q0 20 25 104q4 12 -38 41t-73 47q-110 65 -110 210q0 44 6 81zM276 397q0 -53 34 -101t104 -83 q78 31 121 106.5t43 165.5q0 55 -16.5 100.5t-65.5 69.5q-94 -37 -156 -108q-64 -74 -64 -150z" />
<glyph unicode="h" horiz-adv-x="999" d="M102 1024v137v72q0 29 31 49.5t70 20.5q33 0 55 -15q41 -25 58.5 -61.5t17.5 -91.5v-41q2 -199 11 -327t44 -271q83 30 153 30h5q121 0 209 -71.5t118 -178.5q25 -78 25 -208l-2 -160q0 -14 -16.5 -32.5t-32.5 -22.5q-6 -2 -19 -3q-47 0 -98 46.5t-53 91.5l-4 106 q0 37 -4 107q-4 72 -17 102q-12 35 -30.5 53.5t-40.5 18.5q-16 0 -36 -14.5t-34 -38.5q-43 -68 -113 -267q-23 -71 -78 -71h-2q-6 0 -26 4q-12 4 -47 13t-54.5 29.5t-19.5 59.5q0 387 -47 641q-23 127 -23 293z" />
<glyph unicode="i" horiz-adv-x="471" d="M35 1034q0 12 9 21.5t28 9.5q80 0 194 -41q12 -2 22.5 -27.5t6.5 -42.5q-4 -12 -29.5 -26.5t-42.5 -26.5l-57 31q-84 45 -115 72q-16 12 -16 30zM111 573q6 27 8 39.5t2 26.5q0 29 17.5 45t66.5 16q57 0 101 -35.5t54 -93.5q6 -29 8.5 -63.5t2.5 -44.5l28 -350 q1 -12 1 -23q0 -39 -16 -62q-22 -30 -81 -30q-51 0 -87 28.5t-44 73.5l-53 435z" />
<glyph unicode="j" horiz-adv-x="757" d="M0 -477q0 69 61 69h2q25 0 38.5 -16t22.5 -39.5t17 -38.5l19 -37q57 -115 92 -157q37 -51 76 -52q23 0 43 17.5t32 50.5q17 41 29 107l8 41q-23 84 -65 307l-13 63q-82 426 -129 641q-6 33 -6 66v16l2 72q2 23 2 69q0 51 30 66q24 11 61 11q11 0 22 -1q51 -2 80 -30.5 t31 -73.5l4 -105q8 -209 21.5 -355t56.5 -290q25 -82 42 -177t21 -116q25 -123 35 -184q8 -35 8 -78q0 -139 -108 -217q-59 -43 -138 -43q-84 0 -182 51q-199 102 -211 303q0 14 -2 29.5t-2 30.5zM272 1069q12 8 28.5 22.5t31 22.5t26.5 8q41 0 103 -45q12 -10 20 -31.5 t2 -33.5q-6 -15 -28.5 -27t-32.5 -18q-16 6 -47 16t-47 23q-14 10 -29.5 31.5t-26.5 31.5z" />
<glyph unicode="k" horiz-adv-x="972" d="M90 172q0 248 6 494l21 667q2 109 112 109q76 0 111 -29q31 -26 31 -78v-12l-21 -209q-8 -72 -20 -194q0 -11 -5.5 -48.5t-5.5 -60.5q0 -16 5 -20l59 57q33 37 57 57q53 49 109 49q45 0 67 -34q12 -20 13 -48q0 -20 -8 -30q-31 -47 -111 -142q-31 -33 -31 -63 q0 -29 29 -64q25 -29 70 -86q88 -113 156.5 -181t158.5 -113q10 -4 16 -19.5t4 -23.5q-2 -10 -16 -20.5t-25 -8.5q-31 8 -51 10q-106 20 -151 51q-74 51 -209 178q-82 76 -84 78l-37 35l-43 43q-4 -10 -4 -31q0 -18 3 -39.5t1 -29.5q-12 -229 -16 -336q-4 -68 -32 -102 q-23 -28 -59 -29q-8 0 -18 2q-16 2 -35.5 16.5t-23.5 28.5q-23 90 -23 176z" />
<glyph unicode="l" horiz-adv-x="552" d="M102 1356q0 76 103 76q68 0 114 -44q41 -40 41 -102v-14q-6 -109 -16 -326l-12 -246q-16 -348 -23 -522q-2 -20 2 -44.5t6 -31.5l21 -8q41 49 59 78q23 31 47 31q25 0 37 -31q29 -82 29 -129q0 -20 -2 -31q-8 -41 -46 -57q-30 -13 -69 -13q-10 0 -20 1h-62.5t-76 12 t-56.5 41q-53 63 -53 123q0 479 -4 721l-2 360q0 72 -15 131q-2 10 -2 25z" />
<glyph unicode="m" horiz-adv-x="1449" d="M102 463q0 154 4 229q2 39 27 61.5t60 22.5q45 0 79 -33q18 -35 30.5 -50t27.5 -15q12 0 28.5 13.5t44.5 43.5q68 74 142 74q80 0 192 -80q8 -6 22.5 -17.5t24.5 -11.5q14 0 45 33q115 106 291 117h5q53 0 107 -42q56 -44 71 -106q25 -104 34 -245q11 -197 11 -303v-17 q-2 -49 -27 -76.5t-64 -27.5q-31 0 -65 18q-14 6 -26.5 22.5t-12.5 28.5l-12 217q-2 35 -4 89.5t-9 126.5q-4 77 -65 114q-49 -12 -80 -30.5t-45 -36t-51 -66.5q-12 -16 -25.5 -45t-15.5 -35q-6 -14 -6 -30q0 -12 5 -38t3 -40q-1 -10 -1 -25q0 -28 3 -72l2 -63q0 -29 -2 -43 q-4 -33 -20.5 -57.5t-45.5 -24.5q-10 0 -26 6q-14 4 -47 14.5t-51.5 32t-18.5 62.5q0 106 -20 319q-4 23 -9 76q-2 23 -20.5 35t-44.5 12q-43 0 -66 -22q-94 -53 -137 -121t-43 -174l2 -70q0 -68 -35 -125q-10 -18 -41.5 -31.5t-54.5 -9.5q-20 2 -41.5 27.5t-21.5 46.5 q-6 172 -7 342z" />
<glyph unicode="n" horiz-adv-x="1058" d="M102 98v21q0 112 19 260q14 117 26 188q4 33 11.5 80t13.5 109q6 47 12 69.5t29 38t70 15.5q59 0 98 -27t49 -76v-4q0 -12 -4 -31.5t-2 -25.5q137 30 234 30h6q154 0 231 -147q63 -125 63 -276q0 -39 -8 -113q-6 -49 -38.5 -79t-77.5 -30q-47 0 -66.5 17.5t-23 40 t-3.5 71.5l-2 43q-4 123 -16 213q-6 37 -27.5 52.5t-56.5 15.5q-33 0 -78 -10q-70 -18 -93.5 -28.5t-68.5 -43.5q-14 -10 -20 -41t-6 -35q-27 -131 -58 -313q-2 -8 -8 -39t-23.5 -44t-50.5 -9q-129 16 -131 108z" />
<glyph unicode="o" horiz-adv-x="854" d="M59 473l11 49q12 74 20 109q18 76 73.5 106.5t147.5 48.5q59 12 117 13q180 0 303 -121q66 -66 66 -160q0 -92 -68 -199q-78 -121 -178 -182q-63 -39 -145 -39q-90 0 -173 46t-133 132q-43 74 -42 167q0 15 1 30zM289 434l14 -6q0 -14 1 -44t7 -50q23 -63 51 -78 q12 -6 36 6t42 29q29 25 92 102q47 53 48 127q0 63 -36 114.5t-100 70.5q-6 2 -22 2q-39 0 -43 -13q-33 -79 -70 -198z" />
<glyph unicode="p" horiz-adv-x="884" d="M119 -131l14 446q1 22 1 43q0 95 -15 164q-4 25 -4 33q0 33 19.5 51.5t51.5 22.5q51 4 82 27.5t72 74.5q74 92 162 92q98 0 223 -121q57 -55 57 -149q0 -35 -6 -70q-14 -86 -60 -159.5t-120 -159.5q-61 -66 -133 -66q-59 0 -125 39l-6 -186q-10 -205 -10 -357 q0 -29 4 -90t4 -90q0 -31 -2 -45q-2 -18 -24.5 -39.5t-45.5 -27.5q-16 -4 -22 -4q-47 0 -92 40q-42 39 -42 83q0 67 17 448zM360 287q0 -23 2 -33l25 -12q41 12 86 71.5t75 134t30 132.5q0 25 -11 49q-14 27 -43 26q-37 0 -53 -26q-6 -8 -28.5 -45t-36.5 -78 q-46 -123 -46 -219z" />
<glyph unicode="q" horiz-adv-x="1173" d="M102 432q0 14 4 35q18 82 84 156.5t151 123t159 58.5q68 12 133 12q82 0 147 -22q35 -10 68 -32t62.5 -45.5t41.5 -33.5q6 -2 6 -25t-8 -30q-12 -10 -29.5 -17.5t-33.5 -7.5q-49 0 -107 33q-47 33 -106 33q-63 0 -158 -52q-33 -16 -74 -51t-75 -67l-37 -33 q-45 -41 -45 -82q0 -33 34 -92q20 -4 31 -4q49 0 86 30.5t84 88.5q-2 -2 33 38q16 16 43 68q27 53 54.5 78.5t86.5 25.5q51 0 84 -32.5t33 -89.5q0 -131 -16 -402q-2 -39 9 -58.5t46 -19.5q102 0 168 13q29 6 45 6q37 0 50 -25.5t13 -89.5l-53 -6q-25 -2 -86 -10t-112 -13 q-51 -4 -76 -25.5t-25 -72.5q0 -68 -10 -153l-8 -111q-2 -45 -19.5 -66.5t-62.5 -23.5q-100 0 -107 88q-4 57 -4 90q0 14 1 36.5t-1 53.5q-4 70 -39 70q-16 0 -47 -19q-14 -10 -43 -26q-39 -20 -61 -37q-27 -20 -68 -21q-47 0 -96 27t-82 72q115 125 334 180q66 14 89 49 q20 30 20 80q0 9 -1 18q-7 82 -17 82h-1q-57 -39 -143 -39q-84 0 -189 35q-63 18 -111.5 98t-48.5 156z" />
<glyph unicode="r" horiz-adv-x="962" d="M123 211q2 217 2 651q0 59 26.5 83t96.5 24q51 0 87 -29t38 -72q6 -20 2 -63l-25 -242q10 8 30.5 58.5t39 82t29.5 41.5q97 93 217 111q109 17 238 16h28t31.5 -11t17.5 -18t-12.5 -22.5t-22.5 -19.5q-123 -41 -216 -94.5t-161 -139.5q-160 -203 -184 -417 q-6 -57 -34.5 -77t-80.5 -20q-57 0 -102 49.5t-45 108.5z" />
<glyph unicode="s" horiz-adv-x="696" d="M57 102q16 0 44 -1t46 -5q29 -4 41 -4q92 0 154 82q43 59 43 121q0 41 -20 80q-45 80 -111 176q-43 63 -78 121q-41 66 -41 145q0 74 42 130.5t124 70.5l66 12q106 20 159 21q88 0 156 -41q14 -10 29.5 -36t23.5 -40q-14 -6 -39.5 -19.5t-44.5 -15.5q-29 -4 -86 -4 q-55 0 -84 -2q-66 -6 -103.5 -44t-37.5 -91q0 -41 25 -84q55 -92 153 -211q74 -92 74 -191q0 -53 -25 -112q-84 -205 -291 -205q-172 0 -219 147z" />
<glyph unicode="t" horiz-adv-x="819" d="M41 850q18 43 68 43q25 -4 34 -4q41 0 51.5 24.5t10.5 57.5v51l6 123q2 41 5 101.5t7 139.5q2 43 21.5 63.5t54.5 20.5q25 0 39 -4q84 -18 112.5 -53t38.5 -104q2 -14 -4 -60l-36 -319q-2 -12 -6.5 -29.5t-4.5 -26.5q0 -18 20 -24q15 -4 51 -4h26q94 20 143 26q10 2 33 2 q25 0 32 -6q8 -4 13.5 -23.5t5.5 -43.5q0 -23 -5 -41.5t-14 -20.5q-55 -16 -131 -26q-90 -16 -133 -29q-23 -6 -45 -30.5t-24 -45.5q-4 -100 -7 -205v-29q0 -65 7 -130q6 -68 26.5 -97.5t61.5 -29.5q33 0 94 22q33 14 57 15q39 0 56 -43q6 -14 6 -29q0 -27 -19.5 -43 t-52.5 -29q-61 -23 -125 -24q-86 0 -162 42t-120 118q-38 65 -38 147q0 13 1 26q2 39 2 123q0 133 -11 271q-2 12 -14 17t-41 11q-47 8 -61 23q-15 16 -20 34.5t-9 51.5z" />
<glyph unicode="u" horiz-adv-x="972" d="M102 584q0 82 23 207q4 31 39 53q30 22 69 22h3q20 0 43 -6q51 -14 72.5 -34.5t21.5 -55.5q0 -16 -6 -43q-23 -92 -25 -184v-11q0 -98 33 -182q12 -31 23.5 -44t27.5 -13q20 0 53 37q76 90 113 180t45 186q6 63 20 80q8 8 26.5 10t53.5 2q55 -4 77 -10t30 -20.5t8 -46.5 l-2 -97q0 -31 -2 -90q-6 -184 -10 -274q-2 -72 -43 -180q-4 -6 -22.5 -17.5t-33.5 -13.5q-4 0 -17 13.5t-20 23.5q-14 33 -32 88l-17 39l-4 12l-6 -6l-33 -21q-25 -20 -53 -32q-47 -29 -113 -29q-82 0 -155.5 46t-116.5 126q-70 123 -70 285z" />
<glyph unicode="v" horiz-adv-x="972" d="M102 684q0 29 31 51q31 23 66 23q39 0 96 -39q41 -31 59.5 -70t34.5 -102q16 -66 31 -98q8 -17 18 -54q23 -70 27 -78q43 78 80 154q59 123 92 172q59 90 141 160q16 16 39 16q20 0 33.5 -16.5t17.5 -40.5q2 -8 2 -27q0 -45 -16 -90q-31 -80 -152 -391l-88 -227 q-18 -51 -58 -79t-85 -28q-68 0 -119 57q-31 37 -63 127q-94 289 -158 496q-6 16 -17.5 42t-11.5 42z" />
<glyph unicode="w" horiz-adv-x="1482" d="M102 602q0 49 50 78q35 18 61 18q27 0 61 -18q55 -29 81 -67t28 -99q2 -45 28.5 -128t32.5 -87q6 8 22.5 26.5t25.5 34.5l36 76q49 102 82 150q25 37 58.5 55t70.5 18q66 0 123 -57q16 -18 31 -78q6 -29 14 -75q14 -92 35 -150q12 -35 41 -35q27 0 47 33q49 86 107 209 q35 80 69.5 139.5t112.5 149.5q20 25 55 42q31 15 58 15h6q20 -2 32.5 -37t12.5 -78q0 -20 -4 -45q-10 -49 -26.5 -88t-47.5 -106q-37 -80 -47 -105l-27 -41q-76 -117 -112 -164q-53 -66 -136 -122q-31 -23 -65 -23q-29 0 -55.5 11.5t-51 26.5t-37.5 23q-43 25 -106 93 q-20 25 -33 34q-4 5 -45 54q-68 -158 -96 -211q-45 -92 -121 -92q-35 0 -84 22q-82 41 -131 110.5t-78 168.5q-41 139 -74 290q-4 20 -4 29z" />
<glyph unicode="x" horiz-adv-x="980" d="M102 129q0 35 19 61q94 127 182 222l33.5 33.5t17.5 23.5q0 4 -15 21.5t-30 41.5q-10 18 -51 68l-45 62q-12 18 -20.5 46.5t-12.5 41.5q14 4 43 16q44 20 69 20q8 0 15 -2q57 -23 99.5 -48t56.5 -64q6 -16 14 -38t14.5 -30t12.5 -8q8 0 27.5 18.5t48.5 49.5 q23 23 53.5 42t60.5 35q31 16 60 17q33 0 61.5 -18.5t58.5 -53.5q4 -8 5 -16q0 -12 -5.5 -26.5t-11.5 -22.5q-51 -59 -129 -123q-8 -6 -17 -14.5t-20 -16.5q-31 -25 -49 -42t-18 -30q0 -14 30 -51l50 -65q55 -88 75 -142q6 -14 7 -37q0 -16 -2.5 -30.5t-2.5 -30.5 q-29 4 -47 4q-6 0 -34.5 4t-49.5 16q-27 18 -48 48t-25 34l-35 45q-8 11 -24.5 24t-28.5 24l-50 -68l-67 -94q-23 -31 -56.5 -46.5t-70.5 -15.5q-47 0 -86 23.5t-58 68.5q-4 12 -4 23z" />
<glyph unicode="y" horiz-adv-x="837" d="M41 868v4q0 12 8 27.5t17 22.5q32 22 72 22h3q57 0 102.5 -40t51.5 -99q10 -92 35 -201q10 -43 39 -43q23 0 39 23q53 68 81 131q35 78 103 78q18 0 26 -2q103 -19 103 -126v-6l-6 -190q-8 -254 -19 -379l-6 -82q-12 -168 -23.5 -261t-35.5 -187q-31 -119 -113 -177.5 t-192 -58.5q-88 0 -176 35q-18 8 -43 21.5t-37 21.5l-4 20q14 5 36.5 12t38.5 9q147 4 216 61.5t87 202.5t37 436l8 131v9q0 40 -17 64q-19 26 -71 32q-111 12 -191.5 86t-111.5 186q-10 35 -22 82q-25 90 -35 135z" />
<glyph unicode="z" horiz-adv-x="956" d="M102 201q0 43 62 100l88 80q150 133 176 160q10 10 19.5 30.5t15.5 32.5q-10 4 -31.5 12.5t-38.5 12.5l-53 10q-78 12 -129 33.5t-86 79.5q29 27 53.5 39t57.5 11q23 0 47 -5q166 -45 319 -58q41 -2 66.5 -22.5t52.5 -57.5l29 -32q8 -8 -8.5 -46t-36.5 -61 q-86 -86 -275 -254q-14 -12 -36.5 -24.5t-35.5 -18.5q2 -6 35 -10t74 -4q92 0 141 14q47 12 109 35q96 31 133 39q16 2 38.5 -13.5t37.5 -33.5q2 -2 2 -10q0 -14 -7.5 -32t-15.5 -24q-229 -147 -495 -147q-76 0 -152 12q-55 10 -115 74q-41 45 -41 78z" />
<glyph unicode="{" horiz-adv-x="772" d="M102 676q0 18 29 41q76 55 105.5 122.5t29.5 151.5q0 47 -6 92q-6 47 -27 162q-31 135 -30 217q0 254 280 305q29 4 41 5q66 0 125 -50q20 -18 21 -36q0 -16 -13.5 -28.5t-35.5 -17.5q-102 -20 -157.5 -73.5t-55.5 -134.5q0 -12 4 -41q16 -98 26 -146q29 -133 37 -223 q8 -82 8 -123q0 -117 -65 -190q-14 -18 -15 -45q0 -14 7 -25q82 -129 82 -285q0 -106 -33 -227q-14 -68 -15 -117q0 -92 39 -192q4 -12 25.5 -30.5t28.5 -27.5q4 -6 19 -26.5t9 -30.5q-10 -12 -33.5 -25.5t-35.5 -11.5q-14 4 -53.5 16.5t-67 25.5t-41.5 30 q-102 125 -103 229q0 14 5 47h-23q37 193 57 287q8 31 9 70q0 84 -56 204q-8 16 -40.5 33t-47.5 25q-33 20 -33 43z" />
<glyph unicode="|" horiz-adv-x="819" d="M256 -293l41 598q16 244 59 731v31q4 49 4 76q0 68 -19 112.5t-69 65.5q23 131 121 209q16 14 47 14q37 0 68 -20q51 -35 73.5 -90.5t22.5 -137.5q0 -39 -2 -59q-16 -164 -29 -492q-16 -436 -131 -1009q-8 -41 -48 -69.5t-79 -28.5q-29 0 -45 17t-14 52z" />
<glyph unicode="}" horiz-adv-x="794" d="M102 1831q14 4 41 12t43 4q227 -45 322 -184q49 -76 49 -182q0 -29 -4 -82q-6 -78 -18.5 -172t-16.5 -131q-8 -45 -20 -156q-6 -57 19.5 -83t94.5 -44q27 -6 52.5 -24.5t27.5 -32.5q2 -23 -12 -49.5t-35 -40.5q-109 -84 -110 -183q-2 -78 2 -173t6 -126l4 -61l6 -88 q8 -119 6 -180q-2 -45 -39 -89.5t-92 -72t-111 -27.5l-22 2q-21 2 -42.5 11.5t-33.5 17.5t-18 10q-14 10 -47 27q16 12 34.5 26.5t30.5 18.5q80 31 107.5 82t23.5 125l-4 59q-12 254 -29 379q-2 16 -2 47q0 133 99 270q-135 129 -135 289q0 55 24 166q2 14 12.5 60.5 t12.5 82.5q4 37 4 113q0 98 -10 168q-2 18 -22.5 35.5t-59.5 44.5q-23 16 -54 31q-55 33 -57 34q-12 12 -17.5 34t-9.5 32z" />
<glyph unicode="~" d="M47 854q27 121 109 174q94 61 188 64q82 2 162 -52l37 -24q100 -68 149 -88q49 -25 113 -25q39 0 78 8.5t72.5 18.5t45.5 12q14 4 26.5 9t23.5 10q33 16 61 16q53 0 98 -57q0 -82 -88 -123q-131 -61 -254 -62q-61 0 -133 17q-26 6 -60 23.5t-69 37.5q-70 41 -122 62.5 t-115 25.5q-45 -8 -127 -41q-109 -43 -150 -43q-39 0 -45 37z" />
<glyph unicode="&#xa1;" horiz-adv-x="595" d="M102 -467q0 74 9 131q43 238 133 709q90 -12 142 -68.5t52 -134.5q0 -29 -10 -66q-25 -88 -38 -154.5t-23 -109.5q-16 -66 -35 -162l-13 -61q-16 -84 -32.5 -133t-53.5 -94q-78 20 -104.5 47.5t-26.5 95.5zM240 637q0 25 15 43t44 37l8 4t8 6q23 25 39.5 37t34.5 12 t39 -14q27 -16 46.5 -58t19.5 -79q0 -8 -5 -25q-12 -41 -45.5 -71.5t-68.5 -30.5q-47 0 -91 45t-44 94z" />
<glyph unicode="&#xa2;" horiz-adv-x="942" d="M102 516q0 14 4 47q25 125 67 224.5t124 177.5q49 43 86 59l2 27q0 111 47 151q27 23 57 21l19 -2l2 -193l12 -4q82 -25 125 -53q47 -31 47 -78q0 -39 -31.5 -66.5t-66.5 -23.5l-8 2l-6 6q-12 20 -70 78l-2 2v-111l4 -409q61 18 168 82q12 8 37 20l10 6q25 16 41 17 q16 0 36.5 -12.5t29.5 -28.5q4 -13 4 -25q0 -31 -17 -47q-106 -119 -258 -147l-53 -9q-10 -90 -33 -151q-6 -20 -26 -41l-13 -17l-22 -34l-12 41q-27 90 -27 202q-68 12 -121 45q-76 47 -116 109.5t-40 134.5zM270 528q0 -68 49 -122q23 -25 58 -39q0 184 4 487 q-37 -51 -58.5 -111.5t-43.5 -150.5q-8 -31 -9 -64z" />
<glyph unicode="&#xa3;" horiz-adv-x="1349" d="M102 809q0 18 13 39l4 6h8l6 2q4 0 10.5 1t14.5 -1q59 -14 151 -14q57 0 84 2q10 78 15 137q8 150 88 291q74 131 145 203q41 41 98.5 65.5t120.5 26.5q178 8 297 -54q39 -23 58.5 -41t19.5 -47q0 -39 -61 -98l-13 -10l-10 12l-18 19q-29 29 -35 41q-18 31 -54 32 q-14 2 -40 2q-78 0 -148 -34q-10 -4 -19.5 -15.5t-11.5 -13.5l-18 -23q-203 -201 -213 -473l20 4l52 11q10 2 30 2q82 0 152 -52q39 -27 35 -61q0 -12 -12.5 -27.5t-39.5 -25.5q-41 -16 -81 -21l-58 -4l-110 -8l-37 -356q-2 -25 -4 -43.5t-4 -32.5q166 2 497 2h49 q74 0 117 -37t45 -102l2 -15h-16l-121 -4q-172 -4 -262 -8l-82 -2l-338 -12q-8 -2 -20 -2q-23 0 -25 12q0 2 -1 4t1 4q-33 12 -49.5 40t-11.5 65q6 80 34 311l19 172q-141 8 -232 72q-41 29 -41 59z" />
<glyph unicode="&#xa4;" horiz-adv-x="1185" d="M102 174q0 27 19 53q16 23 42.5 48.5t37.5 35.5l73 70q-23 59 -49 125q-29 80 -28 158q0 18 4 59q4 76 43 104q16 12 43.5 17.5t40.5 9.5l28 16q-2 8 -7 25.5t-13 28.5q-6 10 -49 51l-49 51q-29 29 -50 74q-4 8 -4 14q0 16 10.5 29.5t24.5 19.5q18 8 43 8q35 0 68 -22 q25 -18 73 -64l37 -34q47 18 88 18q59 0 112.5 -25.5t129.5 -78.5l41 28q37 29 57 39q31 18 125 66q20 8 27 8q25 0 45 -21q18 -18 18 -45q0 -14 -6 -26q-16 -37 -55 -86q-29 -37 -92 -105l-45 -51q29 -111 28 -186q0 -92 -36 -168l59 -64l59 -63q31 -35 31 -70 q0 -20 -8 -37q-12 -18 -39 -18q-37 0 -78 27l-63 43l-68 45q-33 -4 -78 -17q-74 -18 -117 -18q-27 0 -61.5 6t-46.5 8l-61 12q-49 -66 -84 -122q-41 -66 -105 -66q-31 0 -61 14q-27 12 -40.5 33t-13.5 43zM381 612q0 -53 25 -120q33 -90 122 -91q20 0 31 2q63 6 115 54 q76 71 76 159l-2 25q-12 98 -50.5 171t-117.5 122q-10 -10 -35 -33.5t-45 -36.5q-23 -14 -49.5 -24.5t-36.5 -14.5l-11 -61q-6 -53 -18 -107q-4 -16 -4 -45z" />
<glyph unicode="&#xa5;" horiz-adv-x="1161" d="M102 1253q0 14 4 27q6 14 22.5 21.5t29.5 7.5q66 6 112 -49q29 -31 80 -101l21 -29q98 -139 161 -202l27 -23q6 -2 8 -8l8 6l23 23l18 24q70 96 111 162t100 178l13 21q37 68 94 67q8 0 33 -4q51 -10 63 -45q4 -12 4 -22q0 -27 -18 -56l-43 -63q-31 -39 -53 -78 l-144 -238l-20 -36l-13 -21q-12 -20 -20 -47q-6 -31 -6 -51q0 -18 6 -29q14 -14 72 -12h69q53 0 80 -2q78 -8 111 -80l4 -10l-6 -6q-27 -27 -57.5 -33t-73.5 -4q-8 2 -27 2q-18 0 -27 -2q-25 -4 -69 -4q-57 -1 -92 -13q-8 -23 -9 -47q0 -29 9 -55q53 -8 81 -8q53 0 119 16 q20 4 31 4q39 0 78 -28q12 -6 18 -19.5t6 -28.5q0 -16 -8 -28.5t-22 -16.5q-55 -23 -113 -28q-25 -4 -76 -4q-35 0 -51 -2q-18 0 -30.5 -2.5t-20.5 -4.5l-12 -2q-10 -20 -11 -51q0 -27 17 -80q18 -63 14 -104v-4l-4 -4q-27 -25 -59 -25q-16 0 -46 8q-74 23 -77 96 q-2 20 -2 60q0 51 -2 78q-2 33 -12.5 43t-45.5 12q-8 2 -24 2q-31 0 -45 2q-35 8 -68 31q-29 23 -29 55q0 14 6 27q8 12 23.5 22.5t30.5 14.5q6 2 18 2q10 0 27 -4l16 -2q14 0 21 -3q33 -4 47 -4l10 2l2 2q10 16 10 31q0 16 -14 41q-16 8 -41 8q-23 0 -47 -6l-21 -2 q-10 -2 -30 -2q-55 0 -90 33q-33 27 -33 53q0 10 6 23q8 14 23.5 24t31.5 15q23 2 66 2q25 0 39 2h22q18 0 34.5 2t31.5 10q2 8 2 25q0 43 -31 83l-39 48l-28 30l-37 45q-37 43 -39 45q-76 96 -70 88q-4 8 -16 25q-37 47 -58.5 71.5t-50.5 43.5q-23 14 -29 35q-4 29 -4 34z " />
<glyph unicode="&#xa6;" horiz-adv-x="559" d="M102 1593q0 41 27 63.5t72 22.5q66 -2 112.5 -46t48.5 -107q2 -27 -2 -76l-2 -55v-101l-18 -309q-4 -61 -47 -80q-29 -8 -43 -8q-39 0 -64 31q-31 39 -48 67.5t-19 57.5q-12 180 -17 540zM143 678q-4 63 50 94q25 12 51 12q27 0 57 -18q113 -72 119 -184l4 -50 q6 -80 6 -159q2 -94 6 -156.5t19 -124.5q2 -6 2 -18q0 -33 -22.5 -53.5t-55.5 -20.5q-23 0 -41 8q-70 27 -92 86q-16 41 -21 64l-43 268q-25 168 -39 252z" />
<glyph unicode="&#xa7;" horiz-adv-x="1193" d="M102 -289l2 27q0 14 4.5 32.5t6.5 30.5q113 2 196.5 51.5t163.5 139.5q53 63 53 137q0 51 -24 102l-10 25q-53 8 -104.5 52t-61.5 93v5q0 6 3 15t5 13l16 6q27 -14 70 -22q-70 150 -117 233q-106 188 -106 379q0 121 43 244q41 115 103.5 200t162.5 128l27 16 q53 31 75 35l-12 102q-2 18 -2 53q0 195 139 371q37 47 86 72.5t103 25.5q61 0 120 -32q43 -20 43 -56q0 -33 -38 -51q-127 -63 -177.5 -162.5t-50.5 -234.5q0 -41 8 -127q29 -279 191 -604l16 -37q56 -117 56 -236q0 -137 -81 -247.5t-235 -176.5q-53 -23 -133 -41 q31 -123 31 -194q0 -119 -55.5 -220.5t-144.5 -173t-193 -102.5q-27 -8 -56 -8q-55 0 -89 37t-34 100zM362 1024q0 -63 25 -135q29 -80 102 -232q72 -147 95 -208q33 16 75 47q102 78 179 188q34 54 34 115q0 55 -28 127l-123 299q-39 94 -62 178q-6 -6 -30 -19 q-139 -61 -217 -188q-51 -88 -50 -172z" />
<glyph unicode="&#xa8;" horiz-adv-x="806" d="M102 1006q16 29 41 69q35 2 66 -11t45 -34.5t6 -40.5q-4 -14 -24.5 -27.5t-30.5 -11.5q-27 6 -66 35zM512 981q27 10 51 25q49 23 66 22q33 -2 54.5 -22.5t21.5 -55.5q0 -27 -15.5 -41t-38.5 -14q-25 0 -44 11.5t-56 41.5q4 -4 -39 33z" />
<glyph unicode="&#xa9;" horiz-adv-x="1011" d="M102 1237q0 61 25 139q12 55 57 80q51 31 84 43q145 39 256 39q76 0 151 -37t129 -96t75 -121q30 -105 30 -166q0 -145 -96 -241q-76 -76 -178 -123q-27 -10 -64 -15q-23 -2 -38 -1t-25 1q-12 -2 -35 -2q-84 0 -158 37q-123 55 -168 209q-20 68 -41 207q-4 33 -4 47z M195 1198q0 -139 65 -276q25 -47 84 -78q57 -27 156 -27q82 0 140 26.5t108 86.5q49 59 75 139q15 43 15 90q0 72 -41 133l-47 64q-25 29 -47.5 46t-53.5 19q-6 2 -15 7.5t-18 7.5q-14 2 -50 9t-62 7q-76 0 -203 -35q-80 -23 -96 -106q-10 -49 -10 -113zM293 1135 q0 55 31 92q6 6 22 26.5t35 30.5q49 27 125 59q16 6 55 7q41 -4 60 -41q6 -12 6 -23q0 -20 -19 -39l-53 -6q-84 -8 -152 -86q-10 -14 -10 -25q0 -20 19 -30q33 -23 59 -25q20 -4 34.5 -5t24.5 -1q31 0 45 -2q5 0 22 -1t29.5 -8t18.5 -22q6 -16 -10.5 -35.5t-42.5 -27.5 q-45 -10 -80 -10q-88 0 -154 49q-66 45 -65 123z" />
<glyph unicode="&#xaa;" horiz-adv-x="815" d="M102 1014q-8 51 17 145q14 55 49 137q27 63 78 98.5t114 35.5q27 0 54 -7q10 -2 24.5 -13t22.5 -15q-96 -37 -167 -122t-71 -186q0 -33 4 -49q16 -23 37 -22q25 0 51 35q55 84 97 184q4 12 9 31.5t13 30t25 10.5l18 -4q49 -16 47 -66l-2 -61q-2 -61 -2 -95q2 -31 17 -67 q8 -23 24 -23q12 0 29 10l31 21q23 14 43 14q23 0 36 -22q13 -19 13 -37q0 -25 -27 -51q-45 -45 -106 -43q-37 0 -75 18.5t-65 52.5q-25 33 -37 33q-10 0 -32 -35q-23 -35 -54.5 -53t-66.5 -18q-53 0 -107 43q-18 14 -27.5 39.5t-13.5 50.5z" />
<glyph unicode="&#xab;" d="M111 621q0 57 39 98q160 168 280 299l82 84q8 10 21.5 26.5t25.5 26.5q6 6 35 30.5t57 35.5q8 2 29.5 -26t24.5 -46l2 -33q0 -68 -27 -94q-117 -117 -236 -231l-61 -56q-35 -35 -35 -59q0 -27 39 -62q88 -78 137 -125t94 -102q27 -33 36.5 -53.5t18.5 -48t15 -43.5 q2 -4 2 -13q0 -8 -4 -21t-6 -20q-2 -10 -14 -18q-8 -6 -21 -6q-12 0 -20 6q-59 45 -166 102q-96 49 -168 105q-39 31 -84 76l-33 32q-31 27 -47 63t-16 73zM535 678q-2 49 59 94q133 96 287 254q31 31 51 43t39 12q31 0 84 -43q27 -25 26 -55q0 -45 -47 -92 q-41 -41 -164 -115q-74 -45 -100 -65q-18 -15 -18 -33q0 -23 19.5 -46.5t49.5 -58.5l29 -30q14 -16 92 -94l31 -31l-45 -51l-43 12q-57 12 -86 33q-68 49 -137.5 111.5t-83.5 74.5q-41 41 -43 80z" />
<glyph unicode="&#xac;" horiz-adv-x="1767" d="M104 770q2 12 17.5 23.5t30.5 13.5q25 4 59.5 5t52.5 1h166l188 12q270 16 394 27q145 10 436 43q57 6 104 -18.5t97 -69.5q10 -10 14 -28.5t0 -30.5q-37 -102 -37 -240q0 -41 4 -127q4 -57 4 -84l2 -21q0 -8 -4 -28q-10 -29 -26 -37q-29 -16 -60 -16q-43 0 -77.5 25.5 t-41.5 66.5q-4 33 -4 49l2 65q0 47 -2 70q0 94 -4 141q-4 57 -30.5 83t-81.5 28l-50 2q-55 0 -161 -8l-811 -64l-37 -2q-29 0 -60 6q-47 12 -67 39q-10 14 -15.5 36t-1.5 38z" />
<glyph unicode="&#xad;" horiz-adv-x="0" d="M102 541q0 39 60 67q51 23 106 29l99 6q217 18 358 19q111 0 204 -23t171 -82q24 -18 36.5 -32.5t12.5 -35.5q0 -20 -14 -43q-33 -6 -39 -4q-88 23 -217 23q-98 0 -236 -14l-82 -7q-43 -4 -115 -20l-65 -12q-29 -4 -45 -4q-100 0 -193 69q-41 29 -41 64z" />
<glyph unicode="&#xae;" horiz-adv-x="1011" d="M102 1241q0 61 25 139q12 51 57 80q51 31 84 41q133 39 256 39q76 0 151 -37t129 -95t75 -120q30 -107 30 -168q0 -143 -96 -239q-76 -80 -178 -123q-27 -10 -64 -15q-16 -4 -35.5 -3t-27.5 1q-106 -6 -193 35q-123 57 -168 211q-20 63 -41 207q-4 33 -4 47zM195 1202 q0 -141 65 -276q25 -47 84 -78q61 -31 145 -27q86 -2 146.5 23.5t112.5 87.5q51 63 75 141q15 43 15 90q0 70 -41 131q-4 6 -47 66q-25 29 -47.5 46t-53.5 19q-6 0 -16 5.5t-17 7.5q-6 2 -38.5 10t-61.5 8q-80 0 -215 -35q-82 -25 -96 -106q-10 -49 -10 -113zM351 1187 q1 7 1 9q0 68 48.5 106.5t109.5 38.5q37 0 63 -12q31 -12 31 -37q0 -4 -4 -20q-12 -33 -31 -60q-10 -14 -65 -94l43 -45q70 -74 92 -117q-14 -25 -35 -24q-8 0 -24 8q-27 14 -62 49q-4 6 -17.5 18.5t-26.5 20.5t-30 10q-4 -41 -8 -63q-2 -8 -8 -16.5t-12 -10.5l-8 -2 q-10 0 -25 10q-25 18 -27 52q-4 111 -4 166q-2 6 -1 13zM430 1233q0 -18 21 -51q28 24 43.5 47.5t17.5 56.5q-45 -10 -63.5 -22.5t-18.5 -30.5z" />
<glyph unicode="&#xaf;" d="M227 1466q8 6 22.5 20.5l22.5 22.5q18 18 37 21q12 0 41 2q23 2 131 -12q281 -37 437 -52q22 -2 55 -15t49 -19q-14 -14 -28.5 -33t-24.5 -19l-107 -4q-55 -2 -193.5 -6t-248.5 -4q-72 0 -119 21q-10 2 -27 16z" />
<glyph unicode="&#xb0;" horiz-adv-x="727" d="M104 1491q2 43 29 72.5t72 54.5q18 10 47 39q33 27 35 29q47 37 69 32q78 -16 131.5 -38.5t85.5 -71.5q23 -33 37.5 -73t14.5 -73q0 -47 -41 -112.5t-103.5 -108.5t-124.5 -35q-129 8 -195.5 84t-56.5 201zM244 1448q0 -27 12 -55.5t31 -46.5q27 -12 61 -13q33 0 58 10 q30 13 52.5 60t22.5 94q0 29 -8 45q-18 45 -51 76t-84 29q-8 -4 -38 -16.5t-34 -22.5q-23 -68 -22 -160z" />
<glyph unicode="&#xb1;" horiz-adv-x="1079" d="M102 166q6 35 45 51q27 10 52 10q10 0 30 -4q76 -20 156 -28.5t188 -12.5q66 -4 137.5 -16t88.5 -14q30 -4 53 -27q4 -4 4 -14q0 -18 -8 -27q-16 -18 -40 -23.5t-60 -5.5q-84 -2 -252 -2v-2h-228q-72 0 -135 41q-20 12 -26.5 29.5t-4.5 44.5zM160 748q2 10 13 22t24 16 q27 10 71 7q20 -2 41 -5.5t43 -5.5q12 -2 33 -2q27 0 37 10.5t10 36.5q0 18 -2 31l-27 166q-4 31 11.5 52.5t44.5 25.5q10 2 28 2q37 0 64 -19.5t39 -56.5q8 -23 10 -52.5t4 -43.5q2 -16 3 -40t6 -42.5t20 -34.5q27 -6 57 -6q41 0 119 12q33 4 49 4q37 0 68 -14 q20 -12 43 -39q8 -10 8 -24q0 -27 -23 -37q-63 -18 -129 -31l-49 -10q-92 -14 -147 -41l-25 -154q-10 -66 -53 -92q-12 -8 -27.5 -12t-25.5 -2q-10 4 -18.5 19t-10.5 28q-2 16 -4 39.5t-2 36.5q0 37 -2 55q0 10 -15 63l-129 23q-55 12 -84.5 23.5t-56.5 37.5 q-10 10 -14 25.5t-2 28.5z" />
<glyph unicode="&#xb2;" horiz-adv-x="831" d="M102 1257q0 20 13 39q49 66 80 90q59 51 119.5 67.5t92 16.5t78.5 -19t47 -81q0 -20 -4 -31q-23 -84 -79 -252l-15 -40q-6 -18 -18.5 -46t-19.5 -50.5t-7 -47.5l2 -20q31 -15 68 -15q33 0 98 17q66 16 100 16q37 0 72 -14q-6 -14 -11 -40t-18 -36q-109 -39 -247 -59 q-10 -2 -33 -2q-55 0 -144 32q-14 6 -26 32t-10 42q8 61 64 247.5t63 235.5q-70 10 -112 -71.5t-54 -81.5l-33 -2q-35 0 -49 24q-16 27 -17 49z" />
<glyph unicode="&#xb3;" horiz-adv-x="698" d="M102 1341q0 10 7 23q29 70 104 100q68 25 117 25q55 0 102 -27q45 -25 65.5 -55.5t20.5 -73.5q0 -23 -6 -51q-2 -14 -6 -24.5t-6 -18.5q10 -12 32.5 -40t36.5 -50q27 -41 27 -90q0 -35 -16 -74q-63 -129 -179 -205q-29 -20 -63 -20q-10 0 -35 4q-51 10 -61 65 q23 31 82 86q51 47 79.5 80t42.5 80v2q0 2 -8 27q-12 0 -34.5 -1t-36.5 -5q-12 -4 -30 -15.5t-32 -17.5q-27 -12 -51 -12q-51 0 -84 57q-8 14 -8 31q0 14 8 26.5t23 16.5q96 33 145 106q4 8 6 22.5t2 20.5q-29 4 -41 4q-31 0 -88 -12q-66 -16 -96 -12q-18 12 -19 28z" />
<glyph unicode="&#xb4;" d="M362 1034q2 66 7.5 83.5t44.5 60.5q152 168 215 356q16 49 73 102q20 18 48 19q18 0 36.5 -9.5t30.5 -25.5q37 -51 37 -117q0 -59 -33 -100q-150 -186 -291 -322q-57 -57 -118 -57q-23 0 -50 10z" />
<glyph unicode="&#xb5;" horiz-adv-x="1337" d="M102 -395q0 49 9 71q61 227 90.5 471t36.5 519l4 151q0 113 6 225q4 94 26 156q12 31 37 48.5t56 17.5q33 0 63 -19q51 -27 43 -69q-8 -39 -8 -89q0 -76 22 -196q4 -23 9.5 -56.5t9.5 -76.5q4 -47 12 -82t29 -62q33 -2 49 11.5t37 44.5q86 135 131 211.5t74 169.5 q14 49 47 90q33 43 88 43t81.5 -27t32.5 -78l7 -67q25 -256 45 -377q14 -102 55 -250l18 -76q2 -10 10.5 -32.5t10.5 -34.5q2 -9 2 -21q0 -29 -18.5 -45t-49.5 -16q-63 0 -95 23.5t-46 82.5q-29 117 -74 355q-14 57 -39 186l-39 -49q-18 -20 -43 -53l-51 -78 q-33 -53 -51 -80q-74 -111 -192 -111q-37 0 -70 8q-29 4 -43 5q-4 0 -23 -9l-14 -106q-57 -422 -88 -633q-8 -59 -31 -96q-25 -41 -73 -62q-12 -6 -27 -6q-25 0 -44.5 20.5t-21.5 47.5z" />
<glyph unicode="&#xb6;" horiz-adv-x="1021" d="M102 1327q0 104 36 180t93.5 117t120.5 47l51 10q33 8 50 9q66 4 88 4q72 0 134 -13.5t144 -42.5q57 -23 79 -58.5t22 -98.5q-2 -164 -2 -549v-551q-2 -49 -4.5 -169t-2.5 -204q0 -57 -42 -98t-99 -41q-35 0 -46 13.5t-11 39.5q0 18 2 40t2 48l-2 283q0 348 8 522 q-2 59 -13.5 82t-37.5 23q-18 0 -70 -15q-10 -2 -22.5 -6t-30.5 -8q-14 -2 -43 -2q-74 0 -142.5 31.5t-144.5 99.5q-66 55 -87 107.5t-28 154.5q-2 14 -2 45zM276 1270q0 -68 52.5 -128.5t148.5 -99.5q6 -2 25 -2q51 0 112.5 27t67.5 55q2 9 2 23t-3 33.5t-1 19.5 q-4 16 -8 80q-4 135 -25 154q-25 20 -63.5 32.5t-83.5 12.5q-57 0 -108.5 -23.5t-80.5 -71.5q-35 -57 -35 -112z" />
<glyph unicode="&#xb7;" horiz-adv-x="305" d="M20 485q23 51 66 84t92 33q35 0 60.5 -27.5t25.5 -76.5q0 -37 -17.5 -68t-47 -48t-60.5 -17h-12q-74 12 -100 69q-2 8 -4.5 24.5t-2.5 26.5z" />
<glyph unicode="&#xb8;" horiz-adv-x="546" d="M102 -25q-2 18 12.5 27.5t37.5 9.5q41 0 61 -24q8 -10 17.5 -32t21.5 -34q35 -27 59 -39q29 -16 49 -30q57 -43 82 -103q2 -15 2 -35q0 -27 -8 -34q-33 -47 -57 -62q-6 -4 -35 -22.5t-61 -28.5q-29 -8 -43 -8q-51 0 -107 41q-10 8 -10 24q0 25 16 31q20 8 41 14t39 13 l47 24q31 18 31 41q0 18 -23 37l-45 35q-35 25 -63 51q-33 33 -45 53.5t-19 50.5z" />
<glyph unicode="&#xb9;" horiz-adv-x="667" d="M102 1264q64 77 124.5 122.5t135.5 79.5q27 12 52 13q59 0 94 -66q33 -66 35 -108q10 -154 22 -461q2 -31 -19.5 -52.5t-51.5 -21.5q-35 -2 -58.5 12.5t-32.5 42.5q-10 35 -15 78t-7 55l-25 209q-2 31 -10 103z" />
<glyph unicode="&#xba;" horiz-adv-x="745" d="M92 1153q-2 25 19 70q2 6 8 23.5t8 31.5q8 63 31 78q59 41 111.5 64.5t107.5 23.5q51 0 110.5 -22.5t92.5 -61.5q28 -33 45.5 -91.5t17.5 -121.5t-18.5 -116.5t-57.5 -84.5q-102 -90 -209 -90q-123 0 -221 115q-27 31 -34 64.5t-9 68.5t-2 49zM174 1194q33 -68 109 -145 q23 -23 55.5 -36.5t60.5 -11.5q31 12 58.5 39t38.5 54q6 16 6 32q0 51 -34 108.5t-77 74.5q-47 18 -88 18q-59 0 -102 -45q-2 -6 -17.5 -41t-9.5 -47z" />
<glyph unicode="&#xbb;" d="M129 1133q49 33 96 34q59 2 125 -55q152 -131 314 -307q32 -35 32 -60q0 -18 -16 -32.5t-55 -36.5q-51 -31 -95.5 -69t-119.5 -109q-45 -43 -93.5 -63.5t-109.5 -20.5q-33 0 -70 6q6 16 14.5 48t20.5 50q18 31 50 59.5t81 75.5q84 82 117 117q10 12 10 31 q0 18 -16.5 35.5t-39 36t-32.5 26.5q-100 80 -154 143q-16 16 -33.5 46t-25.5 45zM418 225q8 18 21.5 57.5t29.5 65.5q37 53 79 99.5t107 111.5q111 111 168 186q14 16 15 37q0 16 -14.5 32.5t-41.5 39.5q-139 117 -196 188q-18 20 -27 78l-10 43q16 0 45 4l45 2 q31 0 43 -10q131 -111 350 -334q41 -41 41 -82q0 -43 -49 -90q-94 -90 -195 -170q-156 -135 -194 -172q-33 -31 -77 -52t-50 -26l-59 -30z" />
<glyph unicode="&#xbc;" horiz-adv-x="1579" d="M61 1151q0 20 13 41q92 158 297 289q41 25 69 24q31 0 49.5 -27.5t18.5 -78.5q0 -12 -4 -49q-4 -57 49 -512q6 -35 -12 -78q-6 -10 -19.5 -20.5t-23.5 -12.5q-12 0 -27.5 9t-19.5 20q-12 45 -35 153q-4 20 -8 54q-6 53 -15.5 82.5t-36.5 60.5q-8 31 -22 31 q-10 0 -22.5 -11.5t-19.5 -20.5t-9 -13q-4 -4 -18.5 -20.5t-26.5 -22.5q-23 -10 -54 -11q-51 0 -92 43q-31 35 -31 70zM295 160q0 31 12 49q6 8 12.5 18.5t16.5 22.5q129 201 242 354q227 317 423 565q8 10 39 56q39 57 68 85.5t72 35.5q10 2 34 2q41 0 68 -15 q35 -18 35 -53q0 -25 -21 -51l-227 -291q-182 -236 -352 -451q-94 -115 -295 -327q-14 -16 -40 -30.5t-40 -23.5q-10 8 -26.5 17.5t-18.5 17.5q-2 6 -2 19zM801 352q0 16 2 25q12 39 76.5 133t140.5 176t123 98h6q10 0 49 -16q6 -4 34 -73.5t51.5 -150.5t23.5 -132 q2 -53 22.5 -69.5t79.5 -27.5q14 -2 39 0t41 -5t27 -29q14 -42 -107 -60l-90 -10q-4 -20 -9 -51t-12 -47q-20 -43 -49 -52q-4 -2 -12 -2q-14 0 -22.5 12.5t-16.5 32.5q-16 41 -39 93q-37 18 -82 18q-16 0 -37.5 -2t-31.5 -4q-31 -6 -66 -6q-53 0 -88 25.5t-47 72.5 q-6 25 -6 51zM958 352q28 -4 91 -12l94 -14q-2 20 -2 55q-4 57 -8 90q-2 12 -6.5 52t-12.5 52q-53 -37 -103 -103t-53 -120z" />
<glyph unicode="&#xbd;" horiz-adv-x="1404" d="M61 1151q0 20 13 41q92 158 297 289q41 25 69 24q31 0 49.5 -27.5t18.5 -78.5q0 -12 -4 -49q-4 -57 49 -512q6 -35 -12 -78q-6 -10 -19.5 -20.5t-23.5 -12.5q-12 0 -27.5 9t-19.5 20q-2 8 -5.5 18t-7.5 25q-6 25 -17 61.5t-22 79.5q-8 33 -14 98q-6 86 -27 181 q0 16 -10 16t-31.5 -21.5t-44.5 -48.5q-51 -63 -69 -69q-16 -6 -40 -20.5t-36 -14.5q-14 0 -35 20q-31 35 -31 70zM295 160q0 31 12 49q6 8 12.5 18.5t16.5 22.5q129 201 242 354q227 317 423 565q8 10 39 56q39 57 68 85.5t72 35.5q10 2 34 2q41 0 68 -15q35 -18 35 -53 q0 -25 -21 -51l-227 -291q-182 -236 -352 -451q-94 -115 -295 -327q-14 -16 -40 -30.5t-40 -23.5q-10 8 -26.5 17.5t-18.5 17.5q-2 6 -2 19zM870 98q0 20 13 45q23 39 45 70l22 35q80 113 131 194q8 12 14.5 34t10.5 34h-21q-33 0 -45 -4q-18 -8 -47 -25q-8 -4 -17 -9 t-22 -11q-25 -8 -45 12.5t-14 44.5q4 16 8 23q96 139 246 139q66 0 104.5 -33t38.5 -86q0 -23 -10 -53q-14 -41 -43 -81t-33 -46q-27 -41 -84 -123q-8 -12 -43 -80q90 -6 149.5 -18.5t114.5 -46.5q-8 -10 -17 -26.5t-19 -20.5q-123 -51 -310 -80q-53 -8 -98 43 q-29 35 -29 69z" />
<glyph unicode="&#xbe;" horiz-adv-x="1388" d="M61 713q-4 29 10.5 43t33 23t26.5 14q8 4 17.5 9t21.5 11q72 37 119 70q53 39 92 102q16 29 16 49q0 29 -23.5 50.5t-68.5 29.5q-14 4 -51 8l-53 11q-20 6 -31.5 19t-11.5 30q0 18 14 32q8 10 37 31l35 31q8 8 10 26.5t4 30.5q-72 8 -129 21q-18 2 -29.5 14t-11.5 27 q0 14 10 24q31 29 89.5 46.5t117.5 17.5q51 0 90 -17q33 -14 55.5 -44.5t22.5 -61.5q0 -16 -4 -25q-16 -39 -47 -86l-23 -37q55 -53 81 -96t26 -86q0 -63 -68 -153q-53 -70 -147 -140q-55 -41 -131 -41q-45 0 -99 17zM100 160q0 31 13 49l53 80q139 213 215 315 q262 362 424 565q8 10 39 56q39 57 67.5 85.5t71.5 35.5q12 2 35 2q41 0 69 -15q33 -20 33 -53q0 -25 -20 -51q-74 -94 -109 -142q-514 -653 -471 -600q-59 -74 -135 -156.5t-102 -111.5l-56 -59q-14 -14 -39.5 -28.5t-40.5 -25.5q-10 6 -26.5 15.5t-18.5 19.5q-2 6 -2 19z M612 285q0 16 2 24q12 39 77 133.5t140.5 176t122.5 98.5h7q10 0 49 -17q6 -4 33.5 -73.5t51 -150.5t23.5 -132t21.5 -68.5t81.5 -27.5q14 -2 37.5 0t40 -5t26.5 -30q19 -41 -104 -59l-93 -11q-2 -12 -6 -44.5t-14 -53.5q-6 -16 -19.5 -31.5t-27.5 -19.5q-4 -2 -12 -2 q-25 0 -39 45l-39 92q-37 18 -82 18q-16 0 -38 -2t-32 -4q-35 -6 -67 -6q-51 0 -86 25.5t-48 72.5q-6 25 -6 52zM770 285l92 -15l92 -12l-6 72q-4 66 -6 73q0 6 -3 48.5t-13 56.5q-53 -37 -103.5 -103.5t-52.5 -119.5z" />
<glyph unicode="&#xbf;" horiz-adv-x="1144" d="M166 68q4 231 194 376q131 98 205 224.5t109 283.5q2 12 7 29.5t9 26.5q74 -9 117 -43.5t47 -85.5q2 -31 -10 -62q-37 -100 -65.5 -164.5t-65.5 -128.5q-29 -45 -113 -127q-39 -37 -57 -57l-29 -33q-84 -90 -115 -137q-72 -109 -61 -229q6 -88 57 -177q31 -51 79 -78.5 t106 -21.5q55 4 90 -13.5t61 -58.5l43 -51q-39 -37 -86 -41q-27 -2 -51.5 4.5t-45 14.5t-26.5 10q-203 70 -329 244q-57 80 -68 196q-4 49 -2 99zM812 1281q-38 40 5 110q2 10 12.5 20t12.5 12q39 6 91 -28.5t58 -65.5q4 -24 -26.5 -60t-53.5 -38q-6 0 -33.5 5t-65.5 45z " />
<glyph unicode="&#xc0;" horiz-adv-x="1497" d="M102 254q0 27 23 78l371 835q4 8 4 19q0 12 -5.5 26.5t-11.5 18.5q-39 25 -39 55q0 25 35 72l6 6q16 29 29 53q20 45 38.5 67.5t53.5 22.5q14 0 23 -2q78 -16 134 -72.5t89 -140.5q78 -201 122 -300t75 -126q33 -39 34 -41q41 -59 74 -133q35 -76 68 -164l170 -473 l-41 -45q-6 -6 -19.5 -21.5t-24 -21.5t-18.5 -6q-29 4 -60.5 28.5t-41.5 51.5q-47 115 -86 227q-57 162 -86 228q-16 43 -39 61t-53 18q-33 0 -84 -22q-43 -18 -54 -23q-68 -31 -174 -50t-146 -44.5t-62.5 -62.5t-51.5 -103q-20 -47 -47.5 -73.5t-66.5 -26.5q-23 0 -45 8 q-49 16 -71 32.5t-22 43.5zM414 1827l24 53q14 35 15.5 29t19.5 4q6 4 23 4q20 0 51 -11.5t57 -27.5q125 -78 291 -209q51 -39 51 -92t-33 -64q-12 -27 -59 -26q-45 24 -99.5 59t-122 92.5t-124.5 90.5q-23 20 -70 51q-20 43 -24 47zM514 653q117 17 222.5 41.5t105.5 59.5 q0 25 -53.5 140.5t-104.5 174.5z" />
<glyph unicode="&#xc1;" horiz-adv-x="1740" d="M102 233q47 252 83 419t83 331q23 78 57.5 152.5t94.5 193.5q27 49 47 90q16 35 71.5 73t116 61.5t93.5 17.5q121 -25 180 -83t82 -175q37 -174 106 -441l23 -88q14 -51 47 -84q43 -43 63.5 -90t22.5 -110q2 -31 18.5 -62.5t48.5 -79.5q29 -41 43 -65q72 -121 148 -262 q2 -4 2 -11q0 -12 -3 -26t-5 -33q-25 12 -49 19q-55 18 -72 38q-195 211 -313 363q-35 41 -68 55.5t-86 9.5q-98 -8 -150 -8q-121 0 -217 23q-33 8 -61 8q-43 0 -65.5 -23.5t-34.5 -76.5q-37 -137 -82 -201q-14 -20 -50 -35.5t-65 -15.5q-14 0 -21 2q-29 10 -60.5 50 t-27.5 64zM475 1747q12 31 62 57q76 41 149 94l133 97q70 51 127 22q16 -8 35 -26q57 -61 60 -81t-19 -40q-31 -53 -144.5 -128t-218 -107.5t-139.5 -5t-43 43.5q-18 37 -2 74zM487 690l435 -10q-90 248 -174 506q-104 0 -141.5 -101.5t-68 -186.5t-42 -140.5t-9.5 -67.5z " />
<glyph unicode="&#xc2;" horiz-adv-x="1386" d="M102 395q0 14 11.5 24.5t40.5 31.5l10 8q84 57 119 119q70 129 166 325l143 281q20 41 82 133l24 37q6 12 16.5 27.5t22.5 35.5q59 98 154 99q29 0 65 -11q57 -16 83 -59t36 -111l66 -389l55 -325q8 -55 29 -166l57 -349q2 -10 2 -26q0 -53 -27 -82q-27 -37 -86 -37 q-45 0 -72.5 27.5t-37.5 87.5l-17 84q-12 59 -38 217q-8 72 -48 100q-8 4 -28 4q-39 0 -125 -8q-59 -6 -80 -6q-74 4 -96 4q-80 0 -120 -15.5t-56.5 -42t-30.5 -81.5q-27 -84 -41 -115q-16 -35 -47 -57.5t-68 -26.5q-8 -2 -24 -2q-61 0 -101 45q-10 10 -13 30.5t-5 41.5 l-2 22q0 8 4 29q4 20 4 29q0 14 -6 22q-20 27 -21 45zM543 604l415 12l-96 582zM653 1636q0 20 19 39l82 70l120 104q43 33 80 33q66 0 103 -76q35 -68 51 -114q2 -6 2 -17q0 -14 -11.5 -25.5t-29.5 -15.5q-43 -6 -74 23q-6 4 -30 35l-33 34l-101 -98q-39 -39 -94 -43h-8 q-27 0 -51 14q-25 12 -25 37z" />
<glyph unicode="&#xc3;" horiz-adv-x="1636" d="M102 162q0 23 13 47q88 178 247.5 460.5t313 512t229.5 262.5q51 23 103 22q63 0 116.5 -32.5t81.5 -92.5q23 -47 52.5 -259t39.5 -339q0 -72 14.5 -187.5t43.5 -303.5q6 -47 17 -125t9 -92q-2 -35 -24.5 -54.5t-54.5 -19.5q-8 0 -29 4q-49 10 -87 122t-73 249 q-4 20 -93 28.5t-216 8.5q-78 0 -149.5 -3t-90.5 -8q-80 -16 -114 -83q-39 -76 -97 -173q-41 -70 -108 -69q-61 0 -113 55q-31 35 -31 70zM588 584q41 6 80 6q57 0 172 -21q14 -2 67.5 -10t98.5 -8q35 0 71 6q0 39 -2 59q-4 424 -41 607q-39 -6 -134 -138.5t-193.5 -293 t-118.5 -207.5zM707.5 1766.5q-5.5 13.5 1.5 19.5q72 72 127 112q29 23 73 23q23 0 43 -6q78 -25 133 -51q18 -10 44 -25.5t47.5 -24t46.5 -8.5q37 0 61.5 13.5t35.5 29t34 49.5q23 35 71 35q35 0 66 -18q43 -25 43 -66q0 -25 -18 -49q-39 -53 -113 -85t-156 -32 q-49 0 -96 13q-31 8 -111 41l-51 24l-39 19q-90 -37 -129 -51q-18 -8 -43 -9q-33 0 -55 23q-10 10 -15.5 23.5z" />
<glyph unicode="&#xc4;" horiz-adv-x="1433" d="M102 395q0 14 11.5 24.5t40.5 31.5l10 8q84 57 119 119q70 129 166 325l143 281q20 41 82 133l24 37q6 12 16.5 27.5t22.5 35.5q59 98 154 99q29 0 65 -11q57 -16 83 -59t36 -111l66 -389l55 -325q8 -55 29 -166l57 -349q2 -10 2 -26q0 -53 -27 -82q-27 -37 -86 -37 q-45 0 -72.5 27.5t-37.5 87.5l-17 84q-12 59 -38 217q-8 72 -48 100q-8 4 -28 4q-39 0 -125 -8q-59 -6 -80 -6q-74 4 -96 4q-80 0 -120 -15.5t-56.5 -42t-30.5 -81.5q-27 -84 -41 -115q-16 -35 -47 -57.5t-68 -26.5q-8 -2 -24 -2q-61 0 -101 45q-10 10 -13 30.5t-5 41.5 l-2 22q0 8 4 29q4 20 4 29q0 14 -6 22q-20 27 -21 45zM520 1657l55 92q63 2 112.5 -28.5t49.5 -69.5q0 -6 -4 -19q-8 -18 -33.5 -36.5t-40.5 -14.5q-31 8 -60.5 26.5t-35.5 22.5q-14 10 -43 27zM543 604l415 12l-96 582zM1071 1622q20 8 74 35q25 12 46 20.5t38 8.5 q45 -5 73.5 -32.5t28.5 -72.5q0 -37 -20.5 -56.5t-50.5 -19.5q-16 0 -33 6q-35 12 -88 60q-51 41 -68 51z" />
<glyph unicode="&#xc5;" horiz-adv-x="1484" d="M102 162q0 23 13 47q88 178 247.5 460.5t313 512t229.5 262.5q51 23 103 22q63 0 116.5 -32.5t81.5 -92.5q23 -47 52.5 -259t39.5 -339q0 -71 14.5 -187t43.5 -304q6 -47 17 -125t9 -92q-2 -35 -24.5 -54.5t-54.5 -19.5q-8 0 -29 4q-49 10 -87 122t-73 249 q-4 20 -93 28.5t-216 8.5q-78 0 -149.5 -3t-90.5 -8q-80 -16 -114 -83q-39 -76 -97 -173q-41 -70 -108 -69q-61 0 -113 55q-31 35 -31 70zM588 584q41 6 80 6q57 0 172 -21q14 -2 67.5 -10t98.5 -8q35 0 71 6q0 39 -2 59q-4 424 -41 607q-39 -6 -134 -138.5t-193.5 -293 t-118.5 -207.5zM854 1724q0 70 40 122t116 79q18 6 37 6q45 0 100 -41q14 -10 40.5 -20t43.5 -19q16 -8 32.5 -20t18.5 -25q16 -74 16 -110q0 -55 -26 -103q-47 -76 -103 -94q-26 -10 -59 -10q-72 0 -144.5 37t-91.5 96q-20 53 -20 102zM979 1726q2 -20 12 -43.5t23 -35.5 q18 -18 63 -19q27 0 53.5 9.5t40.5 23.5q39 47 39 84q0 14 -10 39q-6 4 -23.5 21.5t-25.5 15.5q-47 -4 -115 -33q-18 -8 -33.5 -25.5t-23.5 -36.5z" />
<glyph unicode="&#xc6;" horiz-adv-x="2134" d="M102 127q0 35 21 86l55 127q150 346 260.5 582.5t243.5 470.5q63 115 158 114q29 0 53 -8q45 -10 76 -10q49 0 105 12t75 17q111 20 164 32q33 6 82 16.5t114 20.5q61 8 90 8q82 0 140 -43q16 -12 28.5 -31.5t10.5 -35.5q0 -16 -15.5 -34.5t-31.5 -27.5q-20 -10 -74 -18 l-53 -12l-78 -19q-174 -45 -234 -65q-80 -29 -207 -88l-73 -33q-4 -70 -4 -107q0 -211 59 -430q43 -8 133 -8q139 0 479 27l111 8h14q35 0 49 -12q18 -12 33 -30t17 -34q4 -16 -8.5 -38.5t-26.5 -26.5q-35 -12 -400 -68q-309 -49 -321 -55q-14 -6 -24.5 -26.5t-12.5 -39.5 q-2 -14 10.5 -92t22.5 -80q43 -10 102 -10q53 0 108.5 9t131.5 26q98 20 147 26q49 8 108.5 10.5t76.5 2.5h53q57 0 98 -18.5t64 -67.5q-10 -49 -43 -67.5t-86 -27.5q-86 -14 -258 -34q-86 -8 -129 -15q-63 -8 -144 -8q-96 -4 -150.5 -10t-111.5 -25q-18 -6 -35 -6 q-125 0 -190 352q-8 43 -26.5 59.5t-45.5 16.5q-16 0 -44 -6t-48 -8q-16 -2 -41 -8.5t-43 -6.5h-96q-53 0 -84 -15t-51.5 -64.5t-26.5 -151.5q-2 -23 -17.5 -53.5t-23.5 -46.5q-47 -27 -86 -27q-14 0 -47 8q-37 8 -64 10q-39 49 -39 107zM518 571q94 -22 170 -22 q74 0 117 21.5t35 62.5l-13 90q-4 29 -27.5 200t-37.5 212q-41 -41 -93.5 -155t-95.5 -234.5t-55 -174.5z" />
<glyph unicode="&#xc7;" horiz-adv-x="1361" d="M102 901q0 119 23 250q20 121 135 250q41 45 127 68.5t193 23.5q117 0 219 -26.5t149 -73.5q27 -27 33 -41q8 -29 8 -45q0 -12 -6 -23q-12 -18 -33.5 -32.5t-40.5 -14.5q-25 0 -56.5 11.5t-39.5 13.5q-51 14 -127 14q-131 0 -236.5 -47t-121.5 -137q-23 -123 -23 -232 q0 -246 107 -473q76 -154 276 -154q86 0 170 23t184 63l54 25q45 23 78 33q16 4 22 4q31 0 49.5 -25.5t11.5 -60.5q-14 -74 -86 -111q-82 -43 -170 -82l-81 -39q10 -29 20 -52t18 -42q43 -102 56 -145q14 -45 14 -94q0 -96 -54 -173t-138 -126q-49 -29 -111 -29 q-53 0 -98 14q-18 4 -28.5 21.5t-10.5 36.5q0 20 10 30q8 10 24.5 24.5t26.5 27.5q8 8 33 31.5t39 47.5q47 76 47 146q0 102 -100 170q-55 37 -133 110q-57 53 -93 83t-82 53q-72 39 -133 165q-125 250 -125 539z" />
<glyph unicode="&#xc8;" horiz-adv-x="1601" d="M102 821q4 2 15 2l-2 74q0 23 2 35q35 162 49 162q86 -6 139 -17.5t88 -44.5q49 -43 92 -62.5t93 -19.5q29 0 59 6q94 18 252 23l104 6q66 4 106 -29.5t44 -91.5q2 -23 -43 -56.5t-82 -39.5q-207 -35 -475 -49q-127 -6 -127 -105v-10q0 -10 4 -31q39 -160 117 -358 q29 -74 106 -74q41 0 102 21q145 45 429 147l165 60q6 2 29 12t43 10q35 0 66 -47q22 -32 22 -65q0 -27 -16.5 -46.5t-42.5 -31.5q-68 -31 -164 -82q-160 -82 -267.5 -125t-230.5 -49q-141 -8 -275 64.5t-230.5 199.5t-131.5 276q-20 86 -28 230zM272 1231q0 47 23 76 q55 74 138 101.5t188 27.5q207 0 458 -52q41 -8 111 -65q16 -10 26.5 -18.5t18.5 -14.5l-14 -49l-91 -8q-102 -12 -157 -12q-39 0 -58 2q-41 4 -59 4q-143 0 -305 -84q-49 -25 -102 -25q-49 0 -94.5 21.5t-73.5 60.5q-8 10 -9 35zM418 1765q0 16 6 31q20 49 35.5 69.5 t54.5 34t117 9.5l18 26l113 -49q201 -84 307 -147q43 -27 43 -43q0 -10 -10 -21.5t-25 -21.5q-27 -20 -39 -37q-43 -53 -112 -53q-31 0 -72 12q-158 53 -303 84q-64 12 -98.5 41t-34.5 65z" />
<glyph unicode="&#xc9;" horiz-adv-x="1517" d="M102 651l2 203q0 27 5 84l2 80q0 20 -5 65q-2 12 -2 33q0 72 42 112t116 40q27 0 41 -2t45 -2q29 0 67 4t54 6q74 12 111 12l299 2q244 0 434 -8q16 0 32.5 -14.5t36.5 -40.5l33 -37q-14 -10 -38.5 -34t-45.5 -28q-51 -8 -157 -16q-115 -8 -177 -18 q-174 -29 -285.5 -51.5t-222.5 -53.5q-16 -4 -28 -24.5t-29 -61.5q-8 -25 -22 -53l34 -25l455 103q25 4 37 4q53 0 98 -30t53 -77q4 -23 -17 -56.5t-44 -41.5q-147 -49 -311 -98l-264 -84q-18 -6 -36 -28.5t-16 -39.5q0 -68 27 -182q14 -74 57 -113t109 -39q31 0 47 4 q162 35 446 109l244 61q70 -39 70 -86q0 -61 -121 -129q-221 -123 -537 -153q-18 -2 -57 -2q-145 0 -270 66.5t-206 187t-97 274.5q-8 80 -9 178zM686 1616q0 25 8 43q16 43 54 129l61 154q20 51 42.5 81.5t57.5 30.5q10 0 35 -8q55 -25 135 -98q14 -14 39 -35 q2 -57 -53 -156.5t-128 -180.5t-110 -87q-55 -8 -98 32t-43 95z" />
<glyph unicode="&#xca;" horiz-adv-x="1517" d="M102 651l2 203q0 27 5 84l2 80q0 20 -5 65q-2 12 -2 33q0 72 42 112t116 40q27 0 41 -2t45 -2q29 0 67 4t54 6q74 12 111 12l299 2q244 0 434 -8q16 0 32.5 -14.5t36.5 -40.5l33 -37q-14 -10 -38.5 -34t-45.5 -28q-51 -8 -157 -16q-115 -8 -177 -18 q-174 -29 -285.5 -51.5t-222.5 -53.5q-16 -4 -28 -24.5t-29 -61.5q-8 -25 -22 -53l34 -25l455 103q25 4 37 4q53 0 98 -30t53 -77q4 -23 -17 -56.5t-44 -41.5q-147 -49 -311 -98l-264 -84q-18 -6 -36 -28.5t-16 -39.5q0 -68 27 -182q14 -74 57 -113t109 -39q31 0 47 4 q162 35 446 109l244 61q70 -39 70 -86q0 -61 -121 -129q-221 -123 -537 -153q-18 -2 -57 -2q-145 0 -270 66.5t-206 187t-97 274.5q-8 80 -9 178zM446 1468q0 6 5 19q25 68 55 129q20 41 51 62.5t66 21.5q49 0 90 -35q102 -86 151 -131l76 -66q20 -18 21 -41q0 -29 -27 -43 q-39 -18 -66 -16q-61 2 -108 47q-31 33 -113 111l-37 -39q-27 -31 -32 -37q-33 -33 -84 -27q-21 2 -34.5 15.5t-13.5 29.5z" />
<glyph unicode="&#xcb;" horiz-adv-x="1427" d="M102 1393q0 39 31 54t119 28q141 20 387 20l131 2q51 2 114.5 -1t88.5 -3q82 -4 125 -4q129 -4 129 -119q0 -88 -115 -98q-180 -16 -270 -23q0 4 -2 6l-109 -6q-35 -2 -89 -6t-128 -6q-45 -4 -66.5 -18.5t-21.5 -51.5q0 -14 2 -22q6 -25 5 -57.5t-1 -45.5q0 -41 22.5 -56 t69.5 -13q35 2 103 2q78 0 116 -2q29 0 73 -1t102 1q57 0 172 16q16 2 43.5 11.5t40.5 3.5q35 -16 108 -70l37 -27l-25 -39q-29 -57 -53 -63q-68 -16 -147.5 -26.5t-98.5 -12.5l-84 -10l-161 -19q-143 -16 -215 -26q-14 -2 -30 -19.5t-22 -36.5q-4 -10 -4 -34q0 -18 4 -52 q2 -14 4 -35.5t2 -33.5q6 -72 14.5 -109t33.5 -55q20 -18 69 -19q33 0 111 13l57 8q51 4 133 16q14 2 93 12.5t151 6.5q43 -2 91 -37t73 -76q10 -21 10 -33q0 -29 -29.5 -46t-70.5 -25q-180 -35 -359 -56q-104 -10 -177 -34.5t-132 -88.5q-33 -33 -82 -32q-61 0 -118.5 46 t-71.5 115q-49 213 -88 506q-18 131 -43 398l-19 196q-4 53 -8 66q-25 94 -25 121zM279 1729q0 18 6 32q8 23 28 29q25 6 45 6q45 0 105 -24q31 -12 48 -36t28 -61q-51 -53 -119 -53q-37 0 -92 18q-21 9 -35 34.5t-14 54.5zM844 1659q0 27 12 45q20 29 57 29q14 0 21 -2 q70 -12 109.5 -36t52.5 -89q-23 -27 -50.5 -36t-53 -11.5t-36.5 -4.5q-47 -3 -96 54q-16 20 -16 51z" />
<glyph unicode="&#xcc;" horiz-adv-x="679" d="M-98 1651v26q12 59 51 101.5t84 42.5q16 0 26 -4q160 -125 367 -234q14 -4 44 -33.5t3 -66.5q-49 -94 -76 -94q-16 0 -43 12q-61 31 -138 58.5t-97 35.5l-127 47q-45 20 -69.5 44t-24.5 65zM188 1044q0 49 54 60q23 6 49 6q47 0 88 -21.5t72 -64.5q31 -47 34 -88 q29 -178 29 -268v-68v-72v-288q-2 -72 -2 -215q0 -25 -15.5 -53.5t-35.5 -41.5q-31 -18 -74 -18q-25 0 -47 6q-14 4 -23.5 29.5t-13.5 54.5q-33 309 -86 854q-8 57 -10 94q-2 18 -10.5 48t-8.5 46z" />
<glyph unicode="&#xcd;" horiz-adv-x="702" d="M102 1118q2 94 91 94q61 0 86 -45q37 -63 51 -123q20 -80 24 -165q17 -460 21 -689q2 -68 -13 -167q-6 -53 -38.5 -82t-87.5 -29q-76 0 -109 86q-16 47 -21 129v158v313h-2v420zM119 1380q0 29 14 45q94 102 184.5 170t198.5 101q16 4 29 4q35 0 47 -27q8 -14 8 -37 q0 -16 -6 -32q-10 -33 -45 -72q-90 -102 -184 -203q-45 -45 -136 -51q-59 27 -84 43q-27 18 -26 59z" />
<glyph unicode="&#xce;" horiz-adv-x="1005" d="M102 1348q0 35 27 61l111 109q63 66 108 105.5t98 70.5q45 25 91 24q41 0 77.5 -22.5t63.5 -65.5l27 -47q12 -23 40 -67q35 -57 78 -121l47 -72l27 -41q6 -13 6 -25q0 -23 -14.5 -38t-36.5 -15q-88 -4 -133 60q-20 29 -86 127l-43 63q-23 37 -58 84q-12 -6 -32.5 -15.5 t-28.5 -17.5q6 6 -96 -114q-20 -29 -33 -43l-70 -93l-41 7q-53 8 -81 18q-23 8 -35.5 26.5t-12.5 41.5zM354 1092q0 55 33 86.5t86 31.5q18 0 27 -2q84 -10 123 -55t39 -133q0 -356 -27 -776q-8 -102 -64 -248q-10 -31 -57 -66q-25 -18 -51 -18q-25 0 -44.5 19.5t-23.5 52.5 q-6 55 -6 170v106v213v68v151q0 223 -31 361q-4 29 -4 39z" />
<glyph unicode="&#xcf;" horiz-adv-x="1208" d="M102 1386q0 33 27 58q45 45 104 45q27 0 50 -8q59 -20 114 -64q15 -10 26 -34.5t17 -36.5l-18 -36t-25 -34q-47 -41 -112 -41q-57 0 -106.5 32.5t-69.5 86.5q-6 16 -7 32zM559 934q-2 68 12 168q6 53 39 81.5t88 28.5q76 0 109 -86q20 -59 20 -129v-157v-314h2v-420 l2 -100q-2 -94 -90 -94q-61 0 -86 45q-37 63 -51 123q-20 84 -24 166q-16 459 -21 688zM813 1346q0 12 2 18q10 49 78 78q12 6 24.5 8t16.5 2q61 4 116.5 -40t55.5 -99q0 -41 -31 -72q-29 -33 -63 -33q-18 0 -27 4q-10 4 -49 19.5t-70 34.5q-53 35 -53 80z" />
<glyph unicode="&#xd0;" horiz-adv-x="1796" d="M102 674q0 55 88 71q31 6 53.5 11.5t39.5 9.5q37 10 82 20q8 47 -3.5 125t-15.5 175.5t-43 164.5q-29 33 -63 78q0 51 33.5 94t95.5 52q106 12 219 12q41 0 123 -4q268 -14 596 -107q117 -33 233 -114q76 -58 115 -129.5t39 -153.5q0 -72 -31 -150q-84 -195 -180 -313 q-254 -311 -529 -500q-63 -43 -104 -59q-33 -12 -59 -12q-31 0 -62 16t-82 55q16 10 51 37t66 41q184 98 317 253t281 392q31 47 49 131q8 33 8 68q0 74 -38 129t-111 82q-213 84 -502 84l-74 -2q-12 0 -29.5 -12.5t-29.5 -18.5q-27 -23 -27 -67q0 -72 -2 -156t12 -199 q49 -23 132.5 -25.5t169.5 -4.5q92 0 157.5 -10.5t124.5 -49.5q-80 -115 -219 -127q-37 -4 -55 -4q-76 -6 -144.5 -17.5t-119.5 -11.5q-2 -20 6 -79.5t8 -98.5l2 -96q0 -68 -25.5 -105.5t-72.5 -37.5q-74 0 -119 77q-18 29 -25.5 68t-9.5 47q-16 74 -22 113l-13 65 q-20 6 -61 15l-82 22q-74 25 -105 55q-18 20 -30.5 48t-12.5 53z" />
<glyph unicode="&#xd1;" horiz-adv-x="1288" d="M35 100q0 379 153 850q18 57 70.5 102.5t99.5 45.5h11q74 -10 117.5 -39t66.5 -80q37 -82 168 -369l55 -61l2 74l78 448q10 76 25 143q8 41 35.5 65t66.5 24q55 0 84 -33q25 -33 20 -84l-12 -133q-12 -131 -20 -187q-31 -326 -64 -573q-2 -31 -28.5 -64.5t-51.5 -42.5 q-35 -10 -59 -10q-43 0 -79 19.5t-62 56.5q-53 74 -170 280q-18 33 -170 242l-21 -205q-14 -88 -53 -370l-16 -117q-8 -61 -36 -87t-85 -26q-72 0 -98.5 28t-26.5 103zM156 1348q49 219 217 350q45 35 116 35q127 0 252 -146l17 -14l10 20l33 54q33 55 85 127.5t81 83.5 q20 6 45 6q41 0 73 -21q15 -10 26 -38.5t7 -43.5q-20 -57 -45 -127q-20 -59 -44.5 -123.5t-55.5 -124.5q-6 -14 -47 -33.5t-62 -19.5q-104 6 -205.5 62.5t-175.5 132.5q-96 -156 -116 -195q-53 -90 -109 -90q-12 0 -33 8q-25 10 -49 45t-20 52z" />
<glyph unicode="&#xd2;" horiz-adv-x="1591" d="M102 764q0 211 97 373q57 98 133 152t180 54q41 0 61 -4q57 -8 128 -11t94 -5q123 -4 184 -10q113 -12 200 -80t160 -174q31 -45 54.5 -94.5t52.5 -120.5l43 -101l-29 -14q6 -125 -54 -264t-168 -252t-237 -160q-131 -49 -256 -49q-260 0 -454 207q-63 66 -106.5 163 t-63.5 201q-18 92 -19 189zM406 600q0 -80 4 -121q8 -127 77.5 -197.5t178.5 -70.5q53 0 125 22q112 37 204 123t143.5 201t45.5 234q-12 195 -51 287.5t-124 129.5t-259 49q-18 2 -39 3q-25 -29 -68 -72q-16 -20 -33.5 -39t-34.5 -37q-57 -66 -77 -102q-92 -170 -92 -410z M569 1608q0 20 13 45q37 63 100 63q12 0 18 -2q117 -14 158 -88q27 -49 72 -147l35 -76q-16 -33 -38 -45t-50 -12q-88 0 -156 61q-41 41 -119 127q-33 37 -33 74z" />
<glyph unicode="&#xd3;" horiz-adv-x="1263" d="M102 614q-2 205 61.5 347.5t190.5 252.5q92 80 195 80q70 0 135 -32q201 -98 323.5 -258t149.5 -383q4 -27 4 -80q0 -152 -68.5 -276t-178 -193.5t-226.5 -69.5q-39 0 -84 10q-10 2 -69.5 15.5t-108.5 38.5q-172 74 -243.5 218t-80.5 330zM307 590q0 -80 23 -158 q14 -51 70.5 -99t129 -78t129.5 -30q29 0 41 4q90 25 171 122.5t106 201.5q12 53 12 102q0 123 -69.5 230.5t-200.5 195.5q-27 -18 -125 -30q-39 -6 -73 -13.5t-44 -17.5q-80 -74 -125 -190.5t-45 -239.5zM360 1470q0 39 43 76q96 82 259 195q18 14 45.5 23.5t33.5 11.5 t45 16q16 -10 43 -25.5t37 -33.5q14 -20 15 -52q0 -35 -23 -67q-10 -16 -22 -27q-25 -20 -35 -33q-154 -137 -211 -180q-41 -33 -82 -33q-45 0 -98 43q-50 41 -50 86z" />
<glyph unicode="&#xd4;" horiz-adv-x="1175" d="M102 827h4v19v39q0 57 3 86q6 94 71 114q55 16 88 52.5t66 101.5q29 57 62.5 82t84.5 25q37 0 76 -9q184 -43 301 -166q105 -110 160 -249.5t55 -288.5q0 -145 -50 -282.5t-146 -252.5q-80 -94 -215 -94q-47 0 -95 8q-168 25 -268 166q-66 92 -102.5 172t-49.5 162 q-10 66 -32 231zM195 1436q0 29 20 51q102 119 182 199q74 70 142 69q78 0 166 -84q55 -53 103 -121.5t56 -81.5l56 -77q12 -18 6 -35q-10 -18 -39 -29q-29 -4 -41 -4q-57 0 -101 43q-39 39 -79 86q-25 23 -58 64l-43 49l-12 14l-12 -14l-45 -54q-45 -59 -76 -92 q-47 -47 -117 -47q-12 0 -41 4q-53 10 -65 43q-2 6 -2 17zM362 721q0 -174 80 -365q27 -59 56.5 -97t93.5 -60l10 -4l8 6q193 135 221 415q5 29 5 84q0 233 -144 408q-68 80 -135 80q-63 0 -137 -76l-31 -35l-16 -20l-4 -6v-9v-73q2 -27 2 -84t-4 -86q-4 -53 -5 -78z" />
<glyph unicode="&#xd5;" horiz-adv-x="1361" d="M102 555q0 31 2 45v105q4 123 91 153q45 16 68.5 43t62.5 88q4 4 6 8t4 9l29 36q66 86 120 129t142 43q161 0 282 -42t207 -154q115 -150 115 -305q0 -104 -47 -207q-113 -256 -307 -393q-152 -109 -306 -109q-133 0 -241.5 80t-165.5 211q-61 147 -62 260zM203 1391 q0 49 35 77q90 76 163 109q115 51 236 51q86 0 168 -24q86 -27 121 -27q45 0 72.5 28.5t66.5 104.5q2 4 10 11.5t15 13.5q18 8 40 8q39 0 80 -31q50 -37 50 -90q0 -27 -13 -57q-33 -82 -96.5 -125t-144.5 -43q-31 0 -66 6q-74 16 -111 31q-74 29 -137 28q-123 0 -229 -100 q-66 -63 -127 -68q-10 -2 -33 -2q-55 0 -84 41q-16 27 -16 58zM342 524q0 -16 2 -38.5t4 -57.5l29 -66q57 -129 82 -176q14 -25 39.5 -39t56.5 -14q33 0 61 17q51 29 105 71q76 63 125 143t108 209l35 76q35 72 35 144q0 152 -164 307q-39 39 -92 39q-49 0 -96 -37 q-129 -102 -207 -241.5t-121 -315.5q-2 -6 -2 -21z" />
<glyph unicode="&#xd6;" horiz-adv-x="1265" d="M102 614q-2 205 61.5 347.5t190.5 252.5q92 80 195 80q70 0 135 -32q201 -98 323.5 -258t149.5 -383q4 -27 4 -80q0 -152 -68.5 -276t-178 -193.5t-226.5 -69.5q-39 0 -84 10q-10 2 -69.5 15.5t-108.5 38.5q-172 74 -243.5 218t-80.5 330zM254 1430q0 31 20 51 q29 25 48 24q6 0 18 -4q10 -4 38 -15t46 -24q39 -23 39 -57q0 -27 -14.5 -41t-42.5 -29q-10 -2 -17.5 -3t-11.5 -3q-37 -2 -72 20.5t-47 53.5q-4 8 -4 27zM307 590q0 -80 23 -158q14 -51 70.5 -99t129 -78t129.5 -30q29 0 41 4q90 25 171 122.5t106 201.5q12 53 12 102 q0 123 -69.5 230.5t-200.5 195.5q-27 -18 -125 -30q-39 -6 -73 -13.5t-44 -17.5q-80 -74 -125 -190.5t-45 -239.5zM729 1405q4 8 12.5 25.5t18.5 25.5q35 29 82 29q41 0 75.5 -22.5t49.5 -61.5q4 -16 4 -23q0 -25 -19 -43q-33 -33 -75 -32q-16 0 -35 6q-41 14 -82 45 q-10 6 -18.5 24.5t-12.5 26.5z" />
<glyph unicode="&#xd7;" horiz-adv-x="1232" d="M102 1112q0 12 9 27q12 23 51 22q29 0 49 -12q106 -70 154 -123q47 -51 106 -141l49 -70q8 -10 26.5 -36.5t39 -46t45.5 -32.5q18 23 59 64q47 47 72.5 81t38.5 79q4 16 16 29.5t24.5 23.5t16.5 12q16 14 41 30.5t37 24.5q49 33 70 33q14 0 31.5 -9t37.5 -26 q37 -27 37 -69q0 -33 -27 -60q-25 -27 -118 -116l-224 -215q35 -47 80 -83t117 -83q78 -53 117 -84t73 -76q-12 -4 -27.5 -9t-25.5 -5q-12 2 -25.5 10t-17.5 10l-125 72q-135 78 -202 119q-33 20 -54 20q-23 0 -57 -27l-100 -77q-37 -31 -62 -31t-80 37l168 221 q-10 12 -26 37l-246 291l-109 125q-6 8 -16 19t-16.5 21.5t-6.5 22.5z" />
<glyph unicode="&#xd8;" horiz-adv-x="1103" d="M102 547q0 57 13 119q4 14 6 37.5t4 39.5q18 135 112.5 247t221.5 149q39 12 106 12q70 2 92 72l15 49q14 53 20 69q12 37 43 58.5t70 21.5q47 0 78 -28q29 -25 28 -60q0 -18 -4 -26l-57 -144q-16 -43 -16 -76q0 -47 32 -86q14 -14 25.5 -35.5t15.5 -29.5 q94 -162 94 -338q0 -164 -81 -338q-98 -219 -332 -250l-47 -6l-45 -12l-19 -37q-18 -39 -33 -61q-31 -41 -69 -60q-18 -10 -41 -10q-25 0 -41.5 15.5t-16.5 39.5q0 8 5 25q12 45 12 86q0 51 -18.5 98t-55.5 102q-117 174 -117 357zM291 733q0 -141 2 -213q4 -63 17.5 -111.5 t45.5 -84.5q8 4 20.5 8t14.5 10l172 600q4 21 4 42.5v27.5q-6 4 -12 9t-8 3q-121 -23 -188.5 -98.5t-67.5 -192.5zM557 219q0 -6 6 -19.5t8 -21.5q78 20 119 73.5t70 137.5q24 76 36.5 130t12.5 108q0 90 -43 170q-57 -84 -113.5 -236.5t-95.5 -337.5v-4z" />
<glyph unicode="&#xd9;" horiz-adv-x="1265" d="M102 651q0 80 15 146q6 35 39.5 73.5t60.5 40.5q31 2 63.5 -14t60.5 -34.5t36 -24.5t8 -31q0 -18 -4 -43q-20 -113 -21 -199q0 -150 56 -280q27 -63 57.5 -92t71.5 -29q49 0 114 39q170 96 223.5 247.5t47.5 370.5q-2 59 -13.5 118.5t-33.5 154.5q-18 74 -29 125 q109 -6 194 -96.5t99 -223.5q16 -120 16 -231q0 -213 -86 -369q-72 -127 -184.5 -208t-241.5 -81q-137 0 -264 90q-143 100 -214 246t-71 305zM223 1513l47 19q43 18 66 20q23 0 43 2t39 2q45 0 75.5 -19t57.5 -77q12 -27 23.5 -46t19.5 -34q49 -88 61 -127q8 -18 9 -59 q0 -27 -5.5 -50.5t-11.5 -25.5q-41 -12 -94 -12t-70 18q-47 55 -95 129t-91 146z" />
<glyph unicode="&#xda;" horiz-adv-x="1474" d="M102 709q0 84 13 170q6 45 10 137q0 31 4 92q6 78 92 137l53 -47q80 -74 78 -72q27 -27 27 -63q0 -18 -5 -42t-7 -38q-49 -299 -62 -448l-2 -33q0 -117 72 -228q29 -47 69 -47q12 0 21 2l55 15q68 16 111 30.5t80 36.5q154 90 243 207q39 49 67 112.5t54 151.5 q35 117 70 265q23 94 39 155q6 20 13 39t15 39l41 -39q61 -51 103 -98q16 -16 16 -49l-2 -17q-29 -193 -65.5 -351.5t-98.5 -303.5q-31 -78 -96 -139q-201 -197 -469 -267q-27 -8 -63 -8q-82 0 -158 45t-131 111q-186 229 -187 545zM621 1251q0 23 16 43q94 104 184 172 t199 99q6 2 13 4t18 2q33 0 45 -29q8 -20 8 -37q0 -18 -6 -30q-10 -33 -45 -72q-90 -104 -185 -203q-25 -25 -56.5 -37t-80.5 -14q-6 4 -32.5 15.5t-49.5 27.5q-14 8 -21 24.5t-7 34.5z" />
<glyph unicode="&#xdb;" horiz-adv-x="1275" d="M102 1071q-6 119 70 119q35 0 76 -21q72 -35 94.5 -85t17.5 -138q-2 -35 -2 -104q0 -295 97 -531q16 -35 44.5 -67.5t61.5 -50.5q12 -6 31 -7q25 0 49.5 8.5t34.5 20.5l33 37q70 78 106.5 129t52.5 108q43 154 82 431l25 167l-25 5v90q0 61 2 90q0 20 7.5 41.5t19.5 27.5 q14 8 41 9q29 0 39 -11q41 -47 60.5 -76.5t25.5 -62.5q29 -168 29 -326q0 -205 -50 -411q-33 -139 -116.5 -246.5t-210.5 -177.5q-57 -31 -115 -31q-96 0 -213 88q-326 246 -346 649q-4 109 -21 326zM195 1417q0 27 20 49q45 49 82 107.5t78 138.5q25 53 68.5 81t93.5 28 q86 0 147 -76q53 -68 158 -232l43 -69q16 -23 16 -49q0 -23 -18 -45q-27 -31 -66 -31q-25 0 -47 16q-23 20 -100 103q4 -4 -66 78q-25 33 -39 49q-35 -20 -55.5 -44t-35.5 -47.5t-21 -33.5q-53 -90 -172 -101q-27 -4 -48.5 8.5t-31.5 38.5q-6 16 -6 31z" />
<glyph unicode="&#xdc;" horiz-adv-x="1474" d="M102 709q0 84 13 170q6 45 10 137q0 31 4 92q6 78 92 137l53 -47q80 -74 78 -72q27 -27 27 -63q0 -18 -5 -42t-7 -38q-49 -299 -62 -448l-2 -33q0 -117 72 -228q31 -47 69 -47q12 0 21 2l55 15q68 16 111 30.5t80 36.5q154 90 243 207q39 49 67 112.5t54 151.5 q35 117 70 265q23 94 39 155q6 20 13 39t15 39l41 -39q61 -51 103 -98q16 -16 16 -49l-2 -17q-29 -193 -65.5 -351.5t-98.5 -303.5q-31 -78 -96 -139q-201 -197 -469 -267q-27 -8 -63 -8q-82 0 -158 45t-131 111q-186 229 -187 545zM334 1479l74 129q57 2 108 -17.5 t82 -52.5t31 -68q0 -16 -4 -24q-11 -25 -45.5 -50.5t-55.5 -19.5q-45 14 -131 68q-31 20 -59 35zM803 1432q59 27 94 45q41 20 66.5 30.5t48.5 10.5q63 0 105 -39t42 -103q0 -51 -26.5 -76.5t-67.5 -25.5q-27 0 -49 8q-25 8 -52.5 27.5t-47 34t-29.5 22.5z" />
<glyph unicode="&#xdd;" horiz-adv-x="1492" d="M102 1346q0 29 11 32q29 20 102 17q16 -2 45 -13.5t41 -13.5q29 -8 44 -27.5t24 -52.5q66 -268 215 -497q23 -33 86 -84q39 -27 65 -27q41 0 74 59l65 111l177 297q72 117 176 117q59 0 123 -37q41 -23 41 -60q0 -25 -25 -47q-119 -106 -206 -234t-195 -325l-27 -49 q-242 -434 -367 -647q-4 -8 -20 -38t-37.5 -46.5t-50.5 -16.5q-23 0 -35 5q-12 4 -35.5 -13.5t-36.5 -25.5l-14 10l358 829q-8 4 -22 14.5t-25 14.5q-238 70 -364 303q-59 111 -158 344l-18 43q-10 25 -11 58zM616 1294q0 18 15 33q74 86 229 254l78 86q57 70 92 98 q12 10 49 19q45 -20 71 -50t26 -65q0 -41 -37 -76q-170 -162 -355 -305q-18 -14 -43.5 -20t-50 -8.5t-31.5 -2.5q-18 -2 -30.5 9.5t-12.5 27.5z" />
<glyph unicode="&#xde;" horiz-adv-x="1077" d="M102 930q0 23 9 37l-5 276l3 76q2 25 2 76q0 68 44 111.5t109 43.5q55 0 74.5 -40t19.5 -113v-197h9v-113l45 21l168 72q35 12 96 8q158 -10 228.5 -78t70.5 -192q0 -74 -27 -185q-16 -68 -47 -134.5t-80 -154.5q-86 -162 -248 -161q-57 0 -116 20q-25 8 -47 8 q-35 0 -43 -32v-156q0 -6 2 -16.5t4 -108.5l-2 -78q-2 -25 -2 -74q0 -70 -44 -113.5t-110 -43.5q-57 0 -75.5 40t-18.5 113v68v131h-8v395q0 213 -2 395q0 20 -4.5 50t-4.5 49zM365 786q0 -225 2 -340q16 -20 41 -20q33 0 65 31q174 153 203 438q2 12 -22.5 40t-26.5 26 q-14 -8 -101.5 -61.5t-160.5 -113.5z" />
<glyph unicode="&#xdf;" horiz-adv-x="1294" d="M102 -90q0 96 11.5 190.5t33.5 239.5q12 61 17 100q14 84 37.5 158t74.5 213q29 72 35 90q27 72 82.5 120t132.5 66q16 4 39 -3t43 -15q156 -63 156 -217q0 -72 -33 -154q-23 -55 -22 -69q0 -14 13 -21.5t58 -21.5l68 -19q88 -20 149.5 -43.5t114.5 -68.5q80 -70 80 -142 q0 -49 -33 -102q-160 -270 -493 -260q-31 0 -67 22.5t-58 51.5q-10 14 -11 20q0 12 13.5 18.5t42.5 12.5l49 14q143 39 217 76q57 27 119 121q25 41 24 71q0 37 -29.5 60.5t-82.5 32.5q-68 10 -119 10q-82 0 -154 -29q-27 -12 -51 -12q-59 0 -100 69q-6 10 -6 27q0 14 8 39 l47 113q12 29 29.5 69.5t37.5 96.5q6 16 7 30q0 14 -2 27.5t-2 28.5l-23 10q-10 -14 -28.5 -37t-24.5 -39q-8 -27 -47 -127q-47 -123 -79 -217t-50 -186q-18 -98 -19 -236q0 -63 2 -96q0 -25 1 -60.5t-1 -83.5q0 -37 6 -69q0 -12 3.5 -40t0.5 -50q-2 -16 -19 -38t-32 -24 q-31 -6 -53 -6q-49 0 -70.5 30t-31.5 99q-10 88 -11 160z" />
<glyph unicode="&#xe0;" horiz-adv-x="1024" d="M102 299q0 27 16.5 55.5t51.5 67.5q158 176 348 209q41 6 125 10q41 0 64 2q2 10 4 23.5t2 31.5l-2 17q-12 82 -80 82q-16 0 -25 -2q-37 -6 -78 -19q-53 -14 -71 -16q-43 -6 -88 -6q-33 0 -50 2q-51 2 -73 67q-2 6 -2 17q0 23 13 42t38 27q82 31 146.5 47.5t127.5 16.5 q45 0 84 -8q129 -29 197 -114t70 -183q2 -102 2 -306l-2 -243q0 -19 1 -49.5t-4.5 -57t-23.5 -51.5q-86 8 -115.5 19.5t-49 43t-56.5 130.5q-10 -2 -38 -8.5t-50 -8.5q-125 -14 -217 -14q-41 0 -83 10t-73 31q-109 74 -109 135zM242 1436q0 18 16 34q18 14 42 21.5t42 3.5 q27 -4 52.5 -17.5t37.5 -31.5q88 -113 260 -182q53 -20 90 -58q12 -12 13 -39q0 -12 -4 -28q-2 -8 -14.5 -13.5t-18.5 -5.5q-135 8 -243.5 60.5t-211.5 144.5q-20 18 -45 59q-16 33 -16 52zM311 303q18 -6 45 -17.5t43 -9.5q13 3 83.5 16t125 40.5t90.5 68.5q-18 74 -98 93 q-25 4 -37 4q-43 0 -82 -25q-102 -70 -170 -170z" />
<glyph unicode="&#xe1;" horiz-adv-x="901" d="M72 332q-2 70 49 110q109 86 211 88q53 0 110 -24q29 -12 125 -53l8 55q12 72 13 115q0 66 -29 122q-31 -4 -45 -8q-51 -8 -70 -10q-84 -10 -172 -10q-25 0 -48 19.5t-21 41.5q6 33 35 72q18 23 49 27q39 6 61 8q123 25 187 24q90 0 148 -52t81 -140q12 -47 8 -107 q-2 -33 -4 -94q-2 -51 -14 -151t-15 -150q-2 -35 -2 -104l2 -213q-37 -16 -65 -17q-31 0 -62 21q-23 14 -32 34.5t-17 51.5l-14 57l-10 45q-111 -23 -131 -27q-27 -2 -43 -2q-74 0 -141.5 36t-108.5 98.5t-43 136.5zM238 326q0 -35 14 -62q16 -20 39.5 -32.5t48.5 -12.5 q8 0 27 4q47 15 78.5 33t56.5 55q-72 57 -110 79t-73 22q-14 0 -33.5 -6.5t-29.5 -18.5q-18 -20 -18 -61zM426 1090q0 23 8 36q70 121 197 207q35 23 69 21q37 -2 76 -31t41 -72t-43 -71q-16 -10 -56 -39t-77 -45q-39 -18 -121 -43l-41 -13q-12 6 -28.5 14.5t-22.5 18.5 q-2 4 -2 17z" />
<glyph unicode="&#xe2;" horiz-adv-x="1081" d="M102 182q0 47 21 90q16 39 65 103q109 131 322 229q31 14 90 14q39 2 90 -4l47 -2q16 33 17 58q0 39 -29 80q-12 -2 -39 -4.5t-45 -10.5q-33 -12 -66 -35l-43 -22q-39 -18 -79 -19q-57 0 -109 39q-27 23 -27 52q0 31 29 53q162 121 350 147l21 2q68 0 134.5 -50 t92.5 -122q35 -101 35 -164q-2 -180 -12 -366l-6 -184q-4 -66 -43 -93q-14 -12 -37 -12t-93 14l-10 82q-2 16 -7 42t-7 42q-20 -6 -47 -14t-43 -16l-76 -35q-106 -49 -162 -68q-55 -16 -110 -16q-18 0 -56 4q-78 12 -123 64.5t-45 121.5zM306 208q-1 -15 3 -20 q29 -25 51 -18q78 14 184.5 76.5t200.5 150.5q-31 4 -75 29q-18 10 -37 17.5t-37 7.5q-12 0 -21 -2q-90 -20 -155 -91q-47 -49 -109 -129q-4 -6 -5 -21zM383 1116q8 61 41 110.5t88 106.5q51 51 113 51q51 0 108 -41q100 -72 168 -194q12 -20 12 -43t-16 -41 q-25 -29 -63 -29q-27 0 -48 15q-37 23 -59 49q-12 14 -19.5 28.5t-9.5 16.5q-8 2 -22 2q-27 0 -44.5 -9.5t-34.5 -26.5t-26 -21q-55 -31 -84 -31q-45 0 -104 57z" />
<glyph unicode="&#xe3;" horiz-adv-x="1105" d="M102 309q0 78 72 170q115 145 328 146q39 0 121 -9l55 -4q18 20 18 45q0 27 -24 56q-25 37 -72 37q-16 0 -25 -2q-31 -8 -69 -23q-37 -14 -47 -16q-55 -20 -105 -21q-35 0 -61 8q-59 18 -66 76q-4 31 8.5 55.5t38.5 34.5q160 61 279 62q41 0 96 -11q80 -16 137.5 -65 t87.5 -125q18 -47 26.5 -76t8.5 -57q0 -53 13 -160q2 -20 6 -69.5t4 -90.5q0 -51 -4 -75q-2 -11 4 -64q2 -8 4 -18.5t2 -24.5q8 -72 10 -104q-37 -23 -71 -23q-37 0 -66 20.5t-80 69.5l-43 -12q-86 -27 -121 -33q-51 -10 -90 -10q-96 0 -181 43t-136 119q-57 82 -58 151z M272 1083q20 88 68 127q59 47 119 47q51 0 100 -36q78 -61 117 -84q37 -18 72 -19q33 0 71.5 12.5t50.5 16.5l31 14q23 13 39 13q33 0 64 -41q-2 -59 -58 -91q-76 -43 -160 -43q-47 0 -81 11q-33 10 -80 43q-41 29 -76 46t-76 19q-29 -6 -80 -31q-8 -4 -41 -17t-51 -13 q-27 0 -29 26zM293 287q0 -27 10 -47q20 -43 60 -58.5t96 -13.5q121 -2 231 104q27 25 27 62q0 47 -37 74q-86 70 -182 69q-92 0 -150 -69q-55 -68 -55 -121z" />
<glyph unicode="&#xe4;" horiz-adv-x="1075" d="M102 326q0 166 91 336q74 141 256 206q37 12 73 13q53 0 97.5 -25t70.5 -70q10 -16 28.5 -52t39 -62.5t45.5 -44.5q18 -12 31 -52l133 -374q6 -19 6 -35q0 -31 -25 -49q-20 -16 -47 -17q-25 0 -53 19l-68 55l-53 45q-12 -14 -43 -59l-61 -80q-100 -119 -232 -119 q-82 0 -143.5 32t-89.5 97q-47 106 -54 189q-2 16 -2 47zM190 1063q0 31 11 43q14 25 39.5 38t52.5 13q10 0 26 -4q43 -12 74 -49t33 -84q-4 -6 -17.5 -26.5t-29.5 -28.5q-25 -11 -45 -11q-41 0 -82 23.5t-57 58.5q-4 8 -5 27zM309 248q0 -68 41 -76q20 -4 46 2t40 19 q47 41 72 96q37 84 56.5 154.5t19.5 146.5q0 14 2 24q2 29 -11.5 50.5t-39.5 21.5q-29 0 -60 -27q-86 -78 -124 -181t-42 -230zM594 1079q0 39 27 64q33 29 75 28q31 0 54 -14q86 -49 94 -115q-2 -37 -27.5 -59t-54.5 -22q-97 -1 -154 71q-14 20 -14 47z" />
<glyph unicode="&#xe5;" horiz-adv-x="921" d="M102 252q0 76 52.5 159t132.5 138t155 55q27 0 61 -10t103 -41q6 117 -36 175t-140 69l-72 6q-41 2 -108 10q-31 4 -51.5 21.5t-22.5 46.5q-2 25 25.5 49t58.5 28q45 4 66 5q190 0 342 -109q72 -49 109.5 -124t41.5 -165q2 -43 2 -129q0 -70 -4 -209l-2 -104 q-2 -39 -22 -105q-8 -27 -29 -42t-47 -15q-27 0 -49 14q-10 8 -23.5 21.5t-19.5 21.5q-8 12 -14.5 22.5t-10.5 16.5l-98 -16q-12 -2 -68.5 -10t-105.5 -8q-57 0 -109.5 31.5t-84.5 83.5t-32 114zM297 250q0 -31 22.5 -50.5t53.5 -13.5q94 23 157 54q66 32 88.5 55.5 t22.5 71.5q0 29 -10 100q-37 -8 -72 -12l-88 -19q-119 -27 -170 -162q-4 -8 -4 -24zM344 1233q-2 29 23 70q12 20 59 71q41 43 68.5 61.5t62.5 18.5q33 0 94 -22q80 -31 114 -83.5t34 -150.5q-2 -10 -9.5 -44t-21.5 -60q-27 -59 -73 -91t-101 -32q-49 0 -107 28 q-133 68 -143 234zM485 1264q2 -8 2 -25q0 -45 7.5 -65.5t48.5 -26.5q2 0 10 -3t16 -3q33 0 64 49l4 24q0 29 -15.5 47.5t-33 30t-23.5 15.5q-8 6 -45 -15.5t-35 -27.5z" />
<glyph unicode="&#xe6;" horiz-adv-x="1382" d="M102 238q0 72 27 150.5t68 115.5q53 51 97 77.5t95 26.5q20 0 49 -6q12 -2 27 -10q25 -10 39 -4q10 8 10 28v39q0 61 -4 93q-2 63 -35 86q-18 12 -45 12q-25 0 -55 -8l-17 -7l-48 -12t-72 -10q-33 0 -75 14.5t-50 50.5q-2 23 28.5 47.5t61.5 30.5q94 23 166 23 q154 0 264 -98q23 -18 29 -60l4 -26l16 18q35 37 80 70q43 31 110 30q47 0 103 -18q68 -23 119 -66t65 -86q8 -29 8 -47q0 -41 -16 -57l-41 -47q-66 -74 -117 -118t-116 -67q-39 -10 -115 -18q-41 -4 -60 -8l-12 -2v-13q12 -86 70 -120q33 -20 76 -21q39 0 75 15 q51 18 115 48.5t86 41.5q37 20 55 28l4 2q35 18 54 19q23 0 39 -23q14 -17 14 -35q0 -25 -29 -49q-154 -143 -342 -143q-59 0 -131 16q-102 27 -174 125l-14 19l-8 -23q-29 -84 -41 -104q-10 -16 -50 -62l-8 -10q-70 -74 -162 -74q-70 0 -124 38t-78 104q-14 31 -15 84z M244 307q0 -41 18 -90l2 -2q12 -16 45 -28.5t62 -12.5h14l4 2h2q49 37 75 94.5t36 147.5q2 31 -29 76l-4 6h-6h-8q-14 0 -43 -8q-16 -4 -23 -5q-39 -8 -71.5 -33.5t-49.5 -60.5l-4 -8q-20 -41 -20 -78zM692 516q0 -16 2 -24l2 -21l19 12l37 29q102 72 149 117q51 45 76 106 q6 12 6 27q0 20 -14 35q-16 16 -35 16q-6 0 -23 -4q-43 -12 -94 -57t-88 -108.5t-37 -127.5z" />
<glyph unicode="&#xe7;" horiz-adv-x="1091" d="M102 -547q10 6 27.5 14.5t28.5 12.5q246 66 428 203q20 16 27.5 26t23.5 51l-66 11q-74 8 -88 90q-10 45 -6 112q0 59 -47 82q-35 16 -59.5 45t-48.5 70q-70 117 -70 221q0 150 145 318q16 18 43 40.5t41 36.5q37 33 82 33q55 4 96 -24.5t56 -81.5q2 -6 2 -19 q0 -18 -12.5 -31.5t-32.5 -15.5h-13h-22q-14 0 -23 -2q-35 -4 -51 -18q-129 -106 -157 -244q-4 -33 -5 -49q0 -18 5 -51q8 -51 32.5 -75t79.5 -32q41 -4 76 -12q33 -8 70 -8q45 0 88 12l133 33q-10 -2 67 16q15 -39 17 -45l20 -53q-49 -63 -137 -84q-90 -20 -135 -27 q-27 -2 -41 -17.5t-23 -43.5q12 -14 45 -43q14 -12 43 -38t47 -48q39 -41 39 -84q0 -37 -30 -80q-84 -117 -197 -168q-160 -70 -276 -104q-31 -10 -76 -11q-25 0 -70 4q-68 4 -76 78z" />
<glyph unicode="&#xe8;" horiz-adv-x="1073" d="M102 399q0 47 7 93q2 14 9 62t25 83q84 164 297 180q18 2 32.5 1t25.5 -1q14 2 45 2q150 0 295 -84q63 -39 63 -84t-65 -86q-41 -25 -119 -78q-104 -72 -177 -110.5t-159 -52.5q-12 -2 -27.5 -20.5t-13.5 -29.5q4 -14 15.5 -53t25.5 -67.5t35 -47.5q16 -16 65 -16 q51 0 80 14q127 55 252 152q35 25 61 25q33 0 70 -37q27 -24 27 -49q0 -29 -41 -70q-180 -180 -398 -180q-70 0 -143 18q-139 37 -213 159t-74 277zM264 1196q-6 29 21 68q14 20 39 20q16 0 45 -12q57 -27 73 -51q66 -100 166 -177q10 -8 16.5 -25.5t2.5 -27.5 q-6 -12 -25.5 -24.5t-30.5 -18.5q-4 -2 -16 -2q-61 0 -127 37t-112 95.5t-52 117.5zM373 549q53 -6 112.5 28.5t81.5 84.5q-32 10 -71 10q-49 0 -79 -29t-44 -94z" />
<glyph unicode="&#xe9;" horiz-adv-x="1130" d="M102 375q0 74 27 135q43 102 86 176t109 133q63 57 172 58q102 0 200.5 -48.5t130.5 -115.5q18 -41 19 -82q0 -37 -15 -53l-38 -58q-68 -100 -121.5 -159.5t-128.5 -94.5q-37 -18 -84 -29.5t-56 -13.5q-35 -6 -59 -14q14 -63 54 -98t96 -35q45 0 102 28q117 61 278 177 q43 33 74 32q29 0 53 -24q27 -24 27 -53q0 -27 -31 -66q-176 -225 -458 -225q-53 0 -80 4q-92 10 -174 72.5t-132.5 157.5t-50.5 196zM131 905q12 43 14 45q70 102 169.5 181t226.5 145q37 18 63 18q45 0 84 -51q14 -16 14 -41q0 -33 -28 -51q-27 -16 -76 -53 q-160 -109 -229 -146q-54 -28 -91.5 -42.5t-80.5 -14.5q-37 0 -66 10zM338 438q0 -35 8 -61l66 63q66 63 108 111q51 57 70 129q2 6 2 16q0 20 -12.5 34.5t-30.5 14.5q-12 0 -25 -6q-41 -20 -84 -66t-72.5 -108.5t-29.5 -126.5z" />
<glyph unicode="&#xea;" horiz-adv-x="1191" d="M102 240q0 12 10.5 22t28.5 12q33 4 54 5q37 0 73 -7q8 -2 25 -2q41 0 41 35q0 14 -6 29q-16 61 -17 110q0 90 40 172t112 177q14 18 40.5 29.5t67.5 21.5q12 4 25.5 8t28.5 8q55 -4 112.5 -36.5t95 -82t37.5 -100.5q0 -41 -18 -70q-84 -129 -227 -325q-6 -8 -26.5 -26.5 t-20.5 -35.5q0 -14 10 -30q23 -31 52.5 -49.5t57.5 -18.5q25 0 37 10q143 86 217 148q39 35 68 35q18 0 33 -15q39 -35 39 -76q0 -25 -23 -51q-90 -98 -178 -149q-78 -45 -152 -45q-125 0 -264 116q-27 23 -52.5 32t-70.5 18q-45 8 -67 16q-104 41 -162 82q-20 14 -21 33z M336 967q37 143 180 243q33 25 72 25q31 0 71 -21q49 -29 70 -51q96 -102 158 -180q8 -10 11 -27.5t-1 -29.5q-6 -20 -25.5 -28.5t-37.5 -2.5q-57 23 -109 57q-20 14 -61 52q-16 12 -50 40l-71 -77q-49 -56 -94 -56t-113 56zM526 489q56 37 87.5 86.5t31.5 94.5q0 25 -8 41 q-55 -49 -84 -101.5t-27 -120.5z" />
<glyph unicode="&#xeb;" horiz-adv-x="946" d="M102 399q0 158 86 258l37 45q41 51 69 79t64 48q70 37 129 37q25 0 50 -6q127 -29 213 -115q51 -51 51 -116q0 -45 -27 -92q-47 -82 -120.5 -136.5t-174.5 -95.5q-16 -6 -49 -14q-18 -2 -41 -10q-20 -6 -30.5 -20.5t-10.5 -31.5q0 -18 10 -34q43 -68 107 -68q14 0 22 2 q90 14 160 45q49 23 127 70l70 41q-33 -131 -103 -217q-47 -61 -115.5 -92t-144.5 -31q-86 0 -163.5 40t-124.5 115q-90 145 -91 299zM111 1139q0 27 20 41q16 12 41 22t31 12q113 -8 166 -86q12 -18 12 -38t-12.5 -37t-32.5 -23q-23 -6 -43 -6q-51 0 -101.5 24.5 t-72.5 61.5q-8 14 -8 29zM391 532q61 25 98 47.5t56 65.5q2 2 2 8q0 10 -8 19q-6 4 -14.5 8t-12.5 2q-107 -41 -121 -150zM563 1085q0 27 15.5 49.5t39.5 30.5q25 6 52 6q41 0 77.5 -18t63.5 -51q25 -31 25 -64q0 -18 -9 -34q-10 -27 -30.5 -34t-55.5 -9q-98 -1 -161 79 q-16 16 -17 45z" />
<glyph unicode="&#xec;" horiz-adv-x="688" d="M102 1087q0 18 9 29q23 37 65 37q12 0 45 -8q29 -10 37 -17l111 -84l194 -147q8 -6 13.5 -23.5t9.5 -27.5q-8 -6 -19.5 -19.5t-23.5 -15.5q-20 -4 -33 -4q-18 0 -35 6q-211 84 -336 207q-37 35 -37 67zM311 649q0 43 27 71t65 28q27 0 48 -11q88 -35 86 -125v-288h-5 v-138q0 -90 -2 -137q0 -51 -20 -90q-25 -47 -68 -47q-39 0 -63 41q-27 47 -29 90q-12 141 -28 424l-5 47q-2 23 -4 56.5t-2 78.5z" />
<glyph unicode="&#xed;" horiz-adv-x="503" d="M113 623q-2 37 22.5 59.5t63.5 22.5q57 0 97 -35t42 -95q2 -82 4 -124l-2 -189l-6 -137q0 -35 -4 -113q-6 -100 -76 -100q-29 0 -55.5 18.5t-38.5 49.5q-27 66 -27 120q0 174 -20 523zM156 868q0 25 10 37q86 119 139 182.5t129 110.5q39 27 88 37q33 6 58.5 -17.5 t25.5 -54.5q0 -16 -4 -24q-12 -25 -20 -37l-174 -264q-27 -41 -54.5 -55.5t-83.5 -14.5q-4 0 -21.5 3t-33.5 9q-25 8 -42 35t-17 53z" />
<glyph unicode="&#xee;" horiz-adv-x="911" d="M102 670q0 33 29 57q211 184 313 268q61 49 123 49q49 0 91 -29.5t69 -84.5q59 -125 76 -176q4 -11 4 -27q0 -29 -23.5 -46t-62.5 -17q-51 0 -92 36q-2 2 -45 52l-52 55q-57 -57 -155 -152q-63 -68 -154 -67q-41 0 -84 24q-37 18 -37 58zM393 410q0 123 121 122 q41 0 70.5 -20t40.5 -57q16 -51 16 -142q0 -26 -2 -61t-4 -53v-99q0 -63 -2 -96q-2 -78 -68 -90q-8 -2 -22 -2q-35 0 -61.5 16.5t-39.5 48.5q-8 23 -16 80l-29 287q-4 45 -4 66z" />
<glyph unicode="&#xef;" horiz-adv-x="716" d="M20 854q0 37 33 57q49 33 88 27q49 -6 140 -47q26 -12 26 -45q0 -16 -9 -31.5t-26 -21.5q-23 -10 -56.5 -19.5t-49.5 -15.5q-14 4 -46 12t-57 21q-20 8 -31.5 26.5t-11.5 36.5zM317 254l2 111h-2v145v74q2 86 76 98q9 2 27 2q39 0 69.5 -18.5t40.5 -49.5q18 -53 15 -120 q-2 -207 -19 -412q-2 -51 -28 -131q-12 -41 -70 -41q-70 0 -78 57q-25 135 -28 203q-4 53 -5 82zM434 895q0 35 43 68q14 10 34.5 17t29.5 9q82 -6 116 -59q19 -25 19 -58q0 -27 -14 -47q-8 -14 -27 -22t-39 -8q-18 0 -35 6q-14 4 -35.5 16t-38.5 19q-53 25 -53 59z" />
<glyph unicode="&#xf0;" horiz-adv-x="1118" d="M102 289q0 74 62 135l29 33q160 160 313 159q59 0 127 -24q6 29 6 55q0 121 -113 283q-14 -4 -75 -23l-99 -28q-12 -4 -37 -5q-49 0 -65 35q-6 16 -6 29q0 51 49 84q31 18 106 61q4 35 -11 50.5t-46 31.5q-14 8 -34.5 17.5t-31.5 13.5q-43 16 -77 37q-12 6 -21.5 24.5 t-7.5 32.5t16.5 27.5t28.5 17.5q45 10 78 11q98 0 184 -64q27 -18 46.5 -35.5t35.5 -29.5q47 -41 45 -39q55 14 99.5 38.5t107.5 67.5q29 20 43 29q55 37 109 30q22 -2 37.5 -20t15.5 -39q0 -14 -10 -29q-41 -53 -103 -98q-23 -18 -76 -51q-31 -18 -61.5 -40t-54.5 -46 l53 -119q94 -195 94 -414q0 -178 -67 -374q-29 -80 -104 -128t-165 -48q-43 0 -90 12q-180 51 -287 211q-43 66 -43 129zM276 322q51 -156 226 -205q20 -4 30 -4q29 0 50 20q26 27 39.5 60.5t13.5 70.5q0 49 -25 82q-49 68 -83.5 97.5t-69.5 29.5q-31 0 -67 -23.5t-85 -76.5 q-8 -10 -16 -26.5t-13 -24.5z" />
<glyph unicode="&#xf1;" horiz-adv-x="1298" d="M102 707q0 25 14.5 53t35.5 49q49 57 106 74q37 10 66 10q86 0 146 -66.5t67 -171.5q2 -27 16 -114l33 28q20 16 49 45q70 72 151 72q66 0 120.5 -46t78.5 -126q27 -82 61.5 -131t104.5 -72q12 -4 25.5 -26.5t19.5 -30.5q-10 -8 -30.5 -25.5t-37.5 -19.5q-10 -2 -30 -2 q-78 0 -155 48t-112 120q-8 16 -27.5 35.5l-29.5 29.5q-10 -10 -30.5 -29.5t-28.5 -35.5q-72 -158 -121 -283q-20 -47 -35.5 -65.5t-54.5 -14.5q-66 10 -98.5 23.5t-43.5 60.5q-25 100 -34 232q-4 43 -4 129v86q0 90 -80 90q-12 0 -26.5 3t-24.5 5q-92 4 -91 66zM322 1069 q0 31 8 39q35 33 112 76q33 16 39 20l80 -30q104 -37 176 -72q10 -4 41 -18.5t48.5 -19.5t29.5 -5q25 0 45.5 18.5t65.5 71.5q41 53 86 53q6 0 26 -4q102 -31 103 -84q0 -37 -41 -86q-33 -41 -80 -88q-43 -43 -103 -43q-35 0 -100 21q-41 12 -61 16q-41 8 -97 37 q-10 4 -23 11t-30 13q-43 16 -74 17q-29 0 -63 -15q-20 -10 -53 -10q-37 0 -123 23q-4 2 -8 20.5t-4 38.5z" />
<glyph unicode="&#xf2;" horiz-adv-x="1005" d="M102 408q0 72 21.5 130t75.5 105q16 14 37 55q23 41 34 54q84 92 201 92q61 0 137 -27q10 -4 67.5 -24.5t96.5 -53t57 -75.5q29 -64 56 -146l18 -49q-23 -113 -47.5 -187.5t-71.5 -137t-127 -103.5q-76 -37 -159 -37q-92 0 -178.5 43t-144.5 118t-69 169q-4 49 -4 74z M319 360q6 -18 19.5 -69t32.5 -96q25 -53 80 -54q8 0 36 4q63 12 111.5 71.5t74 139.5t25.5 148q1 135 -110 229q-25 23 -51 23q-25 0 -58 -27q-74 -59 -105.5 -144t-54.5 -225zM326 1167q0 25 18 46.5t43 23.5q41 0 74 -12q102 -43 307 -133q90 -41 117 -154q4 -25 4 -33 q0 -66 -74 -108q-68 31 -130 69.5t-155 100.5q-78 49 -157 118q-25 23 -43 62q-4 12 -4 20z" />
<glyph unicode="&#xf3;" horiz-adv-x="1005" d="M102 408q0 72 21.5 130t75.5 105q16 14 37 55q23 41 34 54q84 92 201 92q61 0 137 -27q10 -4 67.5 -24.5t96.5 -53t57 -75.5q29 -64 56 -146l18 -49q-23 -113 -47.5 -187.5t-71.5 -137t-127 -103.5q-76 -37 -159 -37q-92 0 -178.5 43t-144.5 118t-69 169q-4 49 -4 74z M295 1034q2 33 22.5 52.5t57.5 33.5l67 27l95 37q70 25 122 24q14 0 48 -4q49 -6 61 -55q2 -8 2 -21q0 -31 -31 -53l-55 -31q-55 -31 -102 -53l-105 -55q-35 -20 -61 -21q-23 0 -41 13l-15 8q-30 20 -48.5 42.5t-16.5 55.5zM319 360q6 -18 19.5 -69t32.5 -96q25 -53 80 -54 q8 0 36 4q63 12 111.5 71.5t74 139.5t25.5 148q1 135 -110 229q-25 23 -51 23q-25 0 -58 -27q-74 -59 -105.5 -144t-54.5 -225z" />
<glyph unicode="&#xf4;" horiz-adv-x="1005" d="M104 377l11 53q8 61 20 107q18 76 74.5 106.5t146.5 48.5q66 10 113 10q184 0 305 -120q68 -66 68 -158q0 -96 -70 -201q-78 -119 -176 -180q-70 -41 -147 -41q-90 0 -172 46t-131.5 132t-41.5 197zM160 803q0 33 24 53l103 94q63 61 103 94t89 58q45 23 84 22 q78 0 131 -75q12 -16 33 -50l31 -51q31 -47 116 -164l25 -34q6 -9 6 -21q0 -18 -14 -32.5t-35 -16.5q-84 0 -123 53q-27 33 -76 103l-45 61l-51 72q-10 -4 -29.5 -12.5t-29.5 -16.5q-16 -16 -88 -98q2 2 -33 -39q-10 -10 -64 -78q-16 2 -52 7t-62 13q-20 8 -31.5 23.5 t-11.5 34.5zM334 338l14 -6v-31q0 -43 6 -61q31 -80 60 -80q14 0 35.5 11t35.5 26q27 23 54.5 56.5t38.5 45.5q47 53 47 127q0 61 -37 113.5t-99 70.5q-6 2 -20 2q-16 0 -30.5 -3t-16.5 -9q-35 -94 -68 -201q-8 -20 -20 -61z" />
<glyph unicode="&#xf5;" horiz-adv-x="1077" d="M102 408q0 72 21.5 130t75.5 105q16 14 37 55q23 41 34 54q84 92 201 92q61 0 137 -27q10 -4 67.5 -24.5t96.5 -53t57 -75.5q29 -63 56 -146l18 -49q-23 -113 -47.5 -187.5t-71.5 -137t-127 -103.5q-76 -37 -159 -37q-92 0 -178.5 43t-144.5 118t-69 169q-4 49 -4 74z M246 948q16 127 67 187q59 70 119 69q53 0 100 -55q86 -94 117 -121q35 -27 72 -27q23 0 46.5 8.5t45 18.5t31.5 14q10 6 30 23q23 16 39 16q35 0 62 -61q0 -49 -15.5 -79t-39.5 -52q-82 -66 -160 -66q-39 0 -82 17q-27 10 -82 65q-43 43 -76 66.5t-74 27.5q-25 -6 -81 -45 q-27 -16 -52.5 -30.5t-40.5 -14.5q-25 0 -26 39zM319 360q6 -18 19.5 -69t32.5 -96q25 -53 80 -54q8 0 36 4q63 12 111.5 71.5t74 139.5t25.5 148q1 135 -110 229q-25 23 -51 23q-25 0 -58 -27q-74 -59 -105.5 -144t-54.5 -225z" />
<glyph unicode="&#xf6;" horiz-adv-x="1009" d="M102 311q0 16 4 49q6 41 31 134q29 102 88.5 155t171.5 45q0 49 17.5 82t56.5 62l-37 18l-39 21q-18 8 -38.5 16t-45.5 18q-31 16 -47 45t-10 54q6 29 35.5 48t64.5 19q51 0 96.5 -32.5t57.5 -81.5q4 -20 8 -66l6 -47l45 -25q59 -33 70 -39q92 -61 142 -152t50 -194 q0 -39 -10 -90q-31 -137 -113.5 -225t-218.5 -115q-49 -8 -73 -8q-90 0 -161 42t-111 113.5t-40 153.5zM309 285q-4 -35 27 -72t63 -33q16 2 25 2q88 0 151.5 99.5t65.5 171.5q-2 63 -17.5 108t-70.5 78q-33 20 -59 27q-20 0 -39 -12.5t-29 -35.5q-6 -16 -38 -55t-40 -71 q-29 -113 -39 -207zM653 971q35 80 103 80q53 0 90 -29t57 -78q4 -8 4 -22q0 -27 -24 -45q-35 -29 -74 -29q-23 0 -41 8q-47 16 -76.5 42t-38.5 73z" />
<glyph unicode="&#xf7;" horiz-adv-x="1527" d="M102 526q0 25 24 58.5t46 40.5q121 27 299 34q31 0 92 -12q57 -14 96 -14q125 -4 371 -4q199 0 297 -2q23 -2 52.5 -21.5t43.5 -27.5q-12 -12 -27.5 -33t-28.5 -33t-28 -14q-113 -20 -358 -56l-119 -16v12h-608h-16q-25 0 -35 6q-14 8 -42 23.5t-43.5 30t-15.5 28.5z M500 1077q0 107 141 117q53 4 99 -35t46 -90q0 -43 -38.5 -73.5t-100.5 -30.5q-57 0 -102 34.5t-45 77.5zM627 90q0 70 44 115t107 45q57 0 97 -35t40 -88q0 -59 -47 -94t-127 -33q-8 2 -41.5 7t-53 25.5t-19.5 57.5z" />
<glyph unicode="&#xf8;" horiz-adv-x="946" d="M102 90q0 18 9 35q16 31 61 104q25 43 25 86q0 29 -4 43q-35 135 -35 220q0 31 2 45q8 82 18 120q8 27 26.5 41.5t43.5 14.5q16 0 35 -6q41 -16 58 -38t17 -59q0 -29 -4 -47q-4 -33 -4 -53l-4 -49q55 47 94 95t84 116q-66 31 -82 37q-29 12 -38 18t-14 22.5t-15 61.5 q25 16 53 16q25 0 78 -20t84 -23q33 43 63 80q25 25 52 25t59 -19q47 -25 47 -61q0 -16 -4 -27q-18 -51 -45 -102l-23 -47q41 -82 47 -92q58 -107 58 -211q0 -133 -90 -275q-74 -115 -193 -114q-49 0 -102 20q-27 10 -47.5 20.5t-36.5 16.5l-43 20l-56 -65q-35 -35 -75 -35 q-31 0 -56 16q-43 27 -43 70zM414 238q0 -25 24 -48q27 -20 51 -20q20 0 39 12q29 16 41 27q70 74 88 184q9 49 9 74q0 49 -31 88q-6 -2 -13.5 -3t-11.5 -5q-94 -100 -184 -268q-12 -20 -12 -41z" />
<glyph unicode="&#xf9;" horiz-adv-x="1046" d="M102 573q0 41 9 119l6 70q2 63 59 104q20 14 51 15q59 -4 101.5 -48.5t42.5 -103.5q0 -41 -10.5 -86t-12.5 -55q-12 -55 -12 -109q0 -74 22 -151q4 -16 18.5 -35t20.5 -29q10 2 20.5 3t14.5 5q178 145 215 342q10 61 29.5 87t56.5 26q29 0 72 -12q47 -12 66.5 -37 t19.5 -70l-2 -127q-2 -39 -2 -119q0 -260 53 -454q4 -21 4 -27q0 -29 -19.5 -47t-45.5 -18q-12 0 -33 8q-55 25 -74 57q-23 41 -42 95.5t-25 68.5q-2 8 -23 72q-2 14 -6 26.5t-6 20.5q-43 -18 -92 -43q-88 -49 -175 -49q-100 0 -173.5 63.5t-100.5 175.5q-27 98 -27 262z M152 1247q0 37 32.5 59.5t91.5 24.5q47 4 89.5 -18.5t68.5 -71.5q23 -41 60 -123l43 -88q14 -25 14 -45q0 -23 -21 -43q-27 -27 -59 -27q-14 0 -29 7q-98 49 -137 90q-72 72 -133 174q-20 33 -20 61z" />
<glyph unicode="&#xfa;" horiz-adv-x="983" d="M80 412q0 70 10 149.5t14 100.5q10 49 39 77.5t74 28.5t82 -29.5t49 -64.5q2 -6 2 -21l-18 -53q-35 -119 -47.5 -209t25.5 -119.5t52 -29.5q92 -20 113 0q162 162 129 368l10 49q10 51 34 74t65 23q63 0 99 -28t36 -81q0 -14 -2 -22q-18 -74 -10 -136q0 -104 20 -217 q6 -29 14.5 -65.5t14.5 -54.5l18 -64v-20q0 -23 -12 -37.5t-35 -18.5q-25 -4 -35 -4q-80 -2 -119 70l-67 123q-8 16 -29.5 -11.5t-32.5 -37.5l-26 -27l-27 -29q-78 -84 -176 -71q-76 0 -136.5 47t-88.5 125q-39 98 -39 215zM430 922q2 23 16 39q78 90 159 152.5t179 84.5 q18 4 25 4q35 4 43 -22q4 -14 4 -35q0 -10 -2 -27q-10 -25 -43 -63q-102 -123 -162 -176q-39 -47 -121 -48q-6 0 -29.5 12.5t-43.5 26.5q-25 17 -25 52z" />
<glyph unicode="&#xfb;" horiz-adv-x="1095" d="M102 600q0 39 20.5 64.5t55.5 35.5q16 4 25 5q25 0 47 -12.5t37 -35.5q51 -82 51 -182q0 -129 12 -192q14 -63 42 -96t67 -33q53 0 119 53q100 86 118 211l6 59q2 31 11 92q2 23 16 36t37 16l31 2q27 0 51 -7q31 -6 50.5 -30.5t23.5 -57.5q2 -6 2 -20t-2 -21 q-4 -61 -4 -94q0 -176 63 -381q12 -37 12 -51q0 -27 -28 -47q-27 -16 -50 -16q-41 0 -75 36q-12 12 -41 54l-54 75q-27 2 -48 -5t-44.5 -18t-42.5 -20q-63 -29 -135 -28q-49 0 -108 16q-78 23 -133.5 73t-79.5 126q-31 98 -43 213q-6 43 -7 129q-2 16 -2 51zM238 961 q0 37 34 57q57 33 108.5 79t108.5 109q61 66 144 66q51 0 95 -29t71 -82q31 -66 57.5 -146.5t34.5 -103.5l24 -73q6 -14 7 -31q0 -33 -31 -53q-20 -14 -51 -15q-43 0 -62 29q-35 41 -71 117q-23 41 -70 141q-41 -10 -68.5 -28.5t-47 -36t-25.5 -23.5q-61 -53 -144 -53 q-16 0 -49 4q-29 4 -47 22.5t-18 49.5z" />
<glyph unicode="&#xfc;" horiz-adv-x="1157" d="M102 430l11 260q2 47 26.5 75t63.5 28q29 0 57 -15q27 -12 58.5 -34.5t48.5 -34.5q-4 -37 -9 -60q-8 -68 -10 -94q-2 -16 -10 -94t-4 -150q2 -39 22.5 -60.5t53.5 -21.5q27 0 55 15q113 57 162 137q51 84 92 176q4 10 10 31.5t15.5 35t27.5 19.5q31 12 59 12q43 0 89 -24 q16 -8 29.5 -32t15.5 -42q4 -250 4 -373l2 -184q-12 -2 -47 -10q-14 -2 -58 -10q-45 66 -59 92q-33 61 -51 100q-12 -6 -40 -18.5t-46 -24.5q-117 -76 -248 -76q-199 0 -275 156q-49 96 -45 221zM186 1114q0 23 9 39q10 23 30 29q23 6 43 6q49 0 119 -33q59 -27 76 -104 q-51 -51 -119 -52q-43 0 -106 23q-23 8 -37.5 34.5t-14.5 57.5zM788 1018q0 31 15 51q23 29 61 29q14 0 23 -2q74 -16 115.5 -43t52.5 -97q-27 -29 -56.5 -37t-56.5 -10t-37 -2q-31 -2 -54.5 14.5t-45.5 47.5q-16 20 -17 49z" />
<glyph unicode="&#xfd;" horiz-adv-x="972" d="M102 481q0 16 13.5 31.5t31.5 17.5q12 2 35 2q74 0 129 -57q37 -39 107 -125q25 -29 69 -86l68 -88q6 -6 19.5 -17.5t27.5 -23.5q20 59 26.5 114.5t8.5 135.5v6q0 8 -2 17.5t-2 17.5q-10 106 78 106q8 0 37 -4q35 -6 77 -30q25 -13 35 -28t10 -38q0 -16 -2 -24l-102 -568 q-29 -145 -117 -262q-31 -41 -75 -61.5t-95 -20.5q-47 0 -91 18.5t-77 55.5l-8 12l-2 35q0 10 2 16t14.5 10.5t22.5 2.5q23 -2 56.5 -10.5t52.5 -12.5q59 70 90.5 152t52.5 194q-63 14 -107.5 52t-103.5 108q-14 18 -47 55q-23 25 -141 164q-29 37 -46 55q-23 25 -38 56 q-6 10 -7 22zM311 686q0 25 11.5 42t31.5 20q61 0 112.5 20t121.5 59l71 37q29 12 109 43q12 -37 12 -65q0 -47 -30 -78q-150 -164 -332 -174q-47 -4 -77 22.5t-30 73.5z" />
<glyph unicode="&#xfe;" horiz-adv-x="968" d="M102 -172q0 16 2 36.5t2 47.5l-2 307q0 88 2 131q-2 12 -2 39v174v236q2 47 4.5 157.5t2.5 188.5q0 53 39.5 92t95.5 39q31 -2 41 -14.5t10 -36.5q0 -16 -2 -37t-2 -45q0 -119 2 -197q10 -31 41 -31q12 0 61 13l52 12q14 2 43 2q70 0 132 -29.5t134 -91.5 q59 -53 79.5 -102t26.5 -144l2 -38q0 -146 -69.5 -230t-163.5 -94q-14 0 -47 -8t-47 -10q-29 -2 -78 -2q-88 0 -168 20l-4 -303q0 -53 -40 -92t-95 -39q-31 2 -41.5 13t-10.5 36zM287 1012q0 -35 6 -60q-2 25 -2 56.5t-2 31.5q-2 -8 -2 -28zM324 705q0 -14 3 -32t1 -18 l6 -69q2 -47 8 -93.5t16 -56.5q23 -20 60 -31.5t76 -11.5q55 0 103 22.5t75 65.5q30 54 30 107q0 63 -48 118.5t-138 92.5q-6 2 -24 2q-47 0 -104.5 -23.5t-61.5 -52.5q-2 -8 -2 -20z" />
<glyph unicode="&#xff;" horiz-adv-x="1015" d="M102 412q0 16 11 37q12 23 38.5 42t55.5 19q8 0 24 -4q35 -12 66 -50t53 -79q12 -23 117 -139l45 -52q10 -12 23.5 -22t25.5 -23q45 66 74 160t31 174q2 33 25.5 52.5t56.5 19.5q43 0 81 -35q48 -45 65 -67.5t17 -55.5q0 -18 -10 -49q-35 -100 -86 -205 q-53 -115 -82 -170q-74 -152 -108 -229q-43 -98 -78 -236q-8 -39 -27.5 -53t-50.5 -14q-49 0 -83 30.5t-28 71.5q8 63 37 152q27 92 72 211q12 31 12 59q0 55 -53 88q-59 39 -106.5 87t-112.5 126q-41 49 -64 74q-4 8 -8 10q-33 41 -33 70zM166 666q14 39 54 62.5t85 23.5 q33 0 57 -13q35 -16 35 -51q0 -8 -4 -20q-16 -45 -43.5 -61.5t-99.5 -16.5q-6 2 -27.5 8t-42.5 18q-8 7 -13 23t-1 27zM612 729q49 55 80 73.5t74 18.5q31 0 49.5 -19.5t18.5 -45.5q0 -14 -11 -35q-29 -47 -94 -47q-80 0 -117 55z" />
<glyph unicode="&#x152;" horiz-adv-x="2281" d="M102 834q0 72 11 163q18 150 101 240t232 127q78 18 148 18q160 0 356 -90l51 -28q45 -29 58 -35q72 49 158 49q25 0 58.5 -4t47.5 -6q70 -10 166 -23.5t145 -19.5q61 -6 185 -23l67 -6q68 -6 117 -15.5t94 -33.5q55 -33 41 -70q-12 -27 -59 -59q-8 -6 -27 -6l-24 2 q-258 8 -519 24q-25 0 -65 4q-66 4 -98 5q-55 0 -99 -9q-6 -10 -12 -21t-6 -16q20 -104 42.5 -147t67.5 -56.5t148 -13.5q33 0 74 4.5t59 6.5q20 4 61 8q61 4 88 8q23 2 78.5 6t98.5 4q47 0 83.5 -15t65.5 -58q-14 -72 -106 -93q-219 -45 -370 -66.5t-302 -15.5 q-12 0 -29.5 -4t-27.5 -6q-25 -39 -38.5 -80t-29.5 -112q-2 -12 -6 -33t-12 -47q129 -70 296 -74q168 -6 502 -6q55 0 95 -6t77 -29q13 -8 24 -24.5t11 -30.5q0 -29 -37 -58q-23 -16 -65 -20q-53 -4 -80 -8q-221 -20 -334 -21q-78 0 -176 11q-35 4 -107 4t-108 2 q-78 4 -110 9t-59.5 19.5t-96.5 61.5q-14 -8 -37 -20.5t-54 -28.5q-117 -59 -243 -60q-162 0 -295 94.5t-191 255.5q-84 233 -84 472zM354 748q0 -156 49 -295q37 -100 56 -131q37 -61 81 -91t101 -30q45 0 90 14q84 25 139 104q68 105 104 217.5t42 256.5q-4 115 -73 213 t-189 165q-82 47 -156 48q-139 0 -207 -187q-8 -18 -14 -51q-23 -123 -23 -233z" />
<glyph unicode="&#x153;" horiz-adv-x="1554" d="M102 532q0 61 38 117t94.5 90.5t107.5 38.5q84 4 154.5 -15.5t138.5 -66.5q51 -35 94 -82q33 92 121 144q33 16 59 39q39 23 64.5 32t50.5 9q23 0 63 -11q72 -18 129.5 -57t95.5 -80t109 -125q31 -32 31 -61q0 -45 -78 -64q-51 -10 -153 -22l-93 -12q-80 -8 -116 -23 q-47 -20 -68.5 -45t-21.5 -64q0 -31 8 -61q14 -55 63 -93t103 -34q25 4 39 8q23 6 39 6q29 0 47 -13t20 -42q2 -18 -27.5 -44t-52.5 -30q-45 -6 -86 -6q-127 0 -209 62.5t-129 183.5l-10 -21q-74 -127 -203 -127q-12 0 -45 5q-131 20 -214 66t-111 153q-14 49 -27 121 q-18 84 -23 98q-2 8 -2 26zM358 358q0 -47 27 -90t76 -75q69 63 103 136.5t34 143.5q0 78 -37 123q-31 41 -60.5 63.5t-70.5 22.5q-37 0 -72 -16q2 -39 11 -91q10 -51 10 -90q0 -35 -12 -77q-8 -23 -9 -50zM907 557l310 23l-21 43q-6 4 -29.5 23.5t-51.5 31.5t-56 10 q-51 -4 -73.5 -21.5t-45.5 -54.5q-8 -6 -21.5 -28.5t-11.5 -26.5z" />
<glyph unicode="&#x2c6;" d="M205 1245q0 18 10 35q63 100 158 227q31 43 73 90q41 43 58 66q12 16 31.5 23.5t39.5 7.5q41 0 68 -31q16 -18 78 -107q49 -72 76 -106q92 -121 166 -207q4 -6 18 -20.5t14 -28.5q0 -12 -10 -25q-10 -14 -41 -14q-16 0 -32.5 6t-26.5 17q-164 164 -252 280q-23 31 -26 37 t-251 -242q-34 -34 -44.5 -46.5t-26.5 -12.5q-39 0 -59.5 13.5t-20.5 37.5z" />
<glyph unicode="&#x2dc;" d="M94 1421q-2 39 20.5 65.5t86.5 76.5q29 23 50 32t48 9q25 0 80 -9q37 -14 66.5 -33.5t68.5 -52.5q57 -49 107.5 -73.5t128.5 -24.5q31 0 45 2q80 33 118.5 69t63.5 83q16 31 29.5 42t35.5 11q63 0 87 -28.5t24 -86.5q0 -74 -53 -135q-61 -72 -118.5 -102.5t-119.5 -36.5 q-94 -10 -223 76q-6 4 -61 38q-92 59 -142 82q-27 12 -49 13q-31 0 -50.5 -21.5t-27.5 -56.5q-12 -49 -47 -49q-16 0 -37 10q-2 0 -64.5 19.5t-66.5 80.5z" />
<glyph unicode="&#x2000;" horiz-adv-x="1138" />
<glyph unicode="&#x2001;" horiz-adv-x="2277" />
<glyph unicode="&#x2002;" horiz-adv-x="1138" />
<glyph unicode="&#x2003;" horiz-adv-x="2277" />
<glyph unicode="&#x2004;" horiz-adv-x="759" />
<glyph unicode="&#x2005;" horiz-adv-x="569" />
<glyph unicode="&#x2006;" horiz-adv-x="379" />
<glyph unicode="&#x2007;" horiz-adv-x="379" />
<glyph unicode="&#x2008;" horiz-adv-x="284" />
<glyph unicode="&#x2009;" horiz-adv-x="455" />
<glyph unicode="&#x200a;" horiz-adv-x="126" />
<glyph unicode="&#x2010;" horiz-adv-x="1251" d="M102 541q0 39 60 67q51 23 106 29l99 6q217 18 358 19q111 0 204 -23t171 -82q24 -18 36.5 -32.5t12.5 -35.5q0 -20 -14 -43q-33 -6 -39 -4q-88 23 -217 23q-98 0 -236 -14l-82 -7q-43 -4 -115 -20l-65 -12q-29 -4 -45 -4q-100 0 -193 69q-41 29 -41 64z" />
<glyph unicode="&#x2011;" horiz-adv-x="1251" d="M102 541q0 39 60 67q51 23 106 29l99 6q217 18 358 19q111 0 204 -23t171 -82q24 -18 36.5 -32.5t12.5 -35.5q0 -20 -14 -43q-33 -6 -39 -4q-88 23 -217 23q-98 0 -236 -14l-82 -7q-43 -4 -115 -20l-65 -12q-29 -4 -45 -4q-100 0 -193 69q-41 29 -41 64z" />
<glyph unicode="&#x2012;" horiz-adv-x="1251" d="M102 541q0 39 60 67q51 23 106 29l99 6q217 18 358 19q111 0 204 -23t171 -82q24 -18 36.5 -32.5t12.5 -35.5q0 -20 -14 -43q-33 -6 -39 -4q-88 23 -217 23q-98 0 -236 -14l-82 -7q-43 -4 -115 -20l-65 -12q-29 -4 -45 -4q-100 0 -193 69q-41 29 -41 64z" />
<glyph unicode="&#x2013;" horiz-adv-x="1703" d="M102 727q68 39 132.5 50t183.5 9q201 -2 608 7q80 2 244 2q82 0 132 -43t52 -121q-164 -4 -483 -15q-352 -14 -527 -20q-162 -8 -276 59q-18 12 -36.5 35t-29.5 37z" />
<glyph unicode="&#x2014;" horiz-adv-x="1767" d="M104 721q2 10 17.5 21.5t30.5 15.5q29 4 65.5 4h46.5q31 2 56.5 1t44.5 -1h65l582 39q106 6 291 28l145 15l25 2q49 0 90 -23.5t86 -66.5q10 -8 14 -38t0 -42l-356 -23q-88 0 -211 -8q-180 -14 -541 -41l-270 -20l-43 -2q-29 0 -54 6q-49 12 -67 59q-10 14 -15.5 34.5 t-1.5 39.5z" />
<glyph unicode="&#x2018;" horiz-adv-x="430" d="M104 1055q-23 160 31.5 300t159.5 255q10 -6 24.5 -11.5t14.5 -11.5q0 -117 -17 -174q-51 -235 -1.5 -278t49.5 -70q0 -61 -8.5 -85t-46.5 -51.5t-89 -28.5t-85 46t-32 109z" />
<glyph unicode="&#x2019;" horiz-adv-x="526" d="M102 897q0 18 19 70q78 215 72 409q-2 53 30 121q8 18 26.5 29.5t39.5 11.5q23 0 47 -14q37 -25 62.5 -68t25.5 -88q0 -20 -6 -43q-80 -242 -154 -405q-20 -47 -54 -77t-85 -28q-2 6 -12.5 35t-10.5 47z" />
<glyph unicode="&#x201a;" d="M16 -373q37 74 68 221l68 222q4 12 10 52t24.5 92t51.5 105q6 11 45 15q63 6 126.5 -7.5t57.5 -45.5q-14 -76 -51 -162q-8 -20 -21 -60q-90 -283 -301 -485q-6 12 -43 30.5t-35 22.5z" />
<glyph unicode="&#x201c;" horiz-adv-x="696" d="M98 1151q0 137 74 235l14 23q29 47 44.5 64.5t33.5 17.5q12 0 29 -10q92 -51 92 -119q0 -35 -29 -74q-78 -104 -84 -233q-4 -84 -25.5 -146.5t-47.5 -95.5q-68 98 -88 219q-12 59 -13 119zM399 969q0 174 140 348q2 2 5 7t9 9q8 6 32.5 24.5t47.5 18.5q12 0 26 -8 q31 -14 49.5 -44t20.5 -64q2 -16 -8 -37t-25 -33q-53 -47 -82.5 -107.5t-54.5 -144.5q-4 -14 -8 -43q-4 -63 -66 -184q-86 94 -86 258z" />
<glyph unicode="&#x201d;" horiz-adv-x="806" d="M121 1511q0 16 14 19q43 4 67.5 -13.5t61.5 -60.5q18 -25 43 -49q113 -113 113 -279q0 -74 -21.5 -147.5t-62.5 -138.5q-45 -72 -107 -72q-55 0 -98 57q-10 12 18.5 63.5t57.5 135.5t33 188q2 23 -14.5 58t-47.5 100q-20 43 -38.5 82t-18.5 57zM449 1516q6 4 20 4 q49 0 136 -69t122 -171t33 -190q-2 -76 -103 -283q-12 -25 -35.5 -38t-52.5 -13q-53 0 -86 41q-4 6 -7 16t-1 18t7 29t16 33q39 45 60.5 98t21.5 139q0 66 -26 112t-56 126q-31 78 -49 148z" />
<glyph unicode="&#x201e;" horiz-adv-x="815" d="M102 -215q0 16 17 61q59 172 59 328q0 35 -2 53q-4 45 27 113q8 16 25.5 25.5t35.5 9.5q31 0 53 -15q43 -24 71 -67t28 -86q0 -18 -6 -37q-70 -217 -142 -373q-45 -96 -139 -92q-27 59 -27 80zM434 -270q0 20 21 53q47 74 47 176q0 49 -6 94q-4 53 -4 78q0 156 94 156 q25 0 67 -17q60 -24 60 -71q0 -8 -4 -25q-6 -27 -8.5 -64.5t-2.5 -50.5q-4 -90 -15 -152.5t-48 -121.5q-8 -16 -49 -44t-74 -30q-25 -8 -45 -8q-33 0 -33 27z" />
<glyph unicode="&#x2022;" horiz-adv-x="641" d="M102 637q39 88 115 144.5t164 60.5q66 2 111 -48.5t45 -134.5q0 -65 -32 -120.5t-83 -87t-111 -31.5q-16 0 -24 2q-127 20 -174 123q-6 16 -7.5 46t-3.5 46z" />
<glyph unicode="&#x2026;" horiz-adv-x="1331" d="M129 178q0 47 49 60q31 6 133 18q10 -29 54 -72q25 -25 38 -45t13 -47t-10 -47q-45 -25 -95 -25q-59 0 -109 35t-69 95q-4 20 -4 28zM578 199q0 29 14 46t37 17q20 0 41 -12q82 -53 123 -100q16 -16 16 -56q0 -16 -4 -37q-2 -12 -20.5 -21t-24.5 -13q-31 0 -74 33.5 t-75.5 75.5t-32.5 67zM956 184q0 12 13.5 32t38.5 50q82 -43 132 -86t72 -117l-69 -73l-47 45q-82 72 -125 121q-14 16 -15 28z" />
<glyph unicode="&#x202f;" horiz-adv-x="455" />
<glyph unicode="&#x2039;" horiz-adv-x="636" d="M102 614q0 33 37 76q92 106 203 262q23 35 39 49.5t37 14.5q20 0 67 -27q23 -12 36.5 -37.5t13.5 -56.5q0 -35 -17 -57q-33 -47 -68.5 -98.5t-68.5 -88.5q-27 -29 -27 -55q0 -29 39 -57q23 -18 123 -88l-31 -52q-20 2 -57 5.5t-59 13.5q-68 33 -215 123q-51 33 -52 73z " />
<glyph unicode="&#x203a;" horiz-adv-x="694" d="M102 1020q41 29 82 29q53 0 109 -48q133 -111 270 -264q29 -31 29 -51q0 -16 -13.5 -27.5t-48.5 -33.5q-45 -27 -86 -63t-98 -91q-76 -72 -174 -72q-29 0 -61 7q4 14 11 41.5t17 41.5q47 72 150 211q29 39 28 66q0 27 -30 51q-76 61 -133 123q-14 14 -27.5 40t-24.5 40z " />
<glyph unicode="&#x205f;" horiz-adv-x="569" />
<glyph unicode="&#x20ac;" d="M53 834q0 18 8.5 41.5t18.5 37.5q82 98 201 99q20 0 30 -2q8 -2 25 -2q33 0 55.5 15t46.5 50q88 139 201 223q25 18 58.5 25.5t88.5 11.5q16 0 50 4q14 2 47 2q49 0 78 -10q23 -8 48 -32.5t38 -36.5q-14 -8 -31 -22.5t-30 -22t-25 -7.5q-78 6 -132.5 -26.5t-126.5 -102.5 l-28 -28q-8 -8 -17.5 -26.5t-13.5 -29.5l207 -10q6 0 25.5 -1t29.5 -9q12 -8 22.5 -21.5t10.5 -25.5q0 -10 -13.5 -23.5t-25.5 -17.5q-25 -6 -43 -13.5t-31 -11.5q-49 -18 -81.5 -27.5t-67.5 -9.5l-25 2l-59 4q-33 0 -44 -8t-11 -28q0 -16 4 -43t6 -47q0 6 12 -72 q33 8 47 10q119 27 160 33q70 14 147 14q12 0 26.5 -11t16.5 -22v-8q0 -12 -6 -24.5t-14 -16.5q-82 -47 -205 -100q-20 -10 -51 -22.5t-47 -18.5q39 -61 73.5 -87t81.5 -30q39 -4 80 15q35 16 107 45q31 12 92 39q29 12 51 12q12 0 23 -6q14 -13 25.5 -39.5t4.5 -38.5 q-49 -90 -98 -117q-137 -74 -266 -74q-125 0 -232.5 69t-189.5 200q-94 -16 -154 -17q-39 0 -63 11q6 51 69.5 97t116.5 56q4 2 -8 117q-10 72 -10 108l-55 -18q-43 -16 -72 -23.5t-59 -7.5q-27 0 -52.5 8.5t-38.5 22.5q-6 10 -6 25z" />
<glyph unicode="&#x2122;" horiz-adv-x="1388" d="M102 1688q0 12 9 20q4 4 16 17.5t26.5 21.5t28.5 10q160 35 416 70q37 2 68 -25q-18 -31 -54 -41q-43 -10 -176 -47q-4 0 -9 -3t-9 -5q14 -29 14 -61q0 -23 -6 -52.5t-8 -48.5q-6 -45 -27 -135q-8 -25 -14 -59l-12 -60q-4 -20 -11.5 -57t-13.5 -62q-8 -31 -33 -88 q-4 -8 -14 -17t-14 -13l-15 2q-2 8 -5 23.5t-1 25.5q8 111 16 168q6 45 29 164l14 82l15 88q-6 2 -15.5 4t-16.5 5t-7 11q0 16 9 35.5t13 28.5l-39 -13l-43 -12q-23 -6 -90 -20h-6q-20 0 -28 16q-6 12 -7 27zM560 1115q-1 9 1 13q25 39 41 84t19 54q6 23 22 67l78 205 q47 102 57 125q16 31 62 25q18 -4 25 -13.5t9 -32.5q14 -168 37 -276q2 -6 9.5 -43t27.5 -74q20 43 31 76q8 16 20 49q41 96 52 119l53 113l51 116l8 4q12 2 33 3q20 0 27.5 -7.5t7.5 -27.5q0 -23 -2 -41q-4 -29 -4 -90q0 -49 2 -74q4 -43 16 -141l6 -45q18 -102 33 -170 q4 -16 4 -25q0 -18 -11 -26.5t-36 -10.5h-10l-41 2q-18 131 -51 389l-9 2q-18 -31 -20 -41q-6 -23 -33 -84q-35 -90 -43 -129q-4 -20 -8 -37.5t-8 -33.5q-8 -37 -33 -72q-8 -12 -31 -12q-18 0 -34.5 10t-22.5 25q-18 51 -47 153l-53 221l-5.5 5.5t-7.5 9.5l-32 -72l-31 -88 q-8 -23 -18.5 -50.5t-22.5 -58.5q-31 -84 -86 -110q-18 -6 -27 2q-4 4 -5 13z" />
<glyph unicode="&#x25fc;" horiz-adv-x="788" d="M0 0v788h788v-788h-788z" />
</font>
</defs>
</svg>
